<svg id="svg" version="1.1" xmlns="http://www.w3.org/2000/svg" xmlns:xlink="http://www.w3.org/1999/xlink" width="400" height="400" viewBox="0, 0, 400,400"><g id="svgg"><path id="path0" d="M348.242 57.503 C 347.243 58.077,338.170 65.866,330.859 72.428 C 308.737 92.283,295.701 106.762,285.988 122.266 C 270.475 147.028,267.317 174.885,276.670 204.454 C 278.063 208.856,278.264 208.713,278.726 202.989 C 278.948 200.235,279.540 196.250,281.289 185.742 C 281.813 182.593,284.897 170.276,286.374 165.430 C 288.440 158.653,288.344 158.916,292.502 148.633 C 299.435 131.487,312.400 111.885,325.702 98.438 L 330.146 93.945 328.678 96.875 C 327.870 98.486,326.581 100.684,325.812 101.758 C 325.043 102.832,323.712 104.766,322.854 106.055 C 321.995 107.344,321.090 108.614,320.841 108.876 C 320.592 109.139,319.985 110.018,319.492 110.829 C 318.998 111.641,317.927 113.200,317.110 114.293 C 316.293 115.387,315.625 116.400,315.625 116.543 C 315.625 116.687,315.044 117.638,314.333 118.656 C 310.658 123.922,300.000 143.744,300.000 145.313 C 300.000 145.533,299.829 146.019,299.619 146.392 C 299.086 147.341,297.461 151.450,296.879 153.320 C 296.611 154.180,296.163 155.410,295.884 156.055 C 295.399 157.173,293.585 162.956,291.806 169.051 C 288.036 181.973,284.191 202.220,281.625 222.656 C 280.361 232.732,280.566 232.096,278.311 232.913 C 273.242 234.748,272.561 239.599,277.075 241.721 L 278.815 242.539 278.065 246.717 C 276.563 255.092,273.716 263.787,270.485 269.868 C 268.333 273.921,268.335 274.159,270.569 277.744 C 274.776 284.498,279.111 294.084,281.913 302.831 C 282.515 304.711,283.096 306.249,283.203 306.249 C 283.797 306.252,283.128 279.086,282.524 278.619 C 278.483 275.502,281.392 268.502,285.997 270.263 C 289.168 271.475,289.516 277.081,286.505 278.453 L 285.547 278.890 285.565 293.839 L 285.584 308.789 286.896 304.297 C 289.206 296.384,293.500 286.616,297.713 279.688 C 298.824 277.861,300.058 275.741,300.456 274.977 L 301.180 273.586 299.015 269.440 C 295.151 262.042,291.789 250.868,291.658 244.995 L 291.602 242.452 293.555 241.441 C 298.125 239.075,297.306 234.403,292.028 232.733 L 290.430 232.227 290.554 229.102 C 291.243 211.769,291.838 209.992,298.487 205.422 C 306.545 199.883,313.877 192.260,319.944 183.113 C 324.115 176.823,324.493 175.920,322.772 176.352 C 322.190 176.498,319.598 177.031,317.010 177.536 C 314.422 178.042,310.065 179.065,307.328 179.809 C 304.591 180.554,302.423 181.047,302.511 180.904 C 302.600 180.761,304.048 179.782,305.730 178.727 C 307.413 177.672,309.248 176.446,309.809 176.002 C 310.370 175.559,311.229 174.932,311.719 174.609 C 319.067 169.771,328.478 159.357,333.426 150.586 C 338.675 141.283,344.670 123.828,342.617 123.828 C 341.083 123.828,331.546 127.374,327.258 129.539 C 324.579 130.892,325.184 130.031,330.263 125.264 C 340.458 115.695,346.403 105.664,349.748 92.383 C 352.301 82.247,352.877 66.707,350.943 60.151 C 350.028 57.050,349.661 56.689,348.242 57.503 M98.047 88.337 C 92.640 89.230,87.065 93.509,84.471 98.756 L 83.008 101.717 82.926 197.831 C 82.876 257.591,82.986 294.684,83.218 295.898 C 84.560 302.928,90.357 308.842,97.368 310.336 C 102.000 311.322,244.649 311.176,248.537 310.181 C 255.884 308.301,261.365 302.472,262.074 295.783 C 262.629 290.559,262.346 141.776,261.778 139.874 C 260.781 136.537,258.382 133.629,247.675 122.780 C 211.684 86.310,214.908 89.246,209.810 88.287 C 207.132 87.783,101.114 87.830,98.047 88.337 M208.139 97.981 C 210.336 99.233,210.529 100.575,210.538 114.664 C 210.549 131.395,211.173 133.895,216.421 138.262 C 220.751 141.866,221.192 141.950,237.128 142.181 C 252.541 142.405,252.385 142.378,253.653 145.049 C 254.607 147.061,254.647 292.038,253.694 295.247 C 252.677 298.672,249.435 301.444,245.703 302.079 C 241.817 302.741,99.819 302.486,97.809 301.813 C 94.956 300.859,92.824 298.869,91.354 295.789 L 90.111 293.185 90.369 274.425 C 90.511 264.106,90.735 221.914,90.867 180.664 C 91.134 97.242,90.882 104.303,93.711 101.081 C 96.267 98.170,97.477 97.876,107.813 97.656 C 129.548 97.194,207.198 97.445,208.139 97.981 M244.497 133.232 C 243.741 133.711,228.338 133.669,226.225 133.182 C 223.353 132.519,221.272 130.796,220.341 128.306 C 219.508 126.081,219.064 108.800,219.820 108.044 C 219.979 107.886,225.721 113.409,232.579 120.319 C 242.068 129.879,244.918 132.966,244.497 133.232 M120.836 226.928 C 118.156 228.562,118.604 233.218,121.520 234.034 C 123.716 234.648,201.148 234.408,202.357 233.782 C 205.384 232.217,205.252 228.030,202.135 226.727 C 199.746 225.729,122.489 225.919,120.836 226.928 M120.282 254.657 C 118.633 256.307,118.657 258.766,120.338 260.376 L 121.536 261.523 170.631 261.612 C 198.880 261.662,220.374 261.550,221.250 261.347 C 224.624 260.564,225.691 257.254,223.331 254.894 L 221.953 253.516 171.689 253.516 L 121.424 253.516 120.282 254.657 M85.366 290.601 C 85.242 290.803,85.430 291.130,85.784 291.328 C 86.224 291.574,86.288 291.775,85.988 291.961 C 85.745 292.111,85.547 292.047,85.547 291.820 C 85.547 291.592,85.415 291.427,85.254 291.453 C 84.490 291.573,84.322 291.355,84.766 290.820 C 85.301 290.175,85.725 290.020,85.366 290.601 " stroke="none" fill="#08abd8" fill-rule="evenodd"></path><path id="path1" d="M0.000 200.000 L 0.000 400.000 200.000 400.000 L 400.000 400.000 400.000 200.000 L 400.000 0.000 200.000 0.000 L 0.000 0.000 0.000 200.000 M350.654 58.496 C 353.006 64.110,352.878 79.104,350.378 90.625 C 347.449 104.122,341.970 114.005,331.838 124.067 L 325.894 129.971 329.958 128.054 C 333.789 126.247,339.254 124.263,342.090 123.650 C 343.693 123.303,343.714 123.656,342.393 128.866 C 337.925 146.491,329.384 160.382,316.211 171.450 C 312.581 174.501,304.611 180.078,303.884 180.078 C 303.610 180.078,303.485 180.178,303.606 180.299 C 303.728 180.421,306.112 179.885,308.904 179.109 C 314.053 177.678,324.199 175.632,324.526 175.958 C 325.048 176.480,317.353 187.886,313.535 192.249 C 309.283 197.108,304.138 201.788,299.085 205.391 C 292.105 210.370,291.968 210.720,291.211 225.586 C 291.080 228.164,290.892 230.662,290.795 231.136 C 290.646 231.862,290.859 232.064,292.133 232.407 C 296.615 233.614,298.428 237.840,295.653 240.615 C 294.981 241.287,293.912 241.940,293.276 242.067 C 291.725 242.378,291.594 242.914,292.160 246.630 C 293.427 254.947,295.532 261.473,299.468 269.294 L 301.699 273.726 298.658 278.888 C 292.685 289.029,288.193 299.808,285.629 310.156 C 285.124 312.195,284.792 302.402,284.935 289.665 L 285.053 279.134 286.222 278.141 C 289.019 275.765,288.906 271.796,286.012 270.788 C 281.385 269.174,278.834 275.622,283.016 278.362 L 283.984 278.996 283.961 294.479 L 283.939 309.961 281.662 303.277 C 278.077 292.754,276.088 288.422,269.187 276.109 L 267.948 273.898 270.274 269.273 C 273.068 263.718,275.747 255.870,277.119 249.223 C 278.425 242.892,278.418 242.713,276.855 242.048 C 272.109 240.026,272.577 234.662,277.662 232.807 L 279.902 231.991 281.392 220.976 C 288.726 166.747,297.655 141.519,321.650 107.227 C 325.442 101.807,328.662 96.803,329.191 95.508 C 329.591 94.528,320.267 104.527,317.011 108.571 C 295.443 135.348,282.940 166.747,278.971 204.102 L 278.307 210.352 277.019 206.686 C 269.974 186.632,269.166 163.243,274.893 145.117 C 282.519 120.980,301.284 97.594,339.648 64.417 C 349.084 56.257,349.599 55.979,350.654 58.496 M209.307 87.896 C 213.918 88.494,215.853 89.782,222.721 96.823 C 225.998 100.182,235.541 109.927,243.929 118.480 C 259.990 134.856,261.292 136.434,262.313 140.764 C 263.192 144.491,263.172 294.069,262.292 297.447 C 260.621 303.862,255.358 308.974,248.617 310.730 C 245.663 311.499,100.387 311.651,96.797 310.889 C 91.466 309.757,86.589 305.779,84.074 300.511 L 82.617 297.461 82.516 200.487 L 82.414 103.514 83.221 101.118 C 85.779 93.526,92.308 88.557,100.781 87.754 C 104.250 87.426,206.717 87.559,209.307 87.896 M99.414 98.017 C 96.094 98.828,93.593 100.831,92.088 103.885 L 91.211 105.664 91.211 200.000 L 91.211 294.336 92.416 296.484 C 93.870 299.078,96.410 300.939,99.320 301.542 C 100.761 301.841,122.828 301.936,173.828 301.862 L 246.289 301.758 248.047 300.836 C 250.324 299.641,251.820 298.231,252.868 296.289 L 253.711 294.727 253.711 220.061 C 253.711 146.083,253.704 145.387,252.934 144.536 C 251.374 142.812,251.113 142.781,236.719 142.578 L 222.852 142.383 220.200 141.127 C 216.479 139.364,213.345 136.269,211.675 132.707 L 210.352 129.883 210.156 115.430 C 209.953 100.418,209.927 100.193,208.198 98.628 C 207.308 97.822,102.621 97.234,99.414 98.017 M219.929 116.255 C 219.915 132.325,220.449 132.909,235.352 133.133 L 244.727 133.274 239.654 128.063 C 236.863 125.197,231.285 119.512,227.258 115.430 L 219.935 108.008 219.929 116.255 M202.526 226.336 C 205.752 227.684,205.865 232.268,202.719 234.127 C 201.022 235.129,122.371 235.103,120.672 234.099 C 117.524 232.240,118.021 227.316,121.484 226.056 C 122.992 225.507,201.189 225.778,202.526 226.336 M221.289 253.114 C 224.454 253.844,225.933 257.090,224.334 259.797 C 222.877 262.262,226.092 262.128,171.155 262.016 L 121.157 261.914 120.142 260.961 C 117.353 258.340,118.374 253.970,121.975 253.115 C 123.814 252.679,219.398 252.677,221.289 253.114 " stroke="none" fill="#040404" fill-rule="evenodd"></path><path id="path2" d="M217.383 92.188 C 218.222 93.047,218.996 93.750,219.104 93.750 C 219.211 93.750,218.613 93.047,217.773 92.188 C 216.934 91.328,216.160 90.625,216.052 90.625 C 215.945 90.625,216.544 91.328,217.383 92.188 M136.822 97.546 C 137.416 97.636,138.294 97.633,138.775 97.541 C 139.255 97.448,138.770 97.374,137.695 97.377 C 136.621 97.380,136.228 97.456,136.822 97.546 M140.909 97.548 C 141.603 97.634,142.833 97.635,143.644 97.551 C 144.454 97.466,143.887 97.396,142.383 97.394 C 140.879 97.392,140.216 97.461,140.909 97.548 M161.230 97.558 C 169.448 97.617,182.896 97.617,191.113 97.558 C 199.331 97.500,192.607 97.451,176.172 97.451 C 159.736 97.451,153.013 97.500,161.230 97.558 M227.930 102.734 C 230.932 105.742,233.476 108.203,233.583 108.203 C 233.691 108.203,231.322 105.742,228.320 102.734 C 225.318 99.727,222.774 97.266,222.667 97.266 C 222.559 97.266,224.928 99.727,227.930 102.734 M219.707 108.309 C 219.602 108.582,219.564 112.845,219.622 117.782 L 219.728 126.758 219.923 117.285 C 220.113 108.014,220.096 107.296,219.707 108.309 M247.070 122.266 C 251.578 126.777,255.354 130.469,255.462 130.469 C 255.569 130.469,251.969 126.777,247.461 122.266 C 242.953 117.754,239.177 114.063,239.069 114.063 C 238.962 114.063,242.562 117.754,247.070 122.266 M233.008 121.094 C 235.364 123.457,237.379 125.391,237.487 125.391 C 237.594 125.391,235.754 123.457,233.398 121.094 C 231.042 118.730,229.027 116.797,228.920 116.797 C 228.812 116.797,230.652 118.730,233.008 121.094 M239.453 127.539 C 240.182 128.291,240.866 128.906,240.974 128.906 C 241.081 128.906,240.573 128.291,239.844 127.539 C 239.115 126.787,238.431 126.172,238.323 126.172 C 238.216 126.172,238.724 126.787,239.453 127.539 M221.057 130.009 C 221.294 130.453,221.681 130.935,221.916 131.080 C 222.222 131.269,222.221 131.116,221.912 130.538 C 221.674 130.094,221.288 129.612,221.053 129.467 C 220.746 129.277,220.748 129.431,221.057 130.009 M231.326 133.494 C 233.624 133.563,237.491 133.564,239.920 133.495 C 242.349 133.426,240.469 133.370,235.742 133.370 C 231.016 133.369,229.028 133.425,231.326 133.494 M215.234 137.622 C 215.234 137.719,215.880 138.290,216.668 138.892 C 217.457 139.493,217.979 139.786,217.828 139.542 C 217.519 139.042,215.234 137.351,215.234 137.622 M231.543 142.480 C 235.034 142.545,240.747 142.545,244.238 142.480 C 247.729 142.415,244.873 142.362,237.891 142.362 C 230.908 142.362,228.052 142.415,231.543 142.480 M250.814 142.696 C 250.903 142.761,251.504 143.123,252.148 143.501 L 253.320 144.187 252.398 143.383 C 251.891 142.940,251.290 142.578,251.063 142.578 C 250.837 142.578,250.724 142.631,250.814 142.696 M254.084 160.938 C 254.084 169.209,254.135 172.593,254.199 168.457 C 254.262 164.321,254.262 157.554,254.199 153.418 C 254.135 149.282,254.084 152.666,254.084 160.938 M271.248 172.070 C 271.248 175.078,271.310 176.257,271.384 174.690 C 271.458 173.123,271.458 170.662,271.383 169.221 C 271.308 167.780,271.247 169.063,271.248 172.070 M254.055 180.664 C 254.056 183.242,254.119 184.246,254.196 182.895 C 254.272 181.544,254.272 179.434,254.194 178.207 C 254.117 176.980,254.055 178.086,254.055 180.664 M271.583 180.273 C 271.587 181.133,271.667 181.438,271.761 180.952 C 271.854 180.467,271.851 179.763,271.753 179.390 C 271.655 179.017,271.579 179.414,271.583 180.273 M254.055 190.039 C 254.056 192.617,254.119 193.621,254.196 192.270 C 254.272 190.919,254.272 188.809,254.194 187.582 C 254.117 186.355,254.055 187.461,254.055 190.039 M262.200 194.922 C 262.200 195.674,262.280 195.981,262.379 195.605 C 262.477 195.229,262.477 194.614,262.379 194.238 C 262.280 193.862,262.200 194.170,262.200 194.922 M254.005 196.289 C 254.009 197.148,254.089 197.454,254.183 196.968 C 254.276 196.482,254.272 195.779,254.175 195.406 C 254.077 195.032,254.000 195.430,254.005 196.289 M254.088 217.969 C 254.088 229.033,254.138 233.560,254.199 228.027 C 254.260 222.495,254.260 213.442,254.199 207.910 C 254.138 202.378,254.088 206.904,254.088 217.969 M278.997 200.000 C 278.997 200.752,279.077 201.060,279.176 200.684 C 279.274 200.308,279.274 199.692,279.176 199.316 C 279.077 198.940,278.997 199.248,278.997 200.000 M262.208 204.102 C 262.212 204.961,262.292 205.267,262.386 204.781 C 262.479 204.295,262.476 203.592,262.378 203.218 C 262.280 202.845,262.204 203.242,262.208 204.102 M262.293 229.102 C 262.293 241.992,262.342 247.209,262.402 240.695 C 262.462 234.180,262.462 223.633,262.402 217.257 C 262.342 210.881,262.293 216.211,262.293 229.102 M278.028 207.627 C 277.924 208.169,277.991 208.706,278.177 208.821 C 278.363 208.936,278.516 208.493,278.516 207.836 C 278.516 206.385,278.284 206.286,278.028 207.627 M90.759 217.773 C 90.760 219.492,90.829 220.147,90.912 219.228 C 90.994 218.309,90.993 216.903,90.909 216.103 C 90.825 215.303,90.757 216.055,90.759 217.773 M291.497 216.016 C 291.497 216.768,291.577 217.075,291.676 216.699 C 291.774 216.323,291.774 215.708,291.676 215.332 C 291.577 214.956,291.497 215.264,291.497 216.016 M82.513 217.969 C 82.513 218.721,82.593 219.028,82.691 218.652 C 82.789 218.276,82.789 217.661,82.691 217.285 C 82.593 216.909,82.513 217.217,82.513 217.969 M281.731 219.922 C 281.731 220.674,281.812 220.981,281.910 220.605 C 282.008 220.229,282.008 219.614,281.910 219.238 C 281.812 218.862,281.731 219.170,281.731 219.922 M291.114 220.508 C 291.118 221.367,291.198 221.673,291.292 221.187 C 291.385 220.701,291.382 219.998,291.284 219.624 C 291.186 219.251,291.110 219.648,291.114 220.508 M82.520 221.680 C 82.525 222.539,82.605 222.845,82.698 222.359 C 82.792 221.873,82.788 221.170,82.690 220.796 C 82.592 220.423,82.516 220.820,82.520 221.680 M90.715 237.305 C 90.664 246.328,90.507 262.592,90.366 273.446 L 90.110 293.181 91.353 295.787 C 92.824 298.869,94.955 300.859,97.809 301.813 C 99.681 302.439,244.657 302.739,245.278 302.118 C 245.368 302.027,212.674 301.952,172.624 301.951 C 123.666 301.949,99.328 301.816,98.350 301.545 C 96.284 300.971,93.768 298.924,92.391 296.697 L 91.211 294.788 91.010 257.843 C 90.899 237.524,90.767 228.281,90.715 237.305 M281.349 222.852 C 281.353 223.711,281.433 224.017,281.526 223.531 C 281.620 223.045,281.616 222.342,281.518 221.968 C 281.421 221.595,281.344 221.992,281.349 222.852 M82.553 226.172 C 82.553 227.783,82.622 228.442,82.706 227.637 C 82.791 226.831,82.791 225.513,82.706 224.707 C 82.622 223.901,82.553 224.561,82.553 226.172 M290.742 226.172 C 290.742 227.354,290.815 227.837,290.905 227.246 C 290.994 226.655,290.994 225.688,290.905 225.098 C 290.815 224.507,290.742 224.990,290.742 226.172 M280.692 226.981 C 280.543 228.300,280.501 229.459,280.599 229.557 C 280.697 229.655,280.902 228.659,281.055 227.344 C 281.207 226.028,281.249 224.869,281.148 224.768 C 281.046 224.666,280.841 225.662,280.692 226.981 M136.621 226.074 C 144.409 226.133,157.153 226.133,164.941 226.074 C 172.729 226.015,166.357 225.967,150.781 225.967 C 135.205 225.967,128.833 226.015,136.621 226.074 M179.785 226.051 C 180.161 226.149,180.776 226.149,181.152 226.051 C 181.528 225.952,181.221 225.872,180.469 225.872 C 179.717 225.872,179.409 225.952,179.785 226.051 M187.225 226.072 C 188.900 226.145,191.536 226.145,193.084 226.071 C 194.632 225.997,193.262 225.937,190.039 225.937 C 186.816 225.938,185.550 225.999,187.225 226.072 M202.217 226.742 C 202.900 227.039,203.728 227.779,204.057 228.387 C 204.387 228.995,204.663 229.259,204.672 228.974 C 204.695 228.207,202.515 226.169,201.690 226.187 C 201.236 226.197,201.428 226.399,202.217 226.742 M118.900 228.688 C 118.781 228.998,118.753 229.569,118.837 229.958 C 118.932 230.399,119.066 230.187,119.193 229.395 C 119.406 228.064,119.267 227.731,118.900 228.688 M82.556 232.617 C 82.557 234.336,82.626 234.990,82.708 234.072 C 82.791 233.153,82.790 231.747,82.706 230.947 C 82.622 230.147,82.554 230.898,82.556 232.617 M203.906 232.363 C 203.906 232.616,203.335 233.172,202.637 233.598 C 201.938 234.024,201.577 234.373,201.834 234.374 C 202.535 234.376,204.536 232.532,204.199 232.195 C 204.038 232.033,203.906 232.109,203.906 232.363 M275.001 234.569 C 274.498 235.105,274.159 235.609,274.250 235.689 C 274.340 235.769,274.823 235.330,275.323 234.714 C 276.441 233.335,276.244 233.246,275.001 234.569 M121.791 234.445 C 122.159 234.591,137.051 234.683,154.883 234.649 C 172.715 234.616,183.965 234.541,179.883 234.483 C 162.030 234.230,121.181 234.204,121.791 234.445 M190.332 234.665 C 191.997 234.739,194.722 234.739,196.387 234.665 C 198.052 234.592,196.689 234.532,193.359 234.532 C 190.029 234.532,188.667 234.592,190.332 234.665 M82.513 237.109 C 82.513 237.861,82.593 238.169,82.691 237.793 C 82.789 237.417,82.789 236.802,82.691 236.426 C 82.593 236.050,82.513 236.357,82.513 237.109 M82.520 240.430 C 82.525 241.289,82.605 241.595,82.698 241.109 C 82.792 240.623,82.788 239.920,82.690 239.546 C 82.592 239.173,82.516 239.570,82.520 240.430 M295.960 239.629 C 295.833 239.960,295.152 240.582,294.447 241.012 C 293.741 241.442,293.381 241.795,293.646 241.795 C 294.295 241.797,296.744 239.582,296.435 239.273 C 296.300 239.139,296.087 239.299,295.960 239.629 M254.058 245.117 C 254.059 247.910,254.121 249.001,254.196 247.542 C 254.272 246.083,254.271 243.798,254.195 242.464 C 254.119 241.130,254.057 242.324,254.058 245.117 M82.556 245.117 C 82.557 246.836,82.626 247.490,82.708 246.572 C 82.791 245.653,82.790 244.247,82.706 243.447 C 82.622 242.647,82.554 243.398,82.556 245.117 M291.518 244.336 C 291.521 245.410,291.597 245.803,291.687 245.209 C 291.776 244.616,291.774 243.737,291.681 243.256 C 291.589 242.776,291.515 243.262,291.518 244.336 M82.513 249.609 C 82.513 250.361,82.593 250.669,82.691 250.293 C 82.789 249.917,82.789 249.302,82.691 248.926 C 82.593 248.550,82.513 248.857,82.513 249.609 M276.807 251.221 C 276.669 251.907,276.629 252.541,276.718 252.629 C 276.806 252.718,277.000 252.238,277.148 251.563 C 277.297 250.887,277.337 250.253,277.237 250.154 C 277.138 250.054,276.944 250.534,276.807 251.221 M254.013 251.953 C 254.013 252.920,254.089 253.315,254.182 252.832 C 254.275 252.349,254.275 251.558,254.182 251.074 C 254.089 250.591,254.013 250.986,254.013 251.953 M82.499 274.036 C 82.614 296.456,82.639 297.124,83.444 299.082 C 86.061 305.451,91.505 309.862,98.047 310.914 C 100.403 311.293,125.330 311.526,124.967 311.166 C 124.878 311.077,119.138 310.952,112.211 310.889 C 95.824 310.738,92.913 310.077,88.244 305.452 C 83.200 300.455,82.863 298.416,82.829 272.683 C 82.813 260.988,82.706 251.326,82.591 251.210 C 82.475 251.095,82.434 261.367,82.499 274.036 M120.078 254.453 C 118.947 255.584,118.758 256.033,118.802 257.480 L 118.854 259.180 119.119 257.270 C 119.313 255.873,119.672 255.112,120.456 254.438 L 121.528 253.516 171.741 253.516 L 221.953 253.516 223.281 254.844 C 224.578 256.140,225.059 256.266,224.109 255.060 C 222.483 252.997,225.953 253.125,171.554 253.125 L 121.406 253.125 120.078 254.453 M254.065 260.156 C 254.065 263.701,254.124 265.151,254.197 263.379 C 254.269 261.606,254.269 258.706,254.197 256.934 C 254.124 255.161,254.065 256.611,254.065 260.156 M275.614 255.692 C 275.470 256.264,275.428 256.808,275.520 256.900 C 275.612 256.992,275.805 256.599,275.949 256.027 C 276.092 255.454,276.135 254.911,276.042 254.819 C 275.950 254.726,275.758 255.119,275.614 255.692 M274.498 259.459 C 274.142 260.571,273.916 261.546,273.995 261.625 C 274.074 261.705,274.439 260.868,274.805 259.766 C 275.171 258.664,275.397 257.689,275.307 257.599 C 275.218 257.509,274.853 258.346,274.498 259.459 M119.617 260.149 C 119.883 260.574,120.364 261.023,120.686 261.147 C 121.007 261.270,120.849 260.922,120.333 260.373 C 119.208 259.176,118.962 259.099,119.617 260.149 M296.121 262.980 C 296.077 263.443,297.349 266.453,297.518 266.284 C 297.603 266.199,297.330 265.357,296.911 264.412 C 296.492 263.468,296.137 262.824,296.121 262.980 M270.786 268.569 C 269.884 270.387,269.231 271.875,269.334 271.875 C 269.595 271.875,272.739 265.578,272.565 265.404 C 272.488 265.327,271.687 266.751,270.786 268.569 M254.005 268.164 C 254.009 269.023,254.089 269.329,254.183 268.843 C 254.276 268.357,254.272 267.654,254.175 267.281 C 254.077 266.907,254.000 267.305,254.005 268.164 M299.414 270.313 C 299.958 271.387,300.492 272.266,300.599 272.266 C 300.707 272.266,300.349 271.387,299.805 270.313 C 299.260 269.238,298.727 268.359,298.620 268.359 C 298.512 268.359,298.870 269.238,299.414 270.313 M254.038 272.656 C 254.038 274.268,254.107 274.927,254.191 274.121 C 254.275 273.315,254.275 271.997,254.191 271.191 C 254.107 270.386,254.038 271.045,254.038 272.656 M287.037 271.399 C 287.614 271.996,288.160 272.435,288.250 272.374 C 288.475 272.221,286.656 270.313,286.285 270.313 C 286.121 270.313,286.460 270.801,287.037 271.399 M280.521 274.437 C 280.490 275.368,280.723 276.336,281.084 276.781 C 281.422 277.198,281.558 277.275,281.387 276.953 C 281.215 276.631,280.962 275.576,280.824 274.609 L 280.573 272.852 280.521 274.437 M287.178 277.394 C 286.679 278.009,286.507 278.422,286.796 278.312 C 287.323 278.109,288.444 276.579,288.211 276.381 C 288.142 276.322,287.678 276.778,287.178 277.394 M270.070 277.426 C 270.417 278.009,271.333 279.635,272.105 281.039 C 272.877 282.444,273.593 283.594,273.696 283.594 C 273.986 283.594,271.095 278.370,270.219 277.310 L 269.439 276.367 270.070 277.426 M298.977 277.441 C 297.632 279.723,297.545 279.917,298.230 279.102 C 299.023 278.156,299.707 276.953,299.451 276.953 C 299.349 276.953,299.135 277.173,298.977 277.441 M283.203 290.937 L 283.398 303.320 283.501 291.236 C 283.559 284.590,283.471 279.018,283.307 278.853 C 283.142 278.688,283.096 284.126,283.203 290.937 M285.417 278.776 C 285.273 278.919,285.156 286.156,285.156 294.857 C 285.156 303.558,285.248 310.586,285.360 310.474 C 285.514 310.319,285.862 278.516,285.710 278.516 C 285.692 278.516,285.560 278.633,285.417 278.776 M254.005 280.664 C 254.009 281.523,254.089 281.829,254.183 281.343 C 254.276 280.857,254.272 280.154,254.175 279.781 C 254.077 279.407,254.000 279.805,254.005 280.664 M254.038 285.156 C 254.038 286.768,254.107 287.427,254.191 286.621 C 254.275 285.815,254.275 284.497,254.191 283.691 C 254.107 282.886,254.038 283.545,254.038 285.156 M275.081 286.511 C 275.767 287.900,276.392 288.973,276.470 288.894 C 276.645 288.720,274.283 283.984,274.021 283.984 C 273.919 283.984,274.396 285.121,275.081 286.511 M254.034 291.211 C 254.036 292.715,254.107 293.282,254.191 292.472 C 254.276 291.661,254.274 290.431,254.188 289.737 C 254.102 289.044,254.033 289.707,254.034 291.211 M276.580 289.501 C 276.570 289.634,277.005 290.689,277.545 291.844 C 278.086 293.000,278.415 293.506,278.277 292.969 C 278.015 291.949,276.610 289.078,276.580 289.501 M291.672 291.229 C 290.754 293.153,290.883 293.481,291.842 291.662 C 292.278 290.836,292.566 290.092,292.481 290.007 C 292.397 289.923,292.032 290.473,291.672 291.229 M84.766 290.820 C 84.322 291.355,84.490 291.573,85.254 291.453 C 85.415 291.427,85.547 291.592,85.547 291.820 C 85.547 292.047,85.745 292.111,85.988 291.961 C 86.288 291.775,86.224 291.574,85.784 291.328 C 85.430 291.130,85.242 290.803,85.366 290.601 C 85.725 290.020,85.301 290.175,84.766 290.820 M262.208 295.508 C 262.212 296.367,262.292 296.673,262.386 296.187 C 262.479 295.701,262.476 294.998,262.378 294.624 C 262.280 294.251,262.204 294.648,262.208 295.508 M252.529 297.191 C 251.705 298.731,248.746 300.944,246.733 301.528 C 246.059 301.723,245.822 301.899,246.207 301.918 C 248.412 302.029,254.501 296.949,253.437 295.885 C 253.363 295.811,252.954 296.398,252.529 297.191 M279.325 296.289 C 279.325 296.504,279.576 297.119,279.883 297.656 C 280.190 298.193,280.441 298.457,280.441 298.242 C 280.441 298.027,280.190 297.412,279.883 296.875 C 279.576 296.338,279.325 296.074,279.325 296.289 M259.830 302.094 C 259.180 303.246,257.713 305.029,256.570 306.055 C 255.427 307.082,255.036 307.553,255.702 307.102 C 257.388 305.959,259.582 303.455,260.538 301.580 C 261.710 299.283,261.213 299.644,259.830 302.094 M248.438 310.217 C 246.353 310.819,246.200 310.913,247.582 310.740 C 248.508 310.625,249.826 310.285,250.511 309.984 C 252.178 309.255,251.511 309.330,248.438 310.217 M126.660 311.207 C 127.036 311.305,127.651 311.305,128.027 311.207 C 128.403 311.109,128.096 311.028,127.344 311.028 C 126.592 311.028,126.284 311.109,126.660 311.207 M130.566 311.222 C 131.372 311.306,132.690 311.306,133.496 311.222 C 134.302 311.138,133.643 311.069,132.031 311.069 C 130.420 311.069,129.761 311.138,130.566 311.222 M136.426 311.222 C 137.231 311.306,138.550 311.306,139.355 311.222 C 140.161 311.138,139.502 311.069,137.891 311.069 C 136.279 311.069,135.620 311.138,136.426 311.222 M141.704 311.214 C 142.190 311.307,142.893 311.304,143.266 311.206 C 143.640 311.108,143.242 311.032,142.383 311.036 C 141.523 311.040,141.218 311.120,141.704 311.214 M145.610 311.214 C 146.096 311.307,146.799 311.304,147.173 311.206 C 147.546 311.108,147.148 311.032,146.289 311.036 C 145.430 311.040,145.124 311.120,145.610 311.214 M154.985 311.214 C 155.471 311.307,156.174 311.304,156.548 311.206 C 156.921 311.108,156.523 311.032,155.664 311.036 C 154.805 311.040,154.499 311.120,154.985 311.214 M161.035 311.207 C 161.411 311.305,162.026 311.305,162.402 311.207 C 162.778 311.109,162.471 311.028,161.719 311.028 C 160.967 311.028,160.659 311.109,161.035 311.207 M168.253 311.219 C 168.946 311.306,170.177 311.307,170.987 311.223 C 171.798 311.138,171.230 311.067,169.727 311.066 C 168.223 311.064,167.560 311.133,168.253 311.219 M173.735 311.214 C 174.221 311.307,174.924 311.304,175.298 311.206 C 175.671 311.108,175.273 311.032,174.414 311.036 C 173.555 311.040,173.249 311.120,173.735 311.214 M176.860 311.214 C 177.346 311.307,178.049 311.304,178.423 311.206 C 178.796 311.108,178.398 311.032,177.539 311.036 C 176.680 311.040,176.374 311.120,176.860 311.214 M180.362 311.219 C 181.056 311.306,182.286 311.307,183.097 311.223 C 183.907 311.138,183.340 311.067,181.836 311.066 C 180.332 311.064,179.669 311.133,180.362 311.219 M186.230 311.224 C 187.144 311.306,188.638 311.306,189.551 311.224 C 190.464 311.141,189.717 311.074,187.891 311.074 C 186.064 311.074,185.317 311.141,186.230 311.224 M201.860 311.214 C 202.346 311.307,203.049 311.304,203.423 311.206 C 203.796 311.108,203.398 311.032,202.539 311.036 C 201.680 311.040,201.374 311.120,201.860 311.214 M207.520 311.207 C 207.896 311.305,208.511 311.305,208.887 311.207 C 209.263 311.109,208.955 311.028,208.203 311.028 C 207.451 311.028,207.144 311.109,207.520 311.207 M210.454 311.214 C 210.940 311.307,211.643 311.304,212.016 311.206 C 212.390 311.108,211.992 311.032,211.133 311.036 C 210.273 311.040,209.968 311.120,210.454 311.214 M213.775 311.218 C 214.369 311.308,215.248 311.305,215.728 311.212 C 216.208 311.120,215.723 311.046,214.648 311.049 C 213.574 311.052,213.181 311.128,213.775 311.218 M220.410 311.207 C 220.786 311.305,221.401 311.305,221.777 311.207 C 222.153 311.109,221.846 311.028,221.094 311.028 C 220.342 311.028,220.034 311.109,220.410 311.207 M223.735 311.214 C 224.221 311.307,224.924 311.304,225.298 311.206 C 225.671 311.108,225.273 311.032,224.414 311.036 C 223.555 311.040,223.249 311.120,223.735 311.214 M226.860 311.214 C 227.346 311.307,228.049 311.304,228.423 311.206 C 228.796 311.108,228.398 311.032,227.539 311.036 C 226.680 311.040,226.374 311.120,226.860 311.214 M230.362 311.219 C 231.056 311.306,232.286 311.307,233.097 311.223 C 233.907 311.138,233.340 311.067,231.836 311.066 C 230.332 311.064,229.669 311.133,230.362 311.219 M239.759 311.226 C 240.894 311.305,242.652 311.304,243.665 311.224 C 244.679 311.144,243.750 311.079,241.602 311.080 C 239.453 311.081,238.624 311.147,239.759 311.226 " stroke="none" fill="#16488f" fill-rule="evenodd"></path><path id="path3" d="M352.044 67.578 C 352.044 68.330,352.124 68.638,352.222 68.262 C 352.321 67.886,352.321 67.271,352.222 66.895 C 352.124 66.519,352.044 66.826,352.044 67.578 M352.060 75.781 C 352.060 76.748,352.136 77.144,352.229 76.660 C 352.322 76.177,352.322 75.386,352.229 74.902 C 352.136 74.419,352.060 74.814,352.060 75.781 M312.870 88.965 L 311.523 90.430 312.988 89.084 C 314.352 87.831,314.633 87.500,314.334 87.500 C 314.269 87.500,313.610 88.159,312.870 88.965 M324.987 99.121 L 322.852 101.367 325.098 99.232 C 326.333 98.058,327.344 97.047,327.344 96.986 C 327.344 96.696,326.970 97.034,324.987 99.121 M210.330 115.234 C 210.330 122.002,210.383 124.771,210.448 121.387 C 210.514 118.003,210.514 112.466,210.448 109.082 C 210.383 105.698,210.330 108.467,210.330 115.234 M82.608 137.109 C 82.608 154.189,82.656 161.177,82.715 152.637 C 82.773 144.097,82.773 130.122,82.715 121.582 C 82.656 113.042,82.608 120.029,82.608 137.109 M221.484 109.570 C 222.213 110.322,222.897 110.938,223.005 110.938 C 223.112 110.938,222.604 110.322,221.875 109.570 C 221.146 108.818,220.462 108.203,220.355 108.203 C 220.247 108.203,220.756 108.818,221.484 109.570 M237.891 112.695 C 239.058 113.877,240.100 114.844,240.208 114.844 C 240.315 114.844,239.448 113.877,238.281 112.695 C 237.114 111.514,236.072 110.547,235.964 110.547 C 235.857 110.547,236.724 111.514,237.891 112.695 M331.821 123.926 L 329.883 125.977 331.934 124.038 C 333.839 122.237,334.164 121.875,333.872 121.875 C 333.810 121.875,332.887 122.798,331.821 123.926 M326.601 128.670 C 325.918 129.397,325.838 129.672,326.240 129.904 C 326.525 130.069,326.624 130.056,326.461 129.877 C 326.298 129.697,326.549 129.142,327.018 128.642 C 327.487 128.143,327.783 127.734,327.675 127.734 C 327.568 127.734,327.085 128.155,326.601 128.670 M262.691 219.141 C 262.691 260.928,262.737 278.022,262.793 257.129 C 262.849 236.235,262.849 202.046,262.793 181.152 C 262.737 160.259,262.691 177.354,262.691 219.141 M323.416 164.355 L 322.070 165.820 323.535 164.474 C 324.899 163.221,325.180 162.891,324.881 162.891 C 324.816 162.891,324.157 163.550,323.416 164.355 M319.510 168.262 L 318.164 169.727 319.629 168.380 C 320.992 167.127,321.273 166.797,320.975 166.797 C 320.910 166.797,320.251 167.456,319.510 168.262 M82.579 174.219 C 82.579 177.549,82.639 178.911,82.712 177.246 C 82.785 175.581,82.785 172.856,82.712 171.191 C 82.639 169.526,82.579 170.889,82.579 174.219 M82.561 184.570 C 82.559 186.504,82.625 187.344,82.707 186.438 C 82.789 185.531,82.790 183.949,82.709 182.922 C 82.629 181.895,82.562 182.637,82.561 184.570 M82.553 192.578 C 82.553 194.189,82.622 194.849,82.706 194.043 C 82.791 193.237,82.791 191.919,82.706 191.113 C 82.622 190.308,82.553 190.967,82.553 192.578 M311.114 194.629 L 309.570 196.289 311.230 194.745 C 312.774 193.309,313.070 192.969,312.775 192.969 C 312.711 192.969,311.964 193.716,311.114 194.629 M82.547 208.203 C 82.547 209.600,82.618 210.171,82.704 209.473 C 82.791 208.774,82.791 207.632,82.704 206.934 C 82.618 206.235,82.547 206.807,82.547 208.203 M147.198 262.012 C 160.804 262.069,182.952 262.069,196.417 262.012 C 209.882 261.955,198.750 261.908,171.680 261.908 C 144.609 261.908,133.593 261.955,147.198 262.012 " stroke="none" fill="#054c68" fill-rule="evenodd"></path><path id="path4" d="M315.405 86.426 L 314.258 87.695 315.527 86.548 C 316.226 85.917,316.797 85.346,316.797 85.278 C 316.797 84.977,316.475 85.242,315.405 86.426 M128.223 87.793 C 142.778 87.850,166.597 87.850,181.152 87.793 C 195.708 87.736,183.799 87.690,154.688 87.690 C 125.576 87.690,113.667 87.736,128.223 87.793 M222.852 97.266 C 224.560 98.984,226.046 100.391,226.154 100.391 C 226.261 100.391,224.951 98.984,223.242 97.266 C 221.534 95.547,220.048 94.141,219.940 94.141 C 219.833 94.141,221.143 95.547,222.852 97.266 M328.292 95.803 L 327.148 97.067 328.320 96.092 C 328.965 95.556,329.565 95.073,329.655 95.020 C 329.744 94.966,329.732 94.836,329.626 94.731 C 329.521 94.625,328.921 95.108,328.292 95.803 M242.383 117.188 C 243.658 118.477,244.790 119.531,244.897 119.531 C 245.005 119.531,244.049 118.477,242.773 117.188 C 241.498 115.898,240.366 114.844,240.259 114.844 C 240.151 114.844,241.107 115.898,242.383 117.188 M238.086 126.563 C 239.578 128.066,240.887 129.297,240.995 129.297 C 241.102 129.297,239.969 128.066,238.477 126.563 C 236.984 125.059,235.675 123.828,235.568 123.828 C 235.460 123.828,236.594 125.059,238.086 126.563 M147.394 253.027 C 160.892 253.084,182.864 253.084,196.222 253.027 C 209.579 252.970,198.535 252.924,171.680 252.924 C 144.824 252.924,133.895 252.970,147.394 253.027 M283.593 293.086 L 283.789 307.617 283.891 293.384 C 283.948 285.556,283.860 279.016,283.696 278.852 C 283.533 278.688,283.486 285.093,283.593 293.086 M284.864 292.383 C 284.868 293.242,284.948 293.548,285.042 293.062 C 285.135 292.576,285.132 291.873,285.034 291.499 C 284.936 291.126,284.860 291.523,284.864 292.383 M284.894 297.070 C 284.896 298.574,284.966 299.142,285.051 298.331 C 285.135 297.521,285.134 296.290,285.048 295.597 C 284.961 294.903,284.892 295.566,284.894 297.070 M284.872 301.563 C 284.872 302.529,284.948 302.925,285.041 302.441 C 285.134 301.958,285.134 301.167,285.041 300.684 C 284.948 300.200,284.872 300.596,284.872 301.563 " stroke="none" fill="#04212b" fill-rule="evenodd"></path></g></svg>