<svg id="svg" version="1.1" xmlns="http://www.w3.org/2000/svg" xmlns:xlink="http://www.w3.org/1999/xlink" width="400" height="400" viewBox="0, 0, 400,400"><g id="svgg"><path id="path0" d="M348.186 57.533 C 343.121 60.404,309.980 91.414,302.121 100.638 C 297.107 106.522,296.290 107.512,295.923 108.152 C 295.722 108.502,295.063 109.316,294.460 109.961 C 293.857 110.605,293.362 111.334,293.361 111.579 C 293.360 111.825,293.096 112.127,292.773 112.251 C 292.451 112.374,292.184 112.701,292.181 112.976 C 292.177 113.251,291.778 113.851,291.295 114.309 C 290.812 114.767,290.159 115.646,289.845 116.262 C 289.331 117.271,287.612 119.818,287.112 120.313 C 287.003 120.420,286.609 121.167,286.237 121.973 C 285.864 122.778,285.416 123.438,285.240 123.438 C 285.065 123.438,283.406 126.470,281.554 130.176 C 278.523 136.239,277.505 138.477,277.775 138.477 C 277.825 138.477,277.626 138.916,277.331 139.453 C 277.037 139.990,276.739 140.774,276.669 141.194 C 276.600 141.614,276.356 142.073,276.129 142.214 C 275.901 142.355,275.708 142.626,275.701 142.817 C 275.694 143.008,275.533 143.571,275.344 144.068 C 275.155 144.566,275.000 145.390,275.000 145.901 C 275.000 146.411,274.821 146.939,274.603 147.074 C 274.385 147.209,274.298 147.468,274.410 147.650 C 274.523 147.832,274.412 148.479,274.164 149.088 C 273.917 149.697,273.688 150.459,273.656 150.781 C 273.455 152.829,272.897 155.515,272.641 155.673 C 272.475 155.776,272.430 156.209,272.542 156.635 C 272.653 157.061,272.610 157.720,272.447 158.100 C 272.283 158.479,272.106 159.404,272.052 160.156 C 271.999 160.908,271.858 162.666,271.739 164.063 C 271.493 166.948,271.505 176.851,271.759 180.078 C 271.852 181.260,271.985 182.930,272.055 183.789 C 272.125 184.648,272.309 185.662,272.463 186.041 C 272.618 186.420,272.653 187.079,272.542 187.505 C 272.430 187.932,272.516 188.390,272.732 188.524 C 272.949 188.657,273.026 189.266,272.904 189.876 C 272.782 190.486,272.860 191.096,273.078 191.230 C 273.296 191.365,273.432 191.768,273.379 192.124 C 273.326 192.481,273.506 193.429,273.778 194.231 C 274.051 195.032,274.164 195.867,274.028 196.086 C 273.893 196.305,273.942 196.484,274.137 196.484 C 274.333 196.484,274.820 197.847,275.221 199.512 C 275.621 201.177,275.970 202.627,275.996 202.734 C 276.023 202.842,276.155 203.193,276.290 203.516 C 276.778 204.680,278.071 208.416,278.250 209.180 C 278.351 209.609,278.444 208.994,278.458 207.813 C 278.472 206.631,278.577 204.697,278.693 203.516 C 278.808 202.334,278.896 200.708,278.889 199.902 C 278.881 199.097,279.014 198.438,279.183 198.438 C 279.353 198.438,279.517 197.866,279.547 197.168 C 279.577 196.470,279.682 195.371,279.779 194.727 C 279.876 194.082,280.092 192.542,280.258 191.303 C 280.424 190.065,280.692 188.971,280.853 188.871 C 281.014 188.772,281.060 188.247,280.957 187.705 C 280.845 187.119,280.948 186.719,281.212 186.719 C 281.485 186.719,281.565 186.359,281.421 185.785 C 281.292 185.271,281.360 184.744,281.572 184.613 C 281.784 184.481,281.866 184.023,281.754 183.593 C 281.641 183.164,281.740 182.812,281.973 182.813 C 282.207 182.813,282.299 182.557,282.180 182.245 C 282.060 181.933,282.103 181.450,282.275 181.172 C 282.447 180.893,282.595 180.401,282.603 180.079 C 282.637 178.701,283.766 174.219,284.079 174.219 C 284.267 174.219,284.312 174.043,284.180 173.828 C 284.047 173.613,284.072 173.221,284.236 172.956 C 284.399 172.691,284.560 172.208,284.592 171.882 C 284.676 171.033,285.581 167.845,285.870 167.383 C 286.003 167.168,286.168 166.590,286.236 166.098 C 286.304 165.607,286.557 164.728,286.799 164.145 C 287.041 163.563,287.254 162.969,287.272 162.826 C 287.290 162.682,287.424 162.445,287.571 162.299 C 287.717 162.153,287.742 161.787,287.627 161.485 C 287.511 161.184,287.605 160.938,287.837 160.938 C 288.068 160.938,288.156 160.674,288.032 160.352 C 287.908 160.029,287.958 159.766,288.142 159.765 C 288.326 159.765,288.503 159.303,288.536 158.738 C 288.569 158.173,288.804 157.582,289.058 157.425 C 289.312 157.268,289.490 157.022,289.452 156.878 C 289.415 156.734,289.602 156.051,289.868 155.359 C 290.133 154.668,290.369 154.014,290.392 153.906 C 290.658 152.637,291.610 150.391,291.882 150.391 C 292.076 150.391,292.145 150.247,292.036 150.071 C 291.927 149.895,292.297 148.797,292.858 147.630 C 293.419 146.463,293.849 145.376,293.814 145.215 C 293.779 145.054,293.926 144.922,294.141 144.922 C 294.355 144.922,294.487 144.781,294.434 144.609 C 294.308 144.207,296.194 140.081,296.582 139.909 C 296.743 139.837,296.875 139.454,296.875 139.058 C 296.875 138.661,297.098 138.105,297.370 137.821 C 297.643 137.537,298.197 136.558,298.601 135.645 C 299.006 134.731,299.516 133.984,299.734 133.984 C 299.952 133.984,300.018 133.872,299.880 133.734 C 299.600 133.454,300.794 131.250,301.226 131.250 C 301.378 131.250,301.705 130.635,301.953 129.883 C 302.201 129.131,302.566 128.516,302.765 128.516 C 302.963 128.516,303.125 128.252,303.125 127.930 C 303.125 127.607,303.311 127.344,303.539 127.344 C 303.766 127.344,303.844 127.168,303.711 126.953 C 303.578 126.738,303.656 126.563,303.883 126.563 C 304.111 126.563,304.297 126.299,304.297 125.977 C 304.297 125.654,304.433 125.391,304.599 125.391 C 304.765 125.391,305.248 124.731,305.673 123.926 C 306.098 123.120,306.753 122.120,307.129 121.704 C 307.505 121.287,307.813 120.716,307.813 120.434 C 307.813 120.152,307.988 119.922,308.203 119.922 C 308.418 119.922,308.594 119.677,308.594 119.378 C 308.594 119.078,308.857 118.732,309.180 118.609 C 309.502 118.485,309.766 118.115,309.766 117.786 C 309.766 117.457,309.941 117.188,310.156 117.188 C 310.371 117.188,310.547 117.004,310.547 116.780 C 310.547 116.373,310.922 115.841,312.207 114.425 C 312.583 114.011,312.783 113.672,312.651 113.672 C 312.519 113.672,313.046 113.018,313.823 112.218 C 314.599 111.419,315.234 110.654,315.234 110.518 C 315.234 110.292,315.884 109.504,317.994 107.172 C 318.410 106.712,318.750 106.191,318.750 106.014 C 318.750 105.838,319.210 105.247,319.772 104.702 C 320.334 104.157,322.903 101.514,325.481 98.828 L 330.168 93.945 328.678 96.875 C 327.858 98.486,327.047 99.863,326.875 99.935 C 326.703 100.007,326.563 100.314,326.563 100.618 C 326.563 100.923,326.425 101.172,326.256 101.172 C 326.088 101.172,325.604 101.731,325.182 102.414 C 324.760 103.096,324.063 104.203,323.633 104.872 C 323.203 105.541,322.439 106.740,321.934 107.536 C 321.429 108.333,320.858 108.984,320.665 108.984 C 320.471 108.984,320.313 109.248,320.313 109.570 C 320.313 109.893,320.169 110.156,319.994 110.156 C 319.819 110.156,319.383 110.771,319.024 111.523 C 318.665 112.275,318.193 112.891,317.975 112.891 C 317.757 112.891,317.578 113.154,317.578 113.477 C 317.578 113.799,317.423 114.063,317.234 114.063 C 317.045 114.063,316.401 115.029,315.803 116.211 C 315.205 117.393,314.569 118.359,314.389 118.359 C 314.210 118.359,314.063 118.623,314.063 118.945 C 314.063 119.268,313.887 119.531,313.672 119.531 C 313.457 119.531,313.281 119.795,313.281 120.117 C 313.281 120.439,313.126 120.703,312.936 120.703 C 312.746 120.703,312.488 121.011,312.362 121.387 C 312.067 122.264,311.244 123.551,310.742 123.920 C 310.527 124.078,310.514 124.209,310.713 124.213 C 310.911 124.216,310.720 124.614,310.288 125.098 C 309.855 125.581,309.276 126.548,309.000 127.246 C 308.725 127.944,308.356 128.516,308.182 128.516 C 308.008 128.516,307.740 128.911,307.587 129.395 C 307.434 129.878,307.033 130.695,306.696 131.211 C 306.359 131.727,306.042 132.427,305.993 132.766 C 305.943 133.106,305.715 133.446,305.488 133.522 C 305.260 133.598,305.173 133.821,305.294 134.018 C 305.415 134.214,305.318 134.375,305.078 134.375 C 304.838 134.375,304.750 134.551,304.883 134.766 C 305.016 134.980,304.928 135.156,304.688 135.156 C 304.447 135.156,304.359 135.332,304.492 135.547 C 304.625 135.762,304.537 135.938,304.297 135.938 C 304.057 135.938,303.969 136.113,304.102 136.328 C 304.234 136.543,304.128 136.719,303.864 136.719 C 303.601 136.719,303.494 136.828,303.627 136.961 C 303.760 137.094,303.612 137.459,303.298 137.773 C 302.984 138.087,302.827 138.506,302.949 138.703 C 303.071 138.901,302.985 139.063,302.757 139.063 C 302.530 139.063,302.388 139.199,302.441 139.366 C 302.495 139.534,302.159 140.456,301.693 141.417 C 300.454 143.977,299.855 145.469,299.932 145.801 C 299.969 145.962,299.862 146.094,299.693 146.094 C 299.523 146.094,299.356 146.473,299.321 146.938 C 299.286 147.402,299.117 147.885,298.945 148.012 C 298.773 148.138,298.571 148.594,298.496 149.023 C 298.421 149.453,298.186 149.912,297.974 150.044 C 297.763 150.175,297.620 150.400,297.657 150.544 C 297.694 150.687,297.507 151.371,297.242 152.063 C 296.976 152.754,296.741 153.408,296.719 153.516 C 296.454 154.804,295.050 158.594,294.837 158.594 C 294.682 158.594,294.657 158.857,294.781 159.180 C 294.904 159.502,294.816 159.766,294.585 159.766 C 294.354 159.766,294.266 160.029,294.390 160.352 C 294.514 160.674,294.440 160.937,294.226 160.938 C 294.012 160.938,293.859 161.157,293.887 161.426 C 293.958 162.116,292.866 166.015,292.602 166.016 C 292.481 166.017,292.343 166.587,292.293 167.283 C 292.244 167.979,292.034 168.606,291.827 168.675 C 291.620 168.744,291.547 169.053,291.665 169.361 C 291.784 169.670,291.691 169.922,291.460 169.922 C 291.229 169.922,291.135 170.168,291.250 170.468 C 291.365 170.769,291.279 171.126,291.059 171.262 C 290.839 171.398,290.751 171.750,290.864 172.043 C 290.977 172.337,290.889 172.689,290.669 172.825 C 290.449 172.961,290.356 173.300,290.463 173.578 C 290.569 173.856,290.446 174.598,290.188 175.226 C 289.930 175.853,289.751 176.574,289.791 176.826 C 289.832 177.078,289.701 177.386,289.500 177.510 C 289.300 177.634,289.228 178.087,289.340 178.516 C 289.452 178.945,289.364 179.297,289.145 179.297 C 288.925 179.297,288.837 179.648,288.949 180.078 C 289.068 180.532,288.961 180.859,288.694 180.859 C 288.442 180.859,288.346 181.039,288.481 181.258 C 288.617 181.477,288.507 182.312,288.238 183.113 C 287.716 184.664,287.650 184.970,287.379 187.110 C 287.140 188.994,286.331 193.039,286.052 193.750 C 285.925 194.072,285.860 194.731,285.907 195.215 C 285.955 195.698,285.795 196.094,285.552 196.094 C 285.309 196.094,285.215 196.263,285.342 196.470 C 285.571 196.840,284.922 201.592,284.486 202.734 C 284.363 203.057,284.303 203.824,284.353 204.439 C 284.406 205.099,284.284 205.459,284.055 205.317 C 283.826 205.176,283.750 205.395,283.870 205.853 C 283.981 206.280,283.944 206.939,283.786 207.318 C 283.629 207.698,283.464 208.447,283.419 208.984 C 283.135 212.418,282.676 215.625,282.469 215.628 C 282.336 215.629,282.172 216.900,282.106 218.451 C 282.040 220.002,281.855 221.363,281.695 221.475 C 281.535 221.588,281.405 222.207,281.406 222.852 C 281.411 225.919,281.220 227.762,280.916 227.574 C 280.732 227.460,280.664 227.799,280.765 228.326 C 280.866 228.853,280.813 229.594,280.648 229.974 C 280.350 230.662,280.250 231.037,280.138 231.901 C 280.105 232.152,279.291 232.658,278.329 233.025 C 276.300 233.800,274.113 235.311,274.484 235.682 C 274.625 235.823,274.578 235.937,274.382 235.937 C 273.725 235.936,273.987 239.218,274.707 240.015 C 275.083 240.432,275.391 240.925,275.391 241.112 C 275.391 241.299,275.522 241.377,275.684 241.286 C 276.326 240.921,278.322 242.468,278.400 243.391 C 278.530 244.945,277.657 249.998,277.296 249.775 C 277.112 249.662,277.060 249.825,277.180 250.138 C 277.461 250.868,275.396 258.594,274.921 258.594 C 274.724 258.594,274.659 258.749,274.776 258.939 C 275.115 259.487,273.608 263.469,271.083 268.698 C 268.358 274.341,268.377 274.178,270.097 276.940 C 270.828 278.114,271.323 279.257,271.197 279.479 C 271.071 279.701,271.115 279.750,271.294 279.587 C 271.712 279.208,273.896 283.167,273.565 283.703 C 273.429 283.924,273.489 283.999,273.699 283.869 C 274.185 283.568,275.886 287.015,275.533 287.586 C 275.385 287.825,275.449 287.900,275.680 287.758 C 276.172 287.454,276.672 288.569,276.308 289.158 C 276.145 289.422,276.240 289.457,276.569 289.254 C 276.956 289.014,277.015 289.119,276.804 289.670 C 276.648 290.075,276.651 290.276,276.810 290.117 C 277.161 289.766,278.978 294.099,278.681 294.580 C 278.565 294.768,278.631 294.922,278.829 294.922 C 279.295 294.922,280.929 299.181,280.642 299.646 C 280.521 299.841,280.587 300.000,280.787 300.000 C 281.144 300.000,281.800 302.058,281.752 303.027 C 281.738 303.296,281.864 303.516,282.031 303.516 C 282.198 303.516,282.450 304.131,282.591 304.883 C 283.226 308.264,283.390 305.314,283.269 292.676 L 283.139 279.102 281.976 278.176 C 281.320 277.654,280.902 277.014,281.019 276.711 C 281.132 276.414,281.078 276.172,280.897 276.172 C 280.716 276.172,280.552 275.381,280.533 274.414 C 280.511 273.347,280.671 272.656,280.939 272.656 C 281.182 272.656,281.261 272.537,281.116 272.392 C 279.970 271.246,284.377 269.504,286.353 270.323 C 289.567 271.654,289.093 279.266,285.840 278.578 C 285.679 278.544,285.560 285.327,285.575 293.652 C 285.602 308.136,285.630 308.688,286.213 306.445 C 286.548 305.156,286.931 304.014,287.063 303.906 C 287.196 303.799,287.305 303.535,287.305 303.320 C 287.305 302.402,288.826 298.047,289.147 298.047 C 289.341 298.047,289.408 297.900,289.297 297.720 C 288.898 297.074,295.155 283.060,295.694 283.393 C 295.842 283.484,295.964 283.340,295.964 283.073 C 295.964 282.286,299.212 276.953,299.692 276.953 C 299.933 276.953,300.012 276.835,299.868 276.691 C 299.724 276.547,299.845 276.064,300.137 275.617 C 300.695 274.762,301.214 272.193,300.774 272.465 C 300.338 272.735,295.987 263.379,296.308 262.860 C 296.499 262.552,296.443 262.479,296.154 262.658 C 295.735 262.917,295.548 262.373,295.598 261.035 C 295.608 260.767,295.441 260.547,295.227 260.547 C 295.013 260.547,294.935 260.295,295.053 259.986 C 295.172 259.678,295.114 259.370,294.924 259.303 C 294.428 259.126,292.551 252.445,292.460 250.529 C 292.418 249.638,292.229 249.003,292.041 249.118 C 291.853 249.232,291.774 248.686,291.865 247.905 C 291.956 247.124,291.890 246.484,291.718 246.484 C 291.312 246.484,291.324 243.313,291.732 242.670 C 291.904 242.398,292.824 241.783,293.777 241.303 C 298.112 239.116,297.139 234.351,292.028 232.733 C 290.228 232.163,290.353 232.834,290.776 225.977 C 290.895 224.043,290.989 221.536,290.984 220.406 C 290.979 219.275,291.107 218.138,291.267 217.877 C 291.428 217.617,291.513 216.758,291.456 215.969 C 291.399 215.179,291.543 214.415,291.776 214.271 C 292.009 214.126,292.097 213.841,291.971 213.637 C 291.275 212.511,295.505 206.230,296.532 206.865 C 296.721 206.982,296.875 206.891,296.875 206.664 C 296.875 206.436,297.139 206.250,297.461 206.250 C 297.783 206.250,298.047 206.074,298.047 205.859 C 298.047 205.645,298.292 205.469,298.591 205.469 C 298.890 205.469,299.241 205.194,299.370 204.858 C 299.498 204.522,299.762 204.345,299.956 204.465 C 300.150 204.585,300.410 204.420,300.533 204.099 C 300.656 203.778,300.917 203.516,301.112 203.516 C 301.307 203.516,302.411 202.651,303.566 201.594 C 304.720 200.536,305.814 199.614,305.998 199.543 C 306.522 199.341,311.719 194.073,311.719 193.744 C 311.719 193.583,312.422 192.815,313.281 192.039 C 314.141 191.262,314.844 190.513,314.844 190.373 C 314.844 190.234,315.423 189.398,316.132 188.517 C 316.840 187.635,318.186 185.771,319.122 184.375 C 320.059 182.979,320.974 181.777,321.157 181.705 C 321.340 181.633,321.389 181.412,321.267 181.214 C 321.144 181.016,321.318 180.749,321.653 180.620 C 321.987 180.492,322.180 180.256,322.082 180.096 C 321.983 179.937,322.240 179.443,322.654 178.999 C 324.060 177.489,324.149 176.002,322.810 176.368 C 322.189 176.539,321.240 176.720,320.703 176.772 C 320.166 176.824,318.962 177.073,318.027 177.326 C 317.092 177.579,316.229 177.688,316.110 177.568 C 315.990 177.448,315.652 177.550,315.359 177.793 C 315.065 178.037,314.723 178.135,314.599 178.010 C 314.475 177.886,313.907 177.966,313.339 178.187 C 312.075 178.680,308.659 179.596,306.985 179.891 C 306.307 180.010,305.448 180.271,305.076 180.470 C 304.704 180.669,304.304 180.736,304.186 180.619 C 304.069 180.501,303.563 180.603,303.061 180.844 C 302.178 181.269,302.174 181.263,302.930 180.664 C 304.600 179.342,306.492 178.097,307.520 177.645 C 308.110 177.385,308.594 177.035,308.594 176.867 C 308.594 176.700,308.839 176.563,309.138 176.563 C 309.437 176.562,309.783 176.299,309.907 175.977 C 310.031 175.654,310.359 175.391,310.636 175.391 C 310.913 175.391,311.370 175.022,311.652 174.571 C 311.933 174.121,312.258 173.846,312.373 173.962 C 312.608 174.197,313.322 173.672,314.551 172.363 C 315.004 171.880,315.488 171.484,315.625 171.484 C 315.913 171.484,323.270 164.632,324.190 163.506 C 324.528 163.093,325.639 161.862,326.660 160.772 C 327.680 159.681,328.515 158.648,328.515 158.475 C 328.516 158.047,331.701 153.353,332.102 153.190 C 332.278 153.118,332.422 152.823,332.422 152.534 C 332.422 152.245,332.692 151.739,333.022 151.409 C 333.352 151.079,333.571 150.745,333.510 150.667 C 333.315 150.419,334.929 147.656,335.268 147.656 C 335.447 147.656,335.484 147.480,335.352 147.266 C 335.219 147.051,335.307 146.875,335.547 146.875 C 335.787 146.875,335.875 146.699,335.742 146.484 C 335.609 146.270,335.697 146.094,335.938 146.094 C 336.178 146.094,336.294 145.962,336.196 145.801 C 336.097 145.640,336.338 144.893,336.730 144.141 C 338.116 141.486,338.672 140.131,338.672 139.405 C 338.672 139.002,338.877 138.672,339.128 138.672 C 339.378 138.672,339.468 138.556,339.326 138.415 C 339.185 138.273,339.265 137.922,339.504 137.634 C 339.744 137.345,339.808 137.109,339.648 137.109 C 339.488 137.109,339.576 136.846,339.844 136.523 C 340.111 136.201,340.199 135.938,340.039 135.938 C 339.879 135.938,339.932 135.716,340.157 135.444 C 340.382 135.173,340.829 133.899,341.150 132.612 C 341.471 131.326,342.003 129.307,342.333 128.125 C 343.026 125.643,343.440 123.438,343.214 123.438 C 343.128 123.437,341.207 124.037,338.945 124.771 C 334.254 126.291,331.774 127.306,327.036 129.645 C 324.840 130.729,325.277 129.905,328.362 127.148 C 332.018 123.882,335.317 120.580,336.337 119.168 C 336.869 118.432,337.875 117.201,338.572 116.434 C 339.270 115.667,339.841 114.819,339.842 114.551 C 339.843 114.282,340.020 114.063,340.234 114.063 C 340.449 114.063,340.625 113.799,340.625 113.477 C 340.625 113.154,340.801 112.891,341.016 112.891 C 341.230 112.891,341.406 112.627,341.406 112.305 C 341.406 111.982,341.539 111.719,341.702 111.719 C 341.864 111.719,342.245 111.147,342.549 110.449 C 342.853 109.751,343.212 109.092,343.348 108.984 C 343.876 108.566,345.650 104.764,345.423 104.537 C 345.291 104.405,345.417 104.297,345.703 104.297 C 345.990 104.297,346.111 104.184,345.974 104.047 C 345.836 103.909,345.967 103.338,346.265 102.777 C 346.903 101.575,347.740 99.383,347.730 98.943 C 347.726 98.772,347.873 98.452,348.057 98.230 C 348.241 98.009,348.477 97.352,348.583 96.772 C 348.688 96.191,348.865 95.569,348.976 95.389 C 349.087 95.209,349.271 94.635,349.385 94.113 C 349.499 93.591,349.870 91.934,350.209 90.430 C 350.549 88.926,350.907 87.080,351.007 86.328 C 351.106 85.576,351.265 84.697,351.361 84.375 C 352.275 81.295,352.310 65.989,351.413 61.763 C 350.518 57.545,349.808 56.614,348.186 57.533 M97.426 88.460 C 90.938 89.900,85.536 94.716,83.385 100.977 C 82.761 102.792,82.709 108.039,82.641 175.586 C 82.579 237.119,82.748 269.437,83.119 267.285 C 83.256 266.489,84.375 266.730,84.375 267.555 C 84.375 267.972,84.578 268.439,84.826 268.592 C 85.088 268.754,85.172 268.700,85.025 268.463 C 84.644 267.847,88.195 267.411,88.892 267.989 C 89.333 268.356,89.459 268.341,89.481 267.919 C 89.496 267.624,89.659 267.734,89.844 268.164 C 90.057 268.660,90.200 267.093,90.237 263.867 C 90.268 261.074,90.373 258.438,90.469 258.008 C 90.565 257.578,90.742 223.301,90.862 181.836 C 91.108 97.040,90.826 104.058,94.113 100.772 C 97.600 97.285,92.762 97.566,152.834 97.363 C 182.001 97.264,206.171 97.317,206.545 97.479 C 206.920 97.641,207.455 97.821,207.734 97.879 C 208.503 98.037,209.375 98.861,209.375 99.429 C 209.375 99.707,209.595 100.008,209.863 100.098 C 210.240 100.223,210.365 103.340,210.412 113.704 C 210.446 121.339,210.647 127.899,210.876 128.885 C 211.098 129.840,211.201 130.748,211.106 130.903 C 211.011 131.057,211.117 131.245,211.343 131.320 C 211.569 131.395,211.783 131.850,211.819 132.330 C 211.855 132.810,212.007 133.203,212.155 133.203 C 212.304 133.203,212.878 133.976,213.432 134.920 C 213.985 135.864,214.959 137.075,215.596 137.611 C 216.233 138.147,216.631 138.707,216.482 138.856 C 216.333 139.006,216.387 139.073,216.602 139.005 C 217.071 138.859,219.531 140.279,219.531 140.697 C 219.531 140.859,219.772 140.899,220.067 140.786 C 220.361 140.673,220.845 140.810,221.141 141.091 C 221.437 141.372,222.195 141.639,222.826 141.685 C 223.456 141.731,224.241 141.872,224.571 141.998 C 224.901 142.125,230.752 142.215,237.574 142.198 C 251.800 142.163,253.185 142.420,253.713 145.195 C 253.786 145.582,253.882 145.898,253.925 145.898 C 254.445 145.898,254.177 293.837,253.654 295.446 C 252.865 297.872,251.172 299.783,248.668 301.078 C 246.145 302.382,250.521 302.292,178.125 302.532 C 110.547 302.756,115.169 302.571,115.376 305.054 C 115.422 305.604,115.226 306.294,114.941 306.586 C 114.509 307.029,114.533 307.199,115.083 307.601 C 115.588 307.970,115.628 308.155,115.252 308.388 C 114.863 308.628,114.871 308.761,115.290 309.027 C 115.703 309.289,115.669 309.364,115.137 309.369 C 114.761 309.372,114.453 309.111,114.453 308.789 C 114.453 308.304,114.331 308.321,113.746 308.887 C 111.785 310.784,110.077 310.733,179.688 310.862 C 250.044 310.991,247.350 311.071,252.327 308.703 C 253.947 307.932,255.418 307.333,255.595 307.371 C 255.773 307.410,255.856 307.305,255.781 307.139 C 255.596 306.729,258.903 303.564,259.203 303.864 C 259.333 303.995,259.396 303.926,259.342 303.711 C 259.288 303.496,259.801 302.178,260.481 300.781 C 261.162 299.385,261.718 298.022,261.718 297.754 C 261.719 297.485,261.851 297.266,262.012 297.266 C 262.173 297.266,262.305 262.109,262.305 219.141 C 262.305 175.333,262.156 141.016,261.966 141.016 C 261.780 141.016,261.720 140.664,261.832 140.234 C 261.944 139.805,261.858 139.453,261.640 139.453 C 261.423 139.453,261.341 139.201,261.460 138.892 C 261.578 138.584,261.522 138.276,261.335 138.209 C 261.149 138.141,260.939 137.835,260.869 137.528 C 260.799 137.221,260.521 136.693,260.251 136.356 C 259.980 136.018,259.729 135.566,259.691 135.352 C 259.653 135.137,259.219 134.643,258.725 134.255 C 258.231 133.867,257.868 133.339,257.918 133.083 C 257.967 132.827,257.775 132.665,257.490 132.725 C 257.206 132.784,257.072 132.672,257.193 132.476 C 257.314 132.280,257.152 131.903,256.832 131.637 C 256.512 131.372,256.250 131.276,256.250 131.424 C 256.250 131.573,255.591 130.902,254.785 129.934 C 253.979 128.967,253.223 128.164,253.103 128.150 C 252.650 128.098,236.524 111.674,236.281 111.016 C 235.994 110.241,235.162 109.459,234.570 109.408 C 234.355 109.390,234.176 109.243,234.171 109.082 C 234.141 108.038,215.261 90.337,213.281 89.496 C 212.100 88.994,210.860 88.447,210.526 88.282 C 209.350 87.697,100.085 87.869,97.426 88.460 M221.185 108.742 C 221.558 109.025,221.748 109.371,221.609 109.511 C 221.469 109.651,221.647 109.766,222.005 109.766 C 222.363 109.766,222.656 109.990,222.656 110.265 C 222.656 110.780,224.847 112.891,225.383 112.891 C 225.549 112.891,225.927 113.188,226.222 113.552 C 226.683 114.121,226.676 114.170,226.172 113.908 C 225.850 113.741,225.938 113.927,226.367 114.322 C 226.797 114.716,227.568 115.479,228.081 116.016 C 228.594 116.553,228.889 116.729,228.736 116.406 C 228.583 116.084,228.740 116.172,229.084 116.602 C 229.429 117.031,233.172 120.864,237.401 125.120 C 243.435 131.190,244.968 132.935,244.518 133.219 C 243.871 133.629,227.226 133.736,226.824 133.334 C 226.681 133.191,226.104 133.025,225.541 132.965 C 223.850 132.785,219.449 129.297,220.913 129.297 C 221.043 129.297,220.863 129.011,220.513 128.661 C 220.163 128.311,219.967 127.789,220.078 127.501 C 220.188 127.214,220.106 126.871,219.895 126.741 C 219.490 126.491,219.410 111.252,219.802 109.289 C 220.046 108.072,220.215 108.005,221.185 108.742 M121.191 226.815 C 120.493 227.160,119.922 227.606,119.922 227.806 C 119.922 228.007,119.776 228.081,119.597 227.971 C 118.725 227.431,119.119 231.894,120.031 232.878 C 121.380 234.333,120.773 234.314,163.086 234.230 C 199.578 234.157,201.817 234.113,202.812 233.451 C 205.289 231.802,204.917 227.889,202.175 226.744 C 200.009 225.839,123.035 225.907,121.191 226.815 M120.282 254.657 C 118.050 256.890,119.160 260.596,122.266 261.279 C 125.543 262.000,221.201 261.571,222.559 260.830 C 223.257 260.448,223.828 259.977,223.828 259.783 C 223.828 259.590,224.072 259.187,224.369 258.890 C 225.108 258.151,224.246 255.608,222.846 254.395 L 221.831 253.516 171.628 253.516 L 121.424 253.516 120.282 254.657 " stroke="none" fill="#08aed9" fill-rule="evenodd"></path><path id="path1" d="M0.000 200.000 L 0.000 400.000 200.000 400.000 L 400.000 400.000 400.000 200.000 L 400.000 0.000 200.000 0.000 L 0.000 0.000 0.000 200.000 M350.845 59.183 C 353.630 67.571,352.523 84.763,348.366 97.656 C 344.804 108.707,340.078 116.066,330.739 125.104 L 325.586 130.091 329.492 128.277 C 333.993 126.187,342.824 123.163,343.232 123.571 C 343.384 123.723,343.103 125.557,342.607 127.646 C 337.311 149.968,324.724 167.452,305.566 179.096 C 304.224 179.912,303.125 180.617,303.125 180.663 C 303.125 180.708,305.278 180.152,307.910 179.426 C 311.962 178.309,318.165 176.942,323.342 176.025 L 324.613 175.800 323.644 177.712 C 318.983 186.910,308.948 198.309,299.805 204.790 C 291.853 210.427,292.274 209.278,290.871 229.191 L 290.672 232.014 292.282 232.496 C 297.739 234.131,298.405 240.548,293.274 242.053 L 291.992 242.429 292.077 245.038 C 292.278 251.196,295.270 261.136,299.288 268.998 L 301.710 273.738 298.943 278.373 C 292.707 288.813,288.177 299.673,285.440 310.742 C 285.334 311.172,285.226 304.189,285.202 295.224 L 285.156 278.924 286.153 278.271 C 289.925 275.800,288.219 269.720,283.990 270.565 C 280.660 271.231,279.685 275.076,282.206 277.597 L 283.553 278.944 283.744 294.452 L 283.934 309.961 282.027 304.226 C 278.690 294.193,274.828 285.555,270.358 278.125 C 267.894 274.029,267.894 274.025,270.431 269.078 C 273.081 263.910,275.825 255.648,277.288 248.438 L 278.437 242.773 277.207 242.251 C 271.885 239.990,273.298 232.422,279.042 232.422 C 279.945 232.422,279.892 232.668,281.256 222.266 C 288.432 167.550,297.433 142.145,322.290 106.445 C 325.992 101.128,329.848 94.950,329.610 94.716 C 328.994 94.111,315.070 110.565,309.538 118.435 C 292.596 142.536,280.957 175.778,278.667 206.603 L 278.394 210.277 277.644 208.366 C 269.919 188.699,269.005 163.376,275.332 144.268 C 283.619 119.236,304.854 93.404,343.888 60.870 C 349.316 56.346,349.859 56.214,350.845 59.183 M213.867 89.228 C 216.535 90.527,215.770 89.787,241.236 115.745 C 258.602 133.448,260.919 136.109,262.205 139.821 C 262.826 141.614,263.126 293.083,262.515 296.388 C 261.272 303.109,255.650 308.886,248.576 310.709 C 244.983 311.636,99.856 311.655,96.303 310.729 C 89.874 309.055,84.672 303.885,82.954 297.461 C 82.085 294.214,82.180 104.864,83.051 101.926 C 85.008 95.331,90.146 90.232,96.588 88.491 C 98.313 88.025,107.465 87.950,155.078 88.012 L 211.523 88.086 213.867 89.228 M98.177 98.379 C 95.279 99.381,93.579 100.841,92.315 103.415 L 91.211 105.664 91.111 199.208 C 90.998 304.662,90.725 295.452,94.066 298.787 C 97.538 302.253,90.433 301.978,173.242 301.861 L 246.289 301.758 248.140 300.846 C 250.552 299.658,252.914 296.955,253.470 294.746 C 254.180 291.927,254.081 146.878,253.368 145.172 C 252.333 142.693,251.624 142.578,237.378 142.578 C 221.474 142.578,219.323 142.066,214.769 137.198 C 210.533 132.669,210.156 130.817,210.156 114.528 C 210.156 99.903,210.050 99.233,207.562 98.194 C 205.321 97.258,100.911 97.434,98.177 98.379 M220.013 117.773 C 220.173 132.742,220.838 133.362,236.515 133.129 L 244.710 133.008 232.310 120.508 L 219.909 108.008 220.013 117.773 M203.787 227.485 C 205.541 229.400,205.455 231.444,203.537 233.362 L 202.329 234.570 162.200 234.665 C 118.369 234.769,120.898 234.901,119.224 232.418 C 117.778 230.272,118.792 227.193,121.289 226.151 C 121.719 225.972,140.145 225.859,162.237 225.901 L 202.404 225.977 203.787 227.485 M223.470 254.212 C 225.981 256.456,225.237 260.225,222.017 261.571 C 220.067 262.386,123.259 262.372,121.307 261.556 C 118.378 260.332,117.697 256.788,119.945 254.468 L 121.247 253.125 171.750 253.125 L 222.253 253.125 223.470 254.212 " stroke="none" fill="#fbfbfc" fill-rule="evenodd"></path><path id="path2" d="M82.852 268.262 C 82.164 270.899,82.599 297.162,83.339 297.703 C 83.521 297.836,83.697 298.407,83.730 298.972 C 83.762 299.537,83.909 300.000,84.056 300.000 C 84.275 300.000,84.958 301.580,84.847 301.833 C 84.829 301.874,85.412 302.561,86.143 303.359 C 86.873 304.156,87.362 305.001,87.228 305.236 C 87.094 305.472,87.128 305.534,87.304 305.374 C 87.715 305.002,88.734 305.833,88.443 306.304 C 88.322 306.500,88.368 306.613,88.545 306.556 C 89.059 306.389,90.650 307.657,90.330 307.978 C 90.170 308.138,90.215 308.212,90.430 308.143 C 91.009 307.957,93.380 309.026,93.163 309.376 C 93.061 309.542,93.195 309.670,93.461 309.660 C 94.665 309.617,95.342 309.793,95.152 310.100 C 95.038 310.284,95.406 310.346,95.968 310.238 C 96.551 310.127,96.894 310.200,96.765 310.409 C 96.634 310.620,97.127 310.706,97.932 310.612 C 98.826 310.507,99.236 310.593,99.076 310.852 C 98.932 311.085,99.116 311.197,99.511 311.117 C 100.848 310.847,106.118 310.568,110.352 310.544 C 113.910 310.523,114.510 310.438,113.845 310.045 C 113.071 309.588,113.067 309.545,113.747 308.887 C 114.331 308.321,114.453 308.304,114.453 308.789 C 114.453 309.111,114.761 309.372,115.137 309.369 C 115.669 309.364,115.703 309.289,115.290 309.027 C 114.871 308.761,114.863 308.628,115.252 308.388 C 115.628 308.155,115.588 307.970,115.083 307.601 C 114.537 307.202,114.511 307.026,114.934 306.586 C 115.215 306.294,115.420 305.616,115.389 305.081 C 115.302 303.593,115.613 303.130,116.741 303.066 C 119.103 302.931,111.070 302.444,105.469 302.383 C 102.139 302.347,99.359 302.157,99.291 301.962 C 99.224 301.766,98.916 301.703,98.608 301.822 C 98.299 301.940,98.047 301.848,98.047 301.617 C 98.047 301.385,97.797 301.292,97.491 301.410 C 97.185 301.527,96.570 301.258,96.124 300.811 C 95.678 300.365,95.313 300.122,95.313 300.272 C 95.313 300.422,94.682 299.938,93.912 299.198 C 92.365 297.711,91.257 295.870,91.588 295.334 C 91.706 295.144,91.581 294.915,91.311 294.825 C 90.938 294.701,90.757 291.626,90.558 281.999 C 90.413 275.012,90.118 268.898,89.899 268.359 C 89.681 267.822,89.492 267.624,89.478 267.919 C 89.458 268.341,89.333 268.356,88.892 267.989 C 88.195 267.411,84.644 267.847,85.025 268.463 C 85.172 268.700,85.088 268.754,84.826 268.592 C 84.578 268.439,84.375 267.972,84.375 267.555 C 84.375 266.207,83.251 266.728,82.852 268.262 " stroke="none" fill="#8a6de4" fill-rule="evenodd"></path><path id="path3" d="M203.809 88.166 C 204.292 88.259,205.083 88.259,205.566 88.166 C 206.050 88.073,205.654 87.997,204.688 87.997 C 203.721 87.997,203.325 88.073,203.809 88.166 M212.142 88.819 C 212.541 89.181,215.625 90.621,215.625 90.446 C 215.625 90.224,212.677 88.672,212.255 88.672 C 212.103 88.672,212.052 88.738,212.142 88.819 M224.023 98.828 C 228.531 103.340,232.307 107.031,232.415 107.031 C 232.522 107.031,228.922 103.340,224.414 98.828 C 219.906 94.316,216.130 90.625,216.023 90.625 C 215.915 90.625,219.516 94.316,224.023 98.828 M120.020 97.555 C 121.470 97.630,123.843 97.630,125.293 97.555 C 126.743 97.480,125.557 97.419,122.656 97.419 C 119.756 97.419,118.569 97.480,120.020 97.555 M148.956 97.559 C 159.660 97.616,177.063 97.616,187.627 97.558 C 198.192 97.501,189.434 97.453,168.164 97.453 C 146.895 97.453,138.251 97.501,148.956 97.559 M219.622 110.938 C 219.622 111.689,219.702 111.997,219.801 111.621 C 219.899 111.245,219.899 110.630,219.801 110.254 C 219.702 109.878,219.622 110.186,219.622 110.938 M244.336 119.517 C 248.848 124.128,252.583 127.980,252.637 128.078 C 252.690 128.175,252.816 128.174,252.915 128.074 C 253.015 127.975,249.279 124.123,244.614 119.513 L 236.133 111.133 244.336 119.517 M219.693 119.531 C 219.693 123.506,219.751 125.132,219.822 123.145 C 219.893 121.157,219.893 117.905,219.822 115.918 C 219.751 113.931,219.693 115.557,219.693 119.531 M228.823 116.602 C 229.044 117.031,229.725 117.822,230.335 118.358 L 231.445 119.333 230.276 117.967 C 228.424 115.803,228.399 115.779,228.823 116.602 M237.695 125.781 C 241.128 129.219,244.024 132.031,244.131 132.031 C 244.239 132.031,241.518 129.219,238.086 125.781 C 234.653 122.344,231.757 119.531,231.650 119.531 C 231.542 119.531,234.263 122.344,237.695 125.781 M254.712 129.913 C 255.451 130.789,256.134 131.442,256.230 131.365 C 256.327 131.287,255.723 130.571,254.888 129.772 L 253.369 128.320 254.712 129.913 M221.083 129.973 C 221.510 130.858,224.071 132.814,224.798 132.811 C 225.016 132.810,224.580 132.440,223.828 131.988 C 223.076 131.537,222.056 130.702,221.561 130.134 C 220.791 129.250,220.722 129.227,221.083 129.973 M212.963 134.816 C 213.856 136.409,216.645 139.151,218.164 139.930 C 219.099 140.409,218.763 140.084,216.311 138.140 C 215.291 137.331,214.000 135.890,213.442 134.937 C 212.160 132.749,211.747 132.645,212.963 134.816 M231.152 133.495 C 233.569 133.563,237.524 133.563,239.941 133.495 C 242.358 133.426,240.381 133.370,235.547 133.370 C 230.713 133.370,228.735 133.426,231.152 133.495 M222.461 141.797 C 222.891 141.982,223.594 142.127,224.023 142.121 C 224.651 142.112,224.613 142.048,223.828 141.797 C 222.493 141.369,221.466 141.369,222.461 141.797 M262.301 218.945 C 262.301 261.699,262.347 279.247,262.402 257.941 C 262.458 236.635,262.458 201.655,262.402 180.207 C 262.347 158.759,262.301 176.191,262.301 218.945 M231.543 142.480 C 235.034 142.545,240.747 142.545,244.238 142.480 C 247.729 142.415,244.873 142.362,237.891 142.362 C 230.908 142.362,228.052 142.415,231.543 142.480 M251.367 143.035 C 251.797 143.274,252.421 143.664,252.754 143.902 C 253.086 144.141,252.945 143.940,252.439 143.457 C 251.933 142.974,251.309 142.583,251.052 142.590 C 250.796 142.597,250.938 142.797,251.367 143.035 M254.034 148.633 C 254.036 150.137,254.107 150.704,254.191 149.894 C 254.276 149.083,254.274 147.853,254.188 147.159 C 254.102 146.466,254.033 147.129,254.034 148.633 M254.023 159.375 C 254.023 160.557,254.097 161.040,254.186 160.449 C 254.276 159.858,254.276 158.892,254.186 158.301 C 254.097 157.710,254.023 158.193,254.023 159.375 M271.575 164.063 C 271.575 164.814,271.655 165.122,271.754 164.746 C 271.852 164.370,271.852 163.755,271.754 163.379 C 271.655 163.003,271.575 163.311,271.575 164.063 M321.471 166.309 L 319.336 168.555 321.582 166.420 C 322.817 165.245,323.828 164.235,323.828 164.174 C 323.828 163.884,323.455 164.222,321.471 166.309 M271.247 172.266 C 271.247 175.166,271.308 176.353,271.383 174.902 C 271.459 173.452,271.459 171.079,271.383 169.629 C 271.308 168.179,271.247 169.365,271.247 172.266 M254.018 173.633 C 254.021 174.707,254.097 175.100,254.187 174.506 C 254.276 173.913,254.274 173.034,254.181 172.553 C 254.089 172.073,254.015 172.559,254.018 173.633 M290.067 174.442 C 289.923 175.014,289.881 175.558,289.973 175.650 C 290.065 175.742,290.258 175.349,290.402 174.777 C 290.545 174.204,290.588 173.661,290.496 173.569 C 290.404 173.476,290.211 173.869,290.067 174.442 M253.997 178.516 C 253.997 179.268,254.077 179.575,254.176 179.199 C 254.274 178.823,254.274 178.208,254.176 177.832 C 254.077 177.456,253.997 177.764,253.997 178.516 M271.583 179.883 C 271.587 180.742,271.667 181.048,271.761 180.562 C 271.854 180.076,271.851 179.373,271.753 178.999 C 271.655 178.626,271.579 179.023,271.583 179.883 M271.966 183.984 C 271.966 184.736,272.046 185.044,272.144 184.668 C 272.243 184.292,272.243 183.677,272.144 183.301 C 272.046 182.925,271.966 183.232,271.966 183.984 M253.997 187.891 C 253.997 188.643,254.077 188.950,254.176 188.574 C 254.274 188.198,254.274 187.583,254.176 187.207 C 254.077 186.831,253.997 187.139,253.997 187.891 M254.013 191.406 C 254.013 192.373,254.089 192.769,254.182 192.285 C 254.275 191.802,254.275 191.011,254.182 190.527 C 254.089 190.044,254.013 190.439,254.013 191.406 M312.870 192.480 L 311.523 193.945 312.988 192.599 C 314.352 191.346,314.633 191.016,314.334 191.016 C 314.269 191.016,313.610 191.675,312.870 192.480 M307.593 198.145 L 306.445 199.414 307.715 198.267 C 308.413 197.636,308.984 197.064,308.984 196.997 C 308.984 196.695,308.662 196.961,307.593 198.145 M274.664 198.438 C 274.664 198.760,274.815 199.375,275.000 199.805 C 275.212 200.297,275.336 200.369,275.336 200.000 C 275.336 199.678,275.185 199.063,275.000 198.633 C 274.788 198.140,274.664 198.068,274.664 198.438 M278.997 199.609 C 278.997 200.361,279.077 200.669,279.176 200.293 C 279.274 199.917,279.274 199.302,279.176 198.926 C 279.077 198.550,278.997 198.857,278.997 199.609 M304.858 200.488 L 303.711 201.758 304.980 200.611 C 305.679 199.979,306.250 199.408,306.250 199.341 C 306.250 199.039,305.928 199.305,304.858 200.488 M283.807 205.291 C 283.657 206.288,283.615 207.183,283.713 207.280 C 283.810 207.378,284.013 206.643,284.162 205.646 C 284.311 204.650,284.354 203.755,284.256 203.657 C 284.158 203.559,283.956 204.295,283.807 205.291 M253.997 206.641 C 253.997 207.393,254.077 207.700,254.176 207.324 C 254.274 206.948,254.274 206.333,254.176 205.957 C 254.077 205.581,253.997 205.889,253.997 206.641 M254.027 213.867 C 254.029 215.156,254.102 215.637,254.189 214.934 C 254.276 214.232,254.274 213.178,254.185 212.591 C 254.096 212.004,254.025 212.578,254.027 213.867 M282.513 214.453 C 282.513 215.205,282.593 215.513,282.691 215.137 C 282.789 214.761,282.789 214.146,282.691 213.770 C 282.593 213.394,282.513 213.701,282.513 214.453 M291.505 215.820 C 291.509 216.680,291.589 216.985,291.683 216.499 C 291.776 216.013,291.772 215.310,291.675 214.937 C 291.577 214.563,291.500 214.961,291.505 215.820 M291.133 219.922 C 291.133 221.104,291.206 221.587,291.295 220.996 C 291.385 220.405,291.385 219.438,291.295 218.848 C 291.206 218.257,291.133 218.740,291.133 219.922 M281.739 220.117 C 281.743 220.977,281.823 221.282,281.917 220.796 C 282.010 220.310,282.007 219.607,281.909 219.234 C 281.811 218.860,281.735 219.258,281.739 220.117 M90.623 237.207 C 90.622 246.069,90.527 256.572,90.412 260.547 C 90.297 264.521,90.357 273.574,90.547 280.664 C 90.845 291.842,90.899 288.740,90.953 257.324 C 90.987 237.397,90.928 221.094,90.820 221.094 C 90.713 221.094,90.624 228.345,90.623 237.207 M254.005 222.461 C 254.009 223.320,254.089 223.626,254.183 223.140 C 254.276 222.654,254.272 221.951,254.175 221.577 C 254.077 221.204,254.000 221.602,254.005 222.461 M290.742 225.781 C 290.742 226.963,290.815 227.446,290.905 226.855 C 290.994 226.265,290.994 225.298,290.905 224.707 C 290.815 224.116,290.742 224.600,290.742 225.781 M254.052 228.711 C 254.053 231.074,254.118 231.991,254.195 230.747 C 254.273 229.504,254.272 227.571,254.194 226.451 C 254.115 225.330,254.051 226.348,254.052 228.711 M280.703 227.188 C 280.557 228.617,280.516 229.865,280.614 229.963 C 280.711 230.060,280.915 228.975,281.068 227.552 C 281.220 226.129,281.260 224.880,281.157 224.777 C 281.054 224.674,280.850 225.758,280.703 227.188 M121.270 226.330 C 118.939 227.346,117.952 230.719,119.387 232.767 C 120.831 234.828,119.576 234.771,161.999 234.690 C 183.652 234.649,198.994 234.515,196.094 234.392 C 193.193 234.270,175.703 234.201,157.227 234.239 C 138.750 234.276,122.939 234.157,122.090 233.975 C 118.275 233.152,118.032 227.949,121.743 226.539 C 123.506 225.868,200.549 226.064,202.175 226.744 C 205.028 227.936,205.281 231.855,202.614 233.563 C 201.928 234.002,201.563 234.365,201.803 234.368 C 205.304 234.421,205.732 228.158,202.344 226.465 C 200.516 225.552,123.352 225.424,121.270 226.330 M277.148 233.150 C 276.289 233.541,275.325 234.196,275.007 234.606 C 274.451 235.321,274.459 235.325,275.207 234.691 C 275.636 234.328,276.775 233.681,277.739 233.254 C 278.703 232.827,279.316 232.469,279.102 232.458 C 278.887 232.448,278.008 232.759,277.148 233.150 M254.023 235.938 C 254.023 237.119,254.097 237.603,254.186 237.012 C 254.276 236.421,254.276 235.454,254.186 234.863 C 254.097 234.272,254.023 234.756,254.023 235.938 M295.628 234.802 C 295.909 235.166,296.289 235.965,296.473 236.579 C 296.751 237.505,296.814 237.549,296.841 236.838 C 296.860 236.367,296.479 235.567,295.996 235.061 C 295.513 234.555,295.347 234.439,295.628 234.802 M273.927 237.695 C 273.931 238.555,274.011 238.860,274.104 238.374 C 274.198 237.888,274.194 237.185,274.097 236.812 C 273.999 236.438,273.922 236.836,273.927 237.695 M296.162 239.034 C 295.935 239.685,295.168 240.572,294.457 241.006 C 293.746 241.439,293.360 241.795,293.600 241.795 C 294.755 241.799,297.369 238.645,296.736 238.012 C 296.647 237.923,296.389 238.383,296.162 239.034 M254.038 243.359 C 254.038 244.971,254.107 245.630,254.191 244.824 C 254.275 244.019,254.275 242.700,254.191 241.895 C 254.107 241.089,254.038 241.748,254.038 243.359 M291.518 244.727 C 291.521 245.801,291.597 246.194,291.687 245.600 C 291.776 245.006,291.774 244.127,291.681 243.647 C 291.589 243.167,291.515 243.652,291.518 244.727 M277.779 246.680 C 277.754 247.109,277.291 249.288,276.749 251.522 C 276.208 253.756,275.839 255.657,275.929 255.746 C 276.207 256.024,278.182 247.250,277.998 246.555 C 277.861 246.035,277.815 246.061,277.779 246.680 M254.031 248.828 C 254.031 250.225,254.102 250.796,254.189 250.098 C 254.275 249.399,254.275 248.257,254.189 247.559 C 254.102 246.860,254.031 247.432,254.031 248.828 M291.836 247.884 C 291.857 248.511,292.024 249.463,292.207 250.000 C 292.430 250.659,292.465 250.341,292.313 249.023 C 292.059 246.826,291.777 246.151,291.836 247.884 M82.589 257.617 C 82.590 262.559,82.646 264.526,82.714 261.990 C 82.782 259.453,82.782 255.410,82.713 253.005 C 82.645 250.600,82.589 252.676,82.589 257.617 M292.613 251.482 C 292.561 252.239,293.870 257.263,294.005 256.824 C 294.069 256.616,293.790 255.215,293.385 253.711 C 292.980 252.207,292.633 251.204,292.613 251.482 M120.078 254.453 C 117.382 257.149,119.502 262.486,122.918 261.603 C 123.383 261.483,123.246 261.403,122.529 261.373 C 120.774 261.301,119.141 259.397,119.141 257.422 C 119.141 256.149,119.387 255.553,120.282 254.657 L 121.424 253.516 171.628 253.516 L 221.831 253.516 222.846 254.395 C 223.404 254.878,224.109 255.977,224.413 256.836 C 224.717 257.695,224.973 258.085,224.983 257.702 C 224.992 257.319,224.750 256.408,224.445 255.677 C 223.305 252.948,226.970 253.125,171.465 253.125 L 121.406 253.125 120.078 254.453 M254.005 256.836 C 254.009 257.695,254.089 258.001,254.183 257.515 C 254.276 257.029,254.272 256.326,254.175 255.952 C 254.077 255.579,254.000 255.977,254.005 256.836 M275.223 257.254 C 275.080 257.827,275.037 258.371,275.129 258.463 C 275.221 258.555,275.414 258.162,275.558 257.589 C 275.702 257.017,275.744 256.473,275.652 256.381 C 275.560 256.289,275.367 256.682,275.223 257.254 M224.033 259.346 C 223.701 260.390,222.513 261.032,220.313 261.356 C 218.589 261.609,218.583 261.615,219.994 261.667 C 222.322 261.751,225.469 259.714,224.503 258.747 C 224.386 258.631,224.174 258.900,224.033 259.346 M254.034 261.133 C 254.036 262.637,254.107 263.204,254.191 262.394 C 254.276 261.583,254.274 260.353,254.188 259.659 C 254.102 258.966,254.033 259.629,254.034 261.133 M273.914 261.209 C 272.458 265.427,272.542 265.124,273.041 264.348 C 273.617 263.450,275.048 259.293,274.849 259.094 C 274.765 259.010,274.344 259.961,273.914 261.209 M295.553 261.719 C 295.673 262.256,296.833 264.893,298.130 267.578 C 299.427 270.264,300.624 272.988,300.790 273.633 C 301.024 274.540,301.101 274.611,301.132 273.947 C 301.154 273.476,300.154 271.015,298.911 268.478 C 297.667 265.942,296.354 263.164,295.992 262.305 C 295.630 261.445,295.432 261.182,295.553 261.719 M125.494 261.608 C 126.087 261.698,126.966 261.696,127.447 261.603 C 127.927 261.510,127.441 261.437,126.367 261.440 C 125.293 261.443,124.900 261.519,125.494 261.608 M129.004 261.597 C 129.380 261.696,129.995 261.696,130.371 261.597 C 130.747 261.499,130.439 261.419,129.688 261.419 C 128.936 261.419,128.628 261.499,129.004 261.597 M254.038 267.188 C 254.038 268.799,254.107 269.458,254.191 268.652 C 254.275 267.847,254.275 266.528,254.191 265.723 C 254.107 264.917,254.038 265.576,254.038 267.188 M270.337 269.482 C 269.191 271.805,268.351 273.952,268.471 274.255 C 268.629 274.655,268.697 274.616,268.719 274.114 C 268.736 273.734,269.640 271.650,270.727 269.483 C 271.815 267.316,272.641 265.479,272.562 265.401 C 272.484 265.323,271.483 267.159,270.337 269.482 M283.008 270.291 C 282.578 270.467,281.875 271.005,281.445 271.487 C 280.744 272.274,280.820 272.259,282.183 271.338 C 284.785 269.582,288.220 270.797,288.312 273.505 C 288.329 274.005,288.435 274.185,288.547 273.906 C 289.443 271.669,285.665 269.204,283.008 270.291 M254.076 284.375 C 254.076 289.854,254.131 292.095,254.198 289.355 C 254.265 286.616,254.265 282.134,254.198 279.395 C 254.131 276.655,254.076 278.896,254.076 284.375 M288.312 275.279 C 288.295 275.755,287.710 276.798,287.012 277.595 C 285.838 278.937,285.820 278.995,286.777 278.371 C 287.899 277.640,288.874 275.739,288.547 274.922 C 288.435 274.643,288.329 274.803,288.312 275.279 M269.955 277.246 C 272.187 280.911,276.272 288.757,277.387 291.519 C 278.063 293.192,278.683 294.495,278.764 294.413 C 279.366 293.811,270.151 275.781,269.242 275.781 C 269.144 275.781,269.465 276.440,269.955 277.246 M280.859 276.832 C 280.859 277.047,281.211 277.541,281.641 277.930 C 282.070 278.319,282.422 278.461,282.422 278.246 C 282.422 278.031,282.070 277.537,281.641 277.148 C 281.211 276.760,280.859 276.617,280.859 276.832 M298.739 277.832 C 297.884 279.150,297.117 280.719,297.546 280.273 C 298.094 279.704,299.705 276.953,299.491 276.953 C 299.391 276.953,299.052 277.349,298.739 277.832 M283.203 290.937 L 283.398 303.320 283.501 291.236 C 283.559 284.590,283.471 279.018,283.307 278.853 C 283.142 278.688,283.096 284.126,283.203 290.937 M285.156 294.922 C 285.156 303.802,285.251 310.973,285.368 310.856 C 285.629 310.595,285.606 279.225,285.344 278.964 C 285.241 278.861,285.156 286.042,285.156 294.922 M295.483 283.417 C 293.735 286.542,290.088 294.515,290.306 294.733 C 290.393 294.820,290.964 293.712,291.574 292.270 C 292.185 290.828,293.707 287.671,294.958 285.254 C 297.444 280.450,297.758 279.348,295.483 283.417 M279.158 295.702 C 279.297 296.238,279.737 297.380,280.136 298.241 C 280.534 299.101,280.747 299.366,280.608 298.830 C 280.469 298.294,280.029 297.151,279.630 296.291 C 279.231 295.430,279.019 295.165,279.158 295.702 M91.422 295.430 C 91.386 296.149,92.611 297.943,94.010 299.218 L 95.508 300.585 94.088 299.023 C 93.307 298.164,92.391 296.934,92.053 296.289 C 91.714 295.645,91.430 295.258,91.422 295.430 M289.517 296.306 C 288.862 297.742,288.987 298.049,289.695 296.743 C 290.025 296.133,290.222 295.561,290.133 295.472 C 290.044 295.382,289.766 295.758,289.517 296.306 M252.529 297.191 C 251.705 298.731,248.746 300.944,246.733 301.528 C 246.059 301.723,245.822 301.899,246.207 301.918 C 248.412 302.029,254.501 296.949,253.437 295.885 C 253.363 295.811,252.954 296.398,252.529 297.191 M261.749 297.656 C 261.481 302.709,253.907 309.275,246.879 310.547 C 242.989 311.251,100.821 311.038,97.162 310.322 C 93.417 309.590,90.225 307.756,87.400 304.715 C 86.089 303.303,85.423 302.735,85.919 303.453 C 88.396 307.032,92.657 309.800,97.160 310.754 C 101.090 311.587,243.797 311.594,247.724 310.762 C 253.494 309.539,258.649 305.600,260.970 300.640 C 261.634 299.219,262.089 297.835,261.979 297.564 C 261.841 297.220,261.771 297.248,261.749 297.656 M99.382 302.246 C 99.679 302.544,244.982 302.414,245.280 302.116 C 245.369 302.026,212.513 301.953,172.266 301.953 C 132.018 301.953,99.220 302.085,99.382 302.246 " stroke="none" fill="#1b5b9d" fill-rule="evenodd"></path><path id="path4" d="M312.685 89.160 L 309.961 91.992 312.793 89.268 C 314.351 87.770,315.625 86.496,315.625 86.436 C 315.625 86.150,315.215 86.530,312.685 89.160 M219.922 94.336 C 221.739 96.162,223.313 97.656,223.420 97.656 C 223.528 97.656,222.129 96.162,220.313 94.336 C 218.496 92.510,216.922 91.016,216.814 91.016 C 216.707 91.016,218.105 92.510,219.922 94.336 M210.290 106.445 C 210.292 108.164,210.360 108.819,210.443 107.900 C 210.525 106.981,210.524 105.575,210.440 104.775 C 210.356 103.975,210.289 104.727,210.290 106.445 M210.247 110.938 C 210.247 111.689,210.327 111.997,210.426 111.621 C 210.524 111.245,210.524 110.630,210.426 110.254 C 210.327 109.878,210.247 110.186,210.247 110.938 M239.258 114.063 C 240.966 115.781,242.452 117.188,242.560 117.188 C 242.667 117.188,241.357 115.781,239.648 114.063 C 237.940 112.344,236.454 110.938,236.346 110.938 C 236.239 110.938,237.549 112.344,239.258 114.063 M210.263 114.063 C 210.263 115.029,210.339 115.425,210.432 114.941 C 210.525 114.458,210.525 113.667,210.432 113.184 C 210.339 112.700,210.263 113.096,210.263 114.063 M82.520 117.773 C 82.525 118.633,82.605 118.938,82.698 118.452 C 82.792 117.967,82.788 117.263,82.690 116.890 C 82.592 116.517,82.516 116.914,82.520 117.773 M210.277 125.977 C 210.279 127.266,210.352 127.746,210.439 127.044 C 210.526 126.342,210.524 125.287,210.435 124.700 C 210.346 124.113,210.275 124.688,210.277 125.977 M241.797 130.273 C 242.526 131.025,243.210 131.641,243.317 131.641 C 243.425 131.641,242.916 131.025,242.188 130.273 C 241.459 129.521,240.774 128.906,240.667 128.906 C 240.560 128.906,241.068 129.521,241.797 130.273 M82.520 132.617 C 82.525 133.477,82.605 133.782,82.698 133.296 C 82.792 132.810,82.788 132.107,82.690 131.734 C 82.592 131.360,82.516 131.758,82.520 132.617 M82.513 135.547 C 82.513 136.299,82.593 136.606,82.691 136.230 C 82.789 135.854,82.789 135.239,82.691 134.863 C 82.593 134.487,82.513 134.795,82.513 135.547 M82.534 142.383 C 82.537 143.457,82.612 143.850,82.702 143.256 C 82.792 142.663,82.790 141.784,82.697 141.303 C 82.604 140.823,82.531 141.309,82.534 142.383 M262.691 219.141 C 262.691 261.143,262.737 278.325,262.793 257.324 C 262.849 236.323,262.849 201.958,262.793 180.957 C 262.737 159.956,262.691 177.139,262.691 219.141 M147.003 262.012 C 160.716 262.069,183.040 262.069,196.612 262.012 C 210.185 261.955,198.965 261.908,171.680 261.908 C 144.395 261.908,133.290 261.955,147.003 262.012 M283.526 305.491 C 283.456 307.223,283.518 308.937,283.664 309.300 C 283.810 309.664,283.942 308.247,283.957 306.152 C 283.990 301.549,283.703 301.109,283.526 305.491 " stroke="none" fill="#8ccbde" fill-rule="evenodd"></path></g></svg>