<svg id="svg" version="1.1" xmlns="http://www.w3.org/2000/svg" xmlns:xlink="http://www.w3.org/1999/xlink" width="400" height="400" viewBox="0, 0, 400,400"><g id="svgg"><path id="path0" d="M347.312 58.037 C 346.585 58.553,345.764 59.285,345.488 59.664 C 345.211 60.042,344.751 60.352,344.465 60.352 C 344.179 60.352,343.945 60.568,343.945 60.832 C 343.945 61.097,343.550 61.590,343.066 61.929 C 342.583 62.267,342.188 62.425,342.188 62.279 C 342.188 62.133,341.952 62.209,341.663 62.449 C 341.375 62.688,340.995 62.754,340.819 62.594 C 340.644 62.435,340.631 62.533,340.792 62.812 C 341.022 63.210,341.225 63.218,341.734 62.853 C 342.091 62.596,341.680 63.010,340.820 63.772 C 339.961 64.534,339.146 65.089,339.009 65.005 C 338.872 64.921,338.521 65.158,338.228 65.532 C 337.737 66.158,337.756 66.167,338.477 65.644 C 339.675 64.774,338.748 65.685,335.776 68.297 C 334.290 69.602,332.952 70.594,332.801 70.501 C 332.650 70.407,332.195 70.722,331.790 71.201 C 331.062 72.062,331.063 72.065,331.849 71.484 C 332.286 71.162,331.847 71.628,330.873 72.520 C 329.899 73.411,328.993 74.074,328.861 73.994 C 328.548 73.802,327.281 75.198,327.537 75.453 C 327.820 75.736,325.974 77.385,325.256 77.490 C 324.477 77.604,323.010 78.921,323.242 79.297 C 323.474 79.673,319.951 82.877,319.567 82.639 C 319.405 82.539,318.407 83.372,317.351 84.490 L 315.430 86.523 317.578 84.573 C 318.769 83.492,318.250 84.145,316.415 86.038 C 313.113 89.443,311.529 90.769,314.084 87.988 L 315.430 86.523 313.971 87.864 C 313.168 88.601,312.599 89.292,312.707 89.399 C 312.974 89.667,310.883 91.809,310.554 91.606 C 310.408 91.516,309.342 92.401,308.185 93.573 C 307.028 94.744,306.222 95.703,306.394 95.703 C 306.566 95.703,306.149 96.407,305.467 97.267 C 304.786 98.128,304.088 98.745,303.916 98.639 C 303.745 98.533,303.387 98.708,303.121 99.028 C 302.856 99.348,302.757 99.609,302.902 99.609 C 303.046 99.609,302.697 100.223,302.125 100.973 C 301.545 101.733,300.888 102.224,300.640 102.082 C 300.395 101.942,300.321 101.967,300.475 102.138 C 300.807 102.505,299.335 104.492,298.732 104.492 C 298.504 104.492,298.267 104.827,298.207 105.237 C 298.147 105.647,297.701 106.350,297.216 106.800 C 296.398 107.559,296.375 107.561,296.898 106.836 C 297.413 106.121,297.404 106.099,296.801 106.572 C 296.437 106.856,296.226 107.311,296.330 107.583 C 296.434 107.855,296.215 108.326,295.841 108.629 C 295.262 109.099,295.211 109.099,295.493 108.631 C 295.713 108.267,295.678 108.172,295.390 108.351 C 295.151 108.498,295.042 108.844,295.148 109.119 C 295.254 109.394,294.938 109.960,294.447 110.376 L 293.555 111.133 294.240 110.319 C 294.792 109.663,294.815 109.505,294.359 109.505 C 294.048 109.505,293.804 109.608,293.818 109.733 C 293.831 109.858,293.801 110.137,293.751 110.352 C 293.701 110.566,293.636 111.006,293.607 111.328 C 293.578 111.650,293.291 111.855,292.969 111.784 C 292.646 111.712,292.508 111.779,292.662 111.933 C 293.101 112.371,292.208 113.728,291.680 113.425 C 291.422 113.277,291.337 113.295,291.490 113.465 C 291.851 113.865,291.080 115.321,290.650 115.054 C 290.470 114.943,290.347 115.158,290.376 115.532 C 290.406 115.905,290.231 116.174,289.987 116.129 C 289.744 116.083,289.568 116.347,289.597 116.715 C 289.625 117.082,289.449 117.346,289.206 117.300 C 288.963 117.255,288.787 117.519,288.815 117.886 C 288.847 118.293,288.637 118.504,288.281 118.424 C 287.959 118.353,287.820 118.419,287.973 118.572 C 288.350 118.949,287.165 121.174,286.729 120.905 C 286.538 120.787,286.255 120.896,286.099 121.148 C 285.913 121.450,285.987 121.500,286.318 121.295 C 286.655 121.087,286.755 121.164,286.623 121.528 C 286.515 121.826,286.215 122.022,285.957 121.963 C 285.700 121.904,285.600 122.035,285.736 122.255 C 286.043 122.752,284.995 124.318,284.612 123.935 C 284.459 123.782,284.461 123.988,284.616 124.392 C 284.828 124.944,284.769 125.048,284.381 124.808 C 284.037 124.596,283.957 124.640,284.142 124.939 C 284.470 125.470,283.457 127.076,283.050 126.670 C 282.897 126.516,282.898 126.722,283.054 127.127 C 283.249 127.635,283.196 127.776,282.883 127.583 C 282.578 127.394,282.515 127.522,282.688 127.973 C 282.850 128.395,282.792 128.549,282.532 128.389 C 282.298 128.243,282.143 128.426,282.173 128.813 C 282.202 129.186,282.013 129.450,281.752 129.399 C 281.460 129.342,281.373 129.554,281.526 129.952 C 281.705 130.419,281.631 130.509,281.256 130.277 C 280.897 130.055,280.831 130.107,281.042 130.449 C 281.400 131.028,279.723 134.834,279.241 134.536 C 279.062 134.425,279.031 134.636,279.172 135.005 C 279.346 135.456,279.282 135.584,278.977 135.395 C 278.672 135.207,278.608 135.334,278.782 135.786 C 278.970 136.277,278.900 136.371,278.522 136.137 C 278.174 135.921,278.097 135.967,278.289 136.277 C 278.674 136.901,277.350 140.284,276.843 139.971 C 276.618 139.832,276.559 139.913,276.709 140.156 C 276.856 140.394,276.543 141.959,276.013 143.634 C 274.530 148.316,273.505 152.566,272.870 156.654 C 272.161 161.221,271.671 172.880,272.244 171.582 C 272.813 170.290,273.150 170.512,272.837 171.973 C 272.684 172.686,272.713 173.100,272.904 172.917 C 273.234 172.599,273.288 172.424,273.389 171.354 C 273.416 171.068,273.701 170.833,274.023 170.833 C 274.346 170.833,274.530 170.913,274.433 171.010 C 274.335 171.107,274.513 171.444,274.827 171.758 C 275.141 172.072,275.286 172.509,275.150 172.729 C 274.988 172.991,274.801 172.966,274.609 172.656 C 274.416 172.344,274.231 172.320,274.067 172.586 C 273.929 172.809,274.153 173.097,274.564 173.228 C 275.313 173.465,275.313 175.000,274.564 175.000 C 274.374 175.000,274.221 175.308,274.225 175.684 C 274.229 176.224,274.302 176.255,274.572 175.829 C 274.771 175.514,275.119 175.418,275.408 175.597 C 275.768 175.819,275.846 175.679,275.691 175.086 C 275.348 173.777,276.426 173.727,276.964 175.027 C 277.339 175.932,277.337 176.296,276.953 176.758 C 276.591 177.195,276.584 177.344,276.928 177.344 C 277.182 177.344,277.289 177.507,277.165 177.707 C 277.042 177.907,277.146 178.198,277.398 178.354 C 277.704 178.543,277.750 178.466,277.535 178.119 C 277.300 177.738,277.396 177.671,277.898 177.864 C 278.356 178.039,278.522 177.964,278.402 177.637 C 278.303 177.368,278.012 177.197,277.754 177.256 C 277.496 177.315,277.399 177.180,277.537 176.956 C 277.675 176.733,277.941 176.644,278.128 176.760 C 278.315 176.875,278.442 176.615,278.409 176.180 C 278.376 175.746,278.182 175.391,277.977 175.391 C 277.772 175.391,277.720 175.275,277.862 175.133 C 278.004 174.991,278.503 175.210,278.971 175.621 C 279.439 176.031,279.691 176.143,279.530 175.869 C 279.369 175.594,279.414 175.419,279.631 175.479 C 279.847 175.538,280.293 175.234,280.624 174.805 C 281.191 174.068,281.226 174.128,281.238 175.856 C 281.244 176.864,281.445 177.809,281.682 177.955 C 281.984 178.142,281.954 178.324,281.585 178.558 C 281.280 178.751,281.240 178.897,281.491 178.900 C 281.793 178.904,281.828 179.414,281.605 180.566 C 281.194 182.691,281.210 184.211,281.627 182.617 C 281.795 181.973,282.321 179.775,282.794 177.734 C 285.057 167.980,290.278 152.083,291.060 152.567 C 291.246 152.681,291.299 152.519,291.179 152.207 C 290.899 151.477,293.319 145.632,293.782 145.918 C 293.974 146.037,294.032 145.875,293.911 145.559 C 293.614 144.785,294.460 143.269,295.002 143.604 C 295.270 143.770,295.322 143.691,295.140 143.396 C 294.751 142.767,295.680 140.565,296.199 140.886 C 296.423 141.024,296.489 140.949,296.348 140.721 C 296.010 140.174,296.467 139.006,296.911 139.280 C 297.101 139.398,297.141 139.192,296.999 138.823 C 296.826 138.372,296.890 138.244,297.195 138.433 C 297.500 138.621,297.563 138.494,297.390 138.042 C 297.202 137.551,297.271 137.457,297.650 137.692 C 297.988 137.901,298.074 137.860,297.898 137.575 C 297.547 137.007,299.523 133.103,300.009 133.404 C 300.223 133.536,300.272 133.349,300.124 132.964 C 299.963 132.542,300.020 132.388,300.280 132.549 C 300.515 132.694,300.670 132.511,300.639 132.125 C 300.610 131.751,300.799 131.487,301.060 131.538 C 301.353 131.596,301.439 131.384,301.287 130.986 C 301.122 130.556,301.190 130.434,301.492 130.620 C 301.797 130.809,301.860 130.681,301.687 130.230 C 301.525 129.808,301.583 129.654,301.843 129.815 C 302.077 129.960,302.232 129.777,302.202 129.390 C 302.172 129.015,302.380 128.759,302.666 128.818 C 302.950 128.877,303.072 128.746,302.936 128.526 C 302.615 128.006,303.682 126.478,304.102 126.858 C 304.278 127.018,304.298 126.932,304.146 126.668 C 303.795 126.057,304.601 124.510,305.107 124.823 C 305.317 124.952,305.463 124.913,305.432 124.736 C 305.301 123.979,305.494 123.407,305.815 123.606 C 306.006 123.723,306.138 123.514,306.108 123.140 C 306.079 122.767,306.268 122.503,306.529 122.554 C 306.790 122.605,306.910 122.403,306.795 122.105 C 306.681 121.807,306.802 121.431,307.065 121.268 C 307.396 121.063,307.445 121.141,307.224 121.522 C 307.039 121.841,307.052 121.937,307.257 121.750 C 307.449 121.573,307.609 121.134,307.612 120.773 C 307.615 120.412,307.816 120.154,308.060 120.200 C 308.303 120.245,308.479 119.985,308.450 119.623 C 308.422 119.261,308.604 118.960,308.854 118.955 C 309.105 118.950,309.456 118.785,309.635 118.590 C 309.825 118.383,309.756 118.352,309.473 118.515 C 308.758 118.927,308.875 118.439,309.804 117.134 C 310.498 116.159,310.722 116.058,311.269 116.469 C 311.804 116.872,311.834 116.865,311.444 116.425 C 310.927 115.843,311.491 114.266,312.085 114.633 C 312.265 114.744,312.388 114.534,312.358 114.165 C 312.329 113.797,312.510 113.491,312.760 113.486 C 313.011 113.481,313.363 113.317,313.542 113.121 C 313.731 112.914,313.663 112.883,313.379 113.046 C 313.110 113.201,312.891 113.217,312.891 113.081 C 312.891 112.680,314.167 111.524,314.621 111.515 C 314.851 111.510,314.993 111.226,314.936 110.883 C 314.880 110.541,315.143 110.017,315.522 109.720 C 316.162 109.218,316.169 109.235,315.625 109.961 C 315.082 110.684,315.089 110.703,315.718 110.210 C 316.092 109.917,316.309 109.534,316.201 109.359 C 316.093 109.184,316.468 108.545,317.035 107.938 C 317.602 107.332,317.825 107.187,317.529 107.617 C 317.037 108.334,317.048 108.354,317.671 107.866 C 318.045 107.573,318.250 107.170,318.126 106.970 C 317.844 106.514,318.726 105.408,319.158 105.675 C 319.511 105.893,320.049 105.186,320.178 104.333 C 320.224 104.031,320.658 103.416,321.143 102.966 C 321.965 102.204,321.987 102.202,321.473 102.930 C 321.054 103.524,321.176 103.485,321.984 102.764 C 323.089 101.779,323.488 101.101,322.461 101.953 C 322.134 102.224,321.875 102.267,321.875 102.049 C 321.875 101.475,322.954 100.678,323.376 100.939 C 323.576 101.062,323.979 100.868,324.272 100.507 C 324.638 100.055,324.652 99.942,324.316 100.143 C 323.156 100.841,324.000 99.610,326.125 97.508 C 327.618 96.030,328.519 95.393,328.701 95.688 C 328.898 96.006,329.151 95.930,329.551 95.434 C 330.075 94.784,330.086 94.798,329.689 95.616 C 329.452 96.106,329.068 96.389,328.836 96.246 C 328.588 96.092,328.493 96.209,328.606 96.528 C 328.849 97.214,327.428 100.098,326.982 99.823 C 326.800 99.710,326.675 99.924,326.704 100.297 C 326.734 100.671,326.544 100.935,326.284 100.884 C 326.023 100.832,325.903 101.034,326.017 101.332 C 326.132 101.630,326.010 102.007,325.748 102.169 C 325.416 102.374,325.367 102.296,325.588 101.916 C 325.774 101.596,325.760 101.501,325.556 101.688 C 325.363 101.864,325.203 102.303,325.200 102.663 C 325.198 103.024,324.990 103.319,324.740 103.319 C 324.489 103.320,324.137 103.480,323.958 103.676 C 323.766 103.886,323.854 103.904,324.172 103.719 C 324.543 103.504,324.649 103.576,324.514 103.950 C 324.405 104.248,324.106 104.444,323.848 104.385 C 323.590 104.326,323.475 104.432,323.591 104.620 C 323.708 104.809,323.532 105.297,323.201 105.704 C 322.869 106.112,322.727 106.182,322.885 105.859 C 323.051 105.521,323.024 105.409,322.822 105.594 C 322.629 105.770,322.469 106.210,322.466 106.571 C 322.463 106.931,322.262 107.190,322.019 107.144 C 321.775 107.099,321.600 107.358,321.628 107.721 C 321.656 108.083,321.475 108.384,321.224 108.389 C 320.973 108.394,320.622 108.558,320.443 108.754 C 320.254 108.961,320.322 108.992,320.605 108.829 C 321.333 108.410,321.196 109.197,320.433 109.815 C 319.863 110.278,319.818 110.271,320.105 109.766 C 320.300 109.422,320.293 109.312,320.087 109.500 C 319.894 109.677,319.734 110.116,319.732 110.477 C 319.729 110.838,319.507 111.089,319.238 111.035 C 318.970 110.981,318.771 111.069,318.796 111.230 C 318.914 111.976,318.718 112.526,318.403 112.332 C 318.213 112.214,318.081 112.403,318.111 112.751 C 318.140 113.100,317.840 113.436,317.445 113.499 C 317.049 113.562,316.610 113.742,316.468 113.900 C 316.327 114.058,316.519 114.077,316.895 113.942 C 317.766 113.629,317.779 114.194,316.917 114.894 C 316.354 115.350,316.305 115.348,316.587 114.881 C 316.813 114.506,316.773 114.422,316.460 114.615 C 316.209 114.771,316.102 115.058,316.223 115.253 C 316.517 115.729,315.674 117.264,315.259 117.007 C 315.079 116.896,314.956 117.111,314.986 117.485 C 315.015 117.858,314.826 118.122,314.565 118.071 C 314.304 118.020,314.169 118.196,314.265 118.462 C 314.361 118.728,314.076 119.385,313.631 119.922 C 313.187 120.459,312.953 120.652,313.112 120.350 C 313.305 119.985,313.249 119.896,312.945 120.084 C 312.693 120.239,312.588 120.530,312.712 120.729 C 313.017 121.224,311.925 122.724,311.523 122.361 C 311.347 122.201,311.317 122.271,311.457 122.516 C 311.809 123.131,309.800 126.630,309.280 126.309 C 309.038 126.159,308.978 126.235,309.135 126.491 C 309.486 127.058,308.287 129.395,307.800 129.094 C 307.590 128.964,307.542 129.154,307.688 129.536 C 307.876 130.027,307.807 130.121,307.428 129.887 C 307.089 129.677,307.004 129.718,307.181 130.004 C 307.532 130.572,305.945 133.693,305.458 133.392 C 305.246 133.261,305.197 133.449,305.344 133.833 C 305.518 134.285,305.454 134.412,305.149 134.223 C 304.844 134.035,304.780 134.162,304.954 134.614 C 305.127 135.066,305.063 135.193,304.758 135.005 C 304.453 134.816,304.390 134.944,304.563 135.395 C 304.736 135.847,304.673 135.974,304.368 135.786 C 304.063 135.597,303.999 135.725,304.172 136.177 C 304.361 136.667,304.291 136.761,303.912 136.527 C 303.551 136.304,303.488 136.357,303.701 136.703 C 304.090 137.332,301.969 141.853,301.438 141.525 C 301.212 141.385,301.175 141.487,301.351 141.770 C 301.738 142.396,300.408 145.369,299.885 145.046 C 299.652 144.902,299.609 144.996,299.781 145.274 C 300.175 145.911,298.466 150.063,297.943 149.740 C 297.712 149.598,297.652 149.676,297.804 149.923 C 297.951 150.161,296.844 154.012,295.344 158.479 C 292.091 168.169,290.153 175.427,290.433 176.876 C 290.604 177.758,290.577 177.802,290.268 177.148 L 289.899 176.367 289.866 177.148 C 289.848 177.578,289.720 178.353,289.582 178.870 C 289.395 179.568,289.457 179.731,289.823 179.505 C 290.096 179.336,290.016 179.658,289.644 180.225 C 289.209 180.889,289.134 181.250,289.431 181.250 C 289.683 181.250,289.764 181.453,289.611 181.701 C 289.433 181.989,289.505 182.046,289.810 181.857 C 290.073 181.694,290.208 181.353,290.110 181.099 C 290.012 180.844,290.244 180.636,290.625 180.636 C 291.006 180.636,291.243 180.829,291.153 181.065 C 290.849 181.858,292.465 182.926,293.555 182.652 C 294.109 182.513,294.455 182.224,294.323 182.010 C 293.924 181.365,295.080 181.787,295.596 182.475 C 295.860 182.826,296.507 183.222,297.035 183.355 C 297.804 183.548,297.988 183.833,297.961 184.792 L 297.927 185.988 297.060 185.084 C 296.584 184.587,296.287 184.021,296.400 183.826 C 296.513 183.632,296.419 183.588,296.191 183.729 C 295.902 183.908,295.912 184.271,296.224 184.933 C 296.470 185.454,296.747 185.805,296.839 185.713 C 296.931 185.621,297.314 185.823,297.690 186.163 C 298.264 186.683,298.518 186.701,299.284 186.280 C 300.424 185.654,301.245 185.503,300.955 185.972 C 300.834 186.168,300.943 186.328,301.197 186.328 C 301.522 186.328,301.500 186.521,301.122 186.982 C 300.644 187.564,300.682 187.611,301.465 187.409 C 301.948 187.284,302.344 187.313,302.344 187.471 C 302.344 187.630,302.600 187.760,302.913 187.760 C 303.225 187.760,303.391 187.614,303.280 187.435 C 303.169 187.256,303.275 187.109,303.516 187.109 C 303.756 187.109,303.854 186.950,303.734 186.755 C 303.613 186.561,303.163 186.493,302.734 186.606 C 302.267 186.728,301.953 186.617,301.953 186.332 C 301.953 186.069,302.191 185.945,302.482 186.057 C 302.772 186.168,303.298 185.923,303.650 185.513 C 304.001 185.102,304.511 184.780,304.781 184.796 C 305.175 184.821,305.176 184.867,304.783 185.025 C 304.513 185.134,304.408 185.411,304.550 185.641 C 304.703 185.887,304.624 185.944,304.357 185.779 C 304.090 185.614,303.906 185.749,303.906 186.110 C 303.906 186.445,304.092 186.719,304.320 186.719 C 304.547 186.719,304.634 186.879,304.513 187.075 C 304.392 187.271,304.689 187.389,305.174 187.336 C 305.658 187.283,306.406 187.589,306.836 188.016 C 307.266 188.443,307.370 188.650,307.069 188.476 C 306.693 188.260,306.611 188.308,306.809 188.629 C 306.968 188.886,306.886 189.353,306.626 189.666 C 306.026 190.389,306.518 190.412,307.236 189.695 C 307.533 189.398,307.666 189.047,307.533 188.914 C 307.400 188.781,307.491 188.672,307.735 188.672 C 307.981 188.672,308.081 188.367,307.959 187.988 C 307.790 187.462,307.827 187.428,308.121 187.840 C 308.433 188.278,308.580 188.242,308.927 187.645 C 309.160 187.243,309.357 187.123,309.363 187.379 C 309.370 187.635,309.187 187.961,308.958 188.102 C 308.728 188.244,308.633 188.602,308.746 188.896 C 308.859 189.191,308.652 189.605,308.285 189.817 C 307.775 190.110,307.961 190.175,309.075 190.094 C 310.350 190.001,311.719 189.453,310.677 189.453 C 310.462 189.453,310.286 189.208,310.286 188.909 C 310.286 188.239,311.964 188.354,312.625 189.069 C 312.985 189.459,312.968 189.501,312.547 189.261 C 312.182 189.053,312.066 189.127,312.186 189.489 C 312.384 190.080,314.844 190.435,314.844 189.872 C 314.844 189.677,314.712 189.444,314.551 189.354 C 314.390 189.264,314.480 189.245,314.751 189.311 C 315.408 189.472,319.489 183.887,322.727 178.396 C 323.609 176.899,323.765 176.352,323.403 176.019 C 323.058 175.702,322.997 175.702,323.175 176.021 C 323.337 176.311,321.672 176.804,318.175 177.501 C 315.291 178.077,310.857 179.129,308.322 179.841 C 305.786 180.552,303.184 181.261,302.539 181.417 L 301.367 181.700 302.514 180.499 C 303.146 179.838,303.820 179.297,304.013 179.297 C 304.207 179.297,306.192 178.066,308.425 176.563 C 312.521 173.804,313.167 173.456,312.658 174.279 C 312.484 174.561,312.551 174.624,312.837 174.447 C 313.088 174.292,313.207 174.025,313.102 173.853 C 312.818 173.394,314.334 172.146,314.815 172.443 C 315.064 172.597,315.134 172.458,314.993 172.091 C 314.865 171.757,314.950 171.484,315.181 171.484 C 315.413 171.484,317.882 169.276,320.668 166.577 C 323.454 163.878,325.876 161.636,326.050 161.596 C 326.225 161.556,326.317 161.373,326.256 161.189 C 326.077 160.653,327.003 159.750,327.448 160.026 C 327.693 160.177,327.737 160.086,327.558 159.797 C 327.387 159.519,327.590 158.960,328.042 158.467 C 328.471 158.000,329.738 156.211,330.857 154.492 C 331.976 152.773,333.062 151.415,333.272 151.475 C 333.481 151.534,333.549 151.416,333.423 151.212 C 333.298 151.009,334.138 148.939,335.290 146.613 C 336.442 144.286,337.606 141.814,337.878 141.118 C 338.150 140.422,338.554 139.966,338.778 140.104 C 339.010 140.248,339.066 140.166,338.910 139.913 C 338.760 139.670,339.348 137.248,340.217 134.530 C 341.086 131.812,341.800 129.303,341.803 128.954 C 341.808 128.399,341.861 128.393,342.230 128.906 C 342.578 129.389,342.610 129.363,342.412 128.756 C 342.118 127.857,342.551 125.328,342.955 125.578 C 343.115 125.677,343.167 125.342,343.070 124.835 C 342.907 123.982,342.789 123.941,341.529 124.289 C 340.778 124.496,339.907 124.567,339.593 124.447 C 339.279 124.326,339.113 124.375,339.225 124.556 C 339.495 124.993,336.435 125.894,335.869 125.544 C 335.608 125.382,335.533 125.444,335.688 125.693 C 336.004 126.205,334.566 126.727,333.928 126.332 C 333.655 126.164,333.578 126.221,333.734 126.474 C 334.051 126.986,332.613 127.508,331.974 127.113 C 331.671 126.926,331.626 127.004,331.840 127.350 C 332.074 127.729,331.980 127.798,331.489 127.610 C 331.120 127.468,330.915 127.508,331.032 127.698 C 331.382 128.265,328.424 129.270,327.637 128.851 C 327.210 128.625,326.953 128.628,326.953 128.860 C 326.953 129.064,327.164 129.302,327.422 129.388 C 327.718 129.487,327.651 129.636,327.239 129.794 C 326.881 129.932,326.479 129.869,326.347 129.655 C 326.023 129.131,331.639 123.426,332.621 123.282 C 333.049 123.219,333.398 122.965,333.398 122.717 C 333.398 122.050,335.542 119.482,335.909 119.709 C 336.082 119.816,336.555 119.526,336.960 119.064 C 337.364 118.603,337.476 118.354,337.207 118.511 C 336.938 118.668,336.719 118.620,336.719 118.405 C 336.719 117.969,337.487 117.398,338.085 117.389 C 338.300 117.386,338.476 117.031,338.476 116.602 C 338.476 116.160,338.701 115.867,338.994 115.928 C 339.278 115.987,339.416 115.881,339.299 115.692 C 339.183 115.504,339.359 115.016,339.690 114.608 C 340.021 114.201,340.164 114.114,340.008 114.416 C 339.819 114.780,339.877 114.869,340.180 114.682 C 340.432 114.526,340.540 114.240,340.420 114.047 C 340.126 113.571,341.402 111.670,341.835 111.938 C 342.024 112.054,342.063 111.848,341.921 111.480 C 341.733 110.989,341.803 110.895,342.181 111.129 C 342.525 111.342,342.606 111.298,342.421 110.999 C 342.092 110.467,343.106 108.861,343.513 109.268 C 343.666 109.421,343.664 109.215,343.509 108.811 C 343.314 108.302,343.366 108.161,343.679 108.355 C 343.984 108.543,344.048 108.416,343.874 107.964 C 343.686 107.473,343.756 107.379,344.135 107.613 C 344.463 107.817,344.558 107.782,344.395 107.517 C 344.057 106.971,344.514 105.803,344.958 106.077 C 345.148 106.195,345.188 105.989,345.046 105.620 C 344.873 105.169,344.937 105.041,345.242 105.230 C 345.547 105.418,345.610 105.291,345.437 104.839 C 345.264 104.387,345.327 104.260,345.632 104.448 C 345.937 104.637,346.001 104.509,345.828 104.058 C 345.639 103.567,345.709 103.473,346.088 103.707 C 346.433 103.921,346.512 103.876,346.324 103.572 C 345.972 103.002,346.426 101.480,346.867 101.753 C 347.046 101.864,347.094 101.575,346.972 101.111 C 346.831 100.571,346.901 100.361,347.168 100.525 C 347.434 100.690,347.504 100.480,347.363 99.939 C 347.199 99.312,347.273 99.177,347.655 99.413 C 347.987 99.618,348.073 99.577,347.900 99.297 C 347.558 98.743,348.028 96.817,348.443 97.074 C 348.615 97.180,348.656 96.887,348.535 96.424 C 348.394 95.884,348.464 95.673,348.730 95.838 C 348.997 96.003,349.067 95.792,348.925 95.252 C 348.776 94.679,348.848 94.498,349.153 94.686 C 349.442 94.865,349.519 94.750,349.370 94.361 C 349.102 93.662,349.940 89.844,350.362 89.844 C 350.518 89.844,350.576 89.272,350.491 88.574 C 350.376 87.641,350.439 87.455,350.727 87.870 C 351.004 88.270,351.060 87.927,350.919 86.698 C 350.782 85.511,350.839 85.132,351.099 85.502 C 351.359 85.873,351.429 85.443,351.320 84.135 C 351.201 82.700,351.257 82.421,351.544 83.008 C 351.826 83.585,351.876 83.279,351.736 81.836 C 351.631 80.762,351.682 76.955,351.847 73.377 C 352.013 69.798,352.017 66.952,351.855 67.052 C 351.694 67.152,351.565 66.828,351.568 66.332 C 351.573 65.616,351.650 65.550,351.942 66.011 C 352.233 66.471,352.296 66.416,352.245 65.745 C 352.210 65.279,352.066 64.969,351.925 65.056 C 351.673 65.212,351.114 62.134,351.023 60.091 C 350.997 59.518,350.900 59.126,350.807 59.219 C 350.714 59.312,350.415 58.858,350.143 58.210 C 349.555 56.813,349.076 56.783,347.312 58.037 M352.044 78.125 C 352.044 78.877,352.124 79.185,352.222 78.809 C 352.321 78.433,352.321 77.817,352.222 77.441 C 352.124 77.065,352.044 77.373,352.044 78.125 M97.656 88.122 C 97.656 88.559,97.428 88.652,96.826 88.461 C 96.215 88.267,96.076 88.328,96.301 88.692 C 96.524 89.051,96.377 89.126,95.764 88.965 C 95.300 88.844,95.019 88.904,95.140 89.099 C 95.340 89.423,94.685 89.603,93.461 89.559 C 93.195 89.549,93.092 89.727,93.232 89.954 C 93.393 90.214,93.239 90.272,92.817 90.110 C 92.449 89.968,92.238 90.001,92.350 90.182 C 92.577 90.549,90.650 91.600,90.039 91.442 C 89.824 91.386,89.774 91.467,89.928 91.621 C 90.274 91.966,88.253 93.604,87.703 93.424 C 87.484 93.353,87.431 93.421,87.586 93.576 C 87.944 93.934,86.377 96.170,85.952 95.907 C 85.778 95.800,85.659 96.017,85.689 96.391 C 85.718 96.767,85.511 97.022,85.225 96.963 C 84.940 96.904,84.811 97.023,84.937 97.227 C 85.272 97.768,84.331 99.628,83.867 99.341 C 83.649 99.207,83.593 99.292,83.741 99.531 C 84.091 100.098,83.608 102.008,83.181 101.744 C 82.999 101.632,82.867 121.628,82.886 146.180 C 82.905 170.732,83.046 190.029,83.198 189.063 C 83.436 187.559,83.485 187.780,83.535 190.592 C 83.589 193.625,83.846 194.471,84.179 192.712 C 84.254 192.316,84.329 191.927,84.345 191.847 C 84.362 191.767,84.652 191.931,84.991 192.212 C 85.736 192.831,86.408 192.074,86.021 191.051 C 85.826 190.535,85.903 190.545,86.476 191.113 C 87.210 191.841,88.098 192.057,87.698 191.411 C 87.556 191.181,87.732 191.129,88.130 191.282 C 88.581 191.455,88.709 191.391,88.520 191.086 C 88.337 190.790,88.451 190.715,88.850 190.868 C 89.521 191.125,90.056 192.701,89.679 193.310 C 89.548 193.522,89.591 193.789,89.774 193.902 C 90.170 194.147,90.587 173.015,90.717 146.094 L 90.811 126.758 91.020 148.828 C 91.226 170.554,91.230 170.380,91.301 137.674 C 91.370 105.762,91.448 102.863,92.228 103.346 C 92.421 103.464,92.592 103.420,92.608 103.246 C 92.725 102.006,93.032 101.335,93.808 100.622 C 94.682 99.819,94.687 99.819,94.126 100.608 C 93.812 101.049,94.075 100.873,94.711 100.217 C 95.347 99.561,96.074 99.070,96.327 99.128 C 96.579 99.186,96.893 98.954,97.024 98.613 C 97.183 98.199,97.522 98.076,98.045 98.242 C 98.476 98.378,98.828 98.327,98.828 98.127 C 98.828 97.928,99.294 97.854,99.863 97.962 C 100.577 98.099,100.812 98.022,100.621 97.713 C 100.415 97.379,106.705 97.256,125.465 97.228 C 139.282 97.207,153.750 97.147,157.617 97.093 C 187.019 96.690,185.566 96.732,178.711 96.484 C 175.273 96.360,173.032 96.222,173.730 96.176 C 174.607 96.119,175.000 95.898,175.000 95.460 C 175.000 94.913,175.093 94.899,175.684 95.362 C 176.302 95.847,176.317 95.834,175.835 95.219 C 175.542 94.846,175.176 94.618,175.021 94.714 C 174.866 94.809,174.740 94.639,174.740 94.336 C 174.740 94.033,174.900 93.884,175.097 94.005 C 175.293 94.127,175.404 93.899,175.343 93.500 C 175.104 91.937,175.753 90.625,176.765 90.625 C 177.298 90.625,177.737 90.405,177.740 90.137 C 177.745 89.771,177.829 89.779,178.077 90.169 C 178.343 90.590,178.453 90.572,178.643 90.077 C 178.784 89.709,178.688 89.500,178.404 89.555 C 178.143 89.607,177.981 89.341,178.044 88.965 C 178.153 88.318,176.074 88.281,138.910 88.281 C 114.353 88.281,99.285 88.139,98.658 87.900 C 97.851 87.593,97.656 87.636,97.656 88.122 M117.090 87.793 C 126.597 87.851,142.153 87.851,151.660 87.793 C 161.167 87.735,153.389 87.687,134.375 87.687 C 115.361 87.687,107.583 87.735,117.090 87.793 M310.547 91.909 C 310.547 91.971,309.624 92.894,308.496 93.960 L 306.445 95.898 308.384 93.848 C 310.185 91.942,310.547 91.618,310.547 91.909 M174.074 94.734 C 173.942 95.080,173.658 95.254,173.444 95.121 C 173.197 94.968,173.231 94.689,173.539 94.355 C 174.135 93.708,174.397 93.893,174.074 94.734 M90.910 119.043 C 90.825 119.849,90.756 119.189,90.756 117.578 C 90.756 115.967,90.825 115.308,90.910 116.113 C 90.994 116.919,90.994 118.237,90.910 119.043 M90.901 123.921 C 90.808 124.407,90.728 124.102,90.724 123.242 C 90.719 122.383,90.796 121.985,90.893 122.359 C 90.991 122.732,90.995 123.435,90.901 123.921 M91.106 173.438 C 91.106 174.189,91.187 174.497,91.285 174.121 C 91.383 173.745,91.383 173.130,91.285 172.754 C 91.187 172.378,91.106 172.686,91.106 173.438 M271.966 175.781 C 271.966 176.533,272.046 176.841,272.144 176.465 C 272.243 176.089,272.243 175.474,272.144 175.098 C 272.046 174.722,271.966 175.029,271.966 175.781 M276.244 175.000 C 276.295 175.322,276.101 176.025,275.815 176.563 L 275.294 177.539 276.142 176.657 C 276.806 175.965,276.899 175.629,276.571 175.095 C 276.264 174.596,276.177 174.571,276.244 175.000 M91.127 176.758 C 91.130 177.832,91.206 178.225,91.296 177.631 C 91.386 177.038,91.383 176.159,91.291 175.678 C 91.198 175.198,91.124 175.684,91.127 176.758 M280.369 175.648 C 280.208 175.898,280.194 176.410,280.339 176.787 C 280.517 177.251,280.456 177.382,280.149 177.192 C 279.847 177.006,279.779 177.128,279.945 177.562 C 280.176 178.161,280.222 178.162,280.553 177.571 C 280.983 176.801,280.809 174.971,280.369 175.648 M272.391 181.641 C 272.391 183.037,272.462 183.608,272.548 182.910 C 272.635 182.212,272.635 181.069,272.548 180.371 C 272.462 179.673,272.391 180.244,272.391 181.641 M292.480 180.939 C 292.427 181.198,292.588 181.418,292.839 181.428 C 293.689 181.461,293.785 181.931,292.985 182.140 C 292.085 182.375,291.621 181.882,291.945 181.036 C 292.208 180.352,292.618 180.278,292.480 180.939 M288.672 182.617 C 288.672 183.154,288.823 183.594,289.008 183.594 C 289.193 183.594,289.261 183.154,289.158 182.617 C 289.055 182.080,288.904 181.641,288.822 181.641 C 288.739 181.641,288.672 182.080,288.672 182.617 M294.877 182.715 C 294.852 182.876,294.863 183.315,294.901 183.691 C 294.941 184.081,294.708 184.375,294.360 184.375 C 294.025 184.375,293.750 184.640,293.750 184.964 C 293.750 185.388,294.077 185.261,294.919 184.512 C 295.820 183.708,295.988 183.351,295.652 182.946 C 295.160 182.353,294.942 182.288,294.877 182.715 M301.563 183.372 C 301.563 183.465,301.052 183.904,300.427 184.349 L 299.292 185.158 299.502 184.354 C 299.624 183.887,299.931 183.634,300.234 183.750 C 300.521 183.860,300.860 183.782,300.987 183.577 C 301.225 183.193,301.563 183.072,301.563 183.372 M314.850 187.988 C 314.854 188.319,314.989 188.288,315.270 187.891 C 315.594 187.433,315.652 187.425,315.536 187.856 C 315.339 188.588,314.063 188.757,314.063 188.051 C 314.063 187.748,314.238 187.500,314.453 187.500 C 314.668 187.500,314.846 187.720,314.850 187.988 M311.147 189.355 C 311.309 189.731,311.453 190.344,311.468 190.717 C 311.483 191.090,311.643 191.247,311.824 191.067 C 312.242 190.649,311.763 188.672,311.244 188.672 C 311.021 188.672,310.980 188.965,311.147 189.355 M313.275 190.895 C 313.270 191.499,313.211 191.516,312.868 191.016 C 312.512 190.495,312.480 190.495,312.579 191.016 C 312.747 191.905,310.460 194.612,310.035 194.027 C 309.799 193.703,309.755 193.754,309.894 194.191 C 310.004 194.540,309.977 194.983,309.833 195.175 C 309.525 195.584,312.370 192.653,313.404 191.496 C 313.866 190.980,313.968 190.613,313.697 190.445 C 313.462 190.300,313.279 190.495,313.275 190.895 M85.190 191.190 C 85.386 191.069,85.547 191.265,85.547 191.626 C 85.547 192.166,85.442 192.196,84.961 191.797 C 84.639 191.529,84.389 191.112,84.406 190.870 C 84.425 190.596,84.511 190.615,84.635 190.920 C 84.743 191.190,84.993 191.312,85.190 191.190 M87.988 192.083 C 87.429 192.458,87.109 192.514,87.109 192.235 C 87.109 191.994,86.923 191.797,86.696 191.797 C 86.093 191.797,86.626 192.503,87.619 193.020 C 88.091 193.265,88.347 193.327,88.190 193.158 C 88.032 192.989,88.207 192.628,88.580 192.356 C 89.566 191.634,89.026 191.385,87.988 192.083 M89.950 196.094 C 89.950 197.061,90.026 197.456,90.119 196.973 C 90.213 196.489,90.213 195.698,90.119 195.215 C 90.026 194.731,89.950 195.127,89.950 196.094 M307.431 197.363 L 306.138 199.023 307.639 197.572 C 308.465 196.773,309.047 196.026,308.932 195.912 C 308.818 195.797,308.142 196.450,307.431 197.363 " stroke="none" fill="#04d1d4" fill-rule="evenodd"></path><path id="path1" d="M183.691 87.793 C 188.364 87.855,196.011 87.855,200.684 87.793 C 205.356 87.730,201.533 87.679,192.188 87.679 C 182.842 87.679,179.019 87.730,183.691 87.793 M178.125 88.672 C 178.125 89.464,178.211 89.646,178.541 89.555 C 178.726 89.504,178.772 89.739,178.643 90.077 C 178.453 90.572,178.343 90.590,178.077 90.169 C 177.829 89.779,177.745 89.771,177.740 90.137 C 177.737 90.405,177.298 90.625,176.765 90.625 C 175.753 90.625,175.104 91.937,175.343 93.500 C 175.404 93.899,175.293 94.127,175.097 94.005 C 174.900 93.884,174.740 94.033,174.740 94.336 C 174.740 94.639,174.866 94.809,175.021 94.714 C 175.176 94.618,175.542 94.846,175.835 95.219 C 176.317 95.834,176.302 95.847,175.684 95.362 C 175.093 94.899,175.000 94.913,175.000 95.460 C 175.000 95.898,174.607 96.119,173.730 96.176 C 173.032 96.222,175.273 96.360,178.711 96.484 L 184.961 96.710 174.805 96.882 C 166.661 97.020,168.923 97.094,186.223 97.258 L 207.798 97.461 209.075 98.737 L 210.352 100.014 210.580 114.558 C 210.827 130.231,210.854 130.446,213.082 134.145 C 214.572 136.620,214.685 136.908,214.002 136.486 C 213.720 136.312,213.657 136.379,213.834 136.665 C 213.989 136.916,214.257 137.035,214.429 136.929 C 214.601 136.823,215.248 137.185,215.867 137.735 C 220.390 141.750,221.275 141.931,237.591 142.174 L 251.549 142.383 252.825 143.660 L 254.102 144.937 254.202 219.193 C 254.301 292.093,254.232 296.973,253.111 296.281 C 252.907 296.154,252.851 296.335,252.987 296.687 C 253.147 297.105,252.719 297.844,251.731 298.856 C 250.316 300.305,249.232 300.927,249.842 299.940 C 250.016 299.658,249.949 299.595,249.663 299.771 C 249.412 299.927,249.303 300.210,249.420 300.401 C 249.736 300.912,247.708 301.843,245.698 302.110 C 244.734 302.238,220.052 302.432,190.848 302.543 C 161.645 302.653,137.666 302.829,137.561 302.934 C 137.456 303.039,138.268 303.125,139.366 303.125 C 140.864 303.125,141.489 303.305,141.872 303.848 C 142.153 304.245,142.678 304.526,143.039 304.472 C 143.449 304.411,143.621 304.570,143.495 304.897 C 143.385 305.184,143.046 305.324,142.742 305.207 C 142.344 305.055,142.212 305.273,142.271 305.985 C 142.316 306.530,142.522 306.871,142.727 306.744 C 142.935 306.615,142.998 306.782,142.869 307.118 C 142.696 307.569,142.830 307.674,143.389 307.527 C 143.816 307.416,144.141 307.529,144.141 307.790 C 144.141 308.043,143.965 308.141,143.750 308.008 C 143.535 307.875,143.359 307.953,143.359 308.180 C 143.359 308.408,143.579 308.596,143.848 308.600 C 144.173 308.604,144.141 308.732,143.750 308.984 C 143.428 309.193,142.593 309.366,141.895 309.369 C 141.196 309.372,140.625 309.551,140.625 309.766 C 140.625 309.980,139.878 310.194,138.965 310.241 C 133.688 310.509,163.136 310.742,202.344 310.742 L 247.461 310.742 249.773 309.861 C 254.984 307.877,258.482 304.839,260.667 300.401 L 261.914 297.868 262.012 249.422 C 262.066 222.777,262.154 187.326,262.207 170.643 C 262.261 153.959,262.198 140.482,262.067 140.694 C 261.936 140.905,261.717 140.519,261.580 139.835 C 261.444 139.151,261.446 138.407,261.586 138.181 C 261.746 137.922,261.648 137.888,261.322 138.090 C 260.943 138.324,260.874 138.230,261.062 137.739 C 261.235 137.287,261.172 137.160,260.867 137.348 C 260.562 137.537,260.498 137.410,260.671 136.958 C 260.817 136.579,260.769 136.386,260.562 136.514 C 260.150 136.769,259.185 135.274,259.181 134.375 C 259.180 134.053,258.969 133.789,258.712 133.789 C 258.010 133.789,249.575 125.264,249.771 124.752 C 249.976 124.217,247.903 122.152,247.034 122.025 C 246.280 121.914,244.922 120.731,244.922 120.184 C 244.922 119.965,245.361 120.199,245.898 120.703 C 246.436 121.208,246.875 121.539,246.875 121.438 C 246.875 121.338,246.043 120.473,245.026 119.515 C 243.990 118.539,243.600 118.289,244.140 118.945 C 244.669 119.590,244.191 119.253,243.076 118.196 C 241.962 117.139,241.158 116.101,241.289 115.890 C 241.420 115.678,241.348 115.615,241.128 115.751 C 240.909 115.886,240.398 115.609,239.994 115.134 C 239.267 114.282,239.267 114.278,240.039 114.850 C 240.761 115.386,240.780 115.378,240.288 114.750 C 239.995 114.377,239.627 114.150,239.470 114.247 C 238.963 114.561,230.371 105.553,230.687 105.040 C 230.870 104.746,230.816 104.668,230.546 104.835 C 229.995 105.176,228.044 103.509,228.279 102.897 C 228.376 102.645,227.809 101.846,227.020 101.121 L 225.586 99.805 226.951 101.367 L 228.317 102.930 226.480 101.205 C 225.470 100.256,224.722 99.353,224.817 99.198 C 224.913 99.043,224.730 98.699,224.410 98.434 C 224.090 98.168,223.828 98.094,223.828 98.269 C 223.828 98.443,222.012 96.798,219.791 94.613 C 216.901 91.769,215.099 90.334,213.444 89.559 L 211.133 88.477 196.321 88.365 C 184.586 88.277,181.442 88.358,181.190 88.756 C 180.942 89.146,180.870 89.149,180.865 88.770 C 180.862 88.501,180.610 88.281,180.306 88.281 C 180.002 88.281,179.664 88.501,179.556 88.770 C 179.398 89.160,179.352 89.160,179.328 88.770 C 179.291 88.194,178.125 88.099,178.125 88.672 M173.539 94.355 C 173.231 94.689,173.197 94.968,173.444 95.121 C 173.658 95.254,173.942 95.080,174.074 94.734 C 174.397 93.893,174.135 93.708,173.539 94.355 M225.848 113.166 C 228.819 116.110,231.250 118.694,231.250 118.909 C 231.250 119.124,230.511 118.604,229.608 117.755 C 228.705 116.906,228.177 116.491,228.433 116.833 C 228.690 117.175,228.813 117.570,228.708 117.712 C 228.602 117.853,228.639 117.875,228.790 117.760 C 228.941 117.645,231.533 119.974,234.551 122.935 C 239.380 127.674,239.500 127.769,235.553 123.730 C 233.086 121.206,231.190 119.141,231.339 119.141 C 231.875 119.141,240.427 128.223,240.299 128.657 C 240.228 128.902,240.305 128.966,240.470 128.801 C 240.872 128.399,243.785 131.269,243.478 131.764 C 243.346 131.978,243.422 132.039,243.645 131.901 C 243.869 131.762,244.273 131.915,244.542 132.240 C 244.951 132.732,244.925 132.789,244.391 132.584 C 244.039 132.449,243.750 132.520,243.750 132.742 C 243.750 132.964,244.058 133.232,244.434 133.337 C 244.810 133.443,240.723 133.500,235.352 133.464 C 225.453 133.398,222.439 132.940,223.250 131.628 C 223.375 131.425,223.238 131.351,222.945 131.464 C 222.247 131.731,220.929 130.270,221.311 129.652 C 221.512 129.327,221.442 129.277,221.088 129.496 C 220.709 129.730,220.639 129.636,220.828 129.145 C 220.969 128.777,220.928 128.572,220.737 128.690 C 219.718 129.320,218.790 109.074,219.792 108.073 C 220.241 107.623,220.328 107.696,225.848 113.166 M249.414 124.544 C 249.211 124.747,247.266 122.776,247.266 122.368 C 247.266 122.231,247.791 122.623,248.433 123.238 C 249.076 123.854,249.517 124.441,249.414 124.544 M220.028 125.000 C 220.028 125.967,220.104 126.362,220.198 125.879 C 220.291 125.396,220.291 124.604,220.198 124.121 C 220.104 123.638,220.028 124.033,220.028 125.000 M227.441 133.082 C 227.817 133.180,228.433 133.180,228.809 133.082 C 229.185 132.984,228.877 132.903,228.125 132.903 C 227.373 132.903,227.065 132.984,227.441 133.082 M271.966 163.672 C 271.966 164.424,272.046 164.731,272.144 164.355 C 272.243 163.979,272.243 163.364,272.144 162.988 C 272.046 162.612,271.966 162.920,271.966 163.672 M271.562 172.266 C 271.518 176.328,271.622 178.128,271.878 177.734 C 272.144 177.328,272.203 177.746,272.073 179.102 C 271.936 180.532,271.978 180.793,272.231 180.078 C 272.471 179.400,272.576 180.354,272.575 183.203 C 272.573 187.283,273.521 193.885,274.231 194.741 C 274.435 194.987,274.500 195.292,274.375 195.417 C 274.249 195.543,274.435 196.636,274.787 197.848 C 275.139 199.059,275.333 200.435,275.217 200.904 C 275.102 201.374,275.123 201.494,275.264 201.172 C 275.422 200.812,275.996 202.012,276.758 204.297 L 277.996 208.008 278.465 203.711 C 279.297 196.088,279.399 195.468,279.687 196.287 C 279.843 196.731,279.957 196.160,279.962 194.910 C 279.978 191.163,280.217 188.672,280.561 188.672 C 280.745 188.672,280.775 188.031,280.628 187.248 C 280.438 186.239,280.488 185.903,280.799 186.096 C 281.107 186.286,281.163 185.993,280.988 185.115 C 280.804 184.196,280.862 183.940,281.205 184.152 C 281.536 184.356,281.607 184.175,281.449 183.529 C 281.326 183.027,281.384 181.782,281.578 180.762 C 281.829 179.443,281.804 178.905,281.493 178.900 C 281.238 178.897,281.277 178.754,281.585 178.558 C 281.954 178.324,281.984 178.142,281.682 177.955 C 281.445 177.809,281.244 176.864,281.238 175.856 C 281.226 174.128,281.191 174.068,280.624 174.805 C 280.293 175.234,279.847 175.538,279.631 175.479 C 279.414 175.419,279.369 175.594,279.530 175.869 C 279.691 176.143,279.439 176.031,278.971 175.621 C 278.503 175.210,278.004 174.991,277.862 175.133 C 277.720 175.275,277.772 175.391,277.977 175.391 C 278.182 175.391,278.376 175.746,278.409 176.180 C 278.442 176.615,278.315 176.875,278.128 176.760 C 277.941 176.644,277.675 176.733,277.537 176.956 C 277.399 177.180,277.496 177.315,277.754 177.256 C 278.012 177.197,278.303 177.368,278.402 177.637 C 278.522 177.964,278.356 178.039,277.898 177.864 C 277.396 177.671,277.300 177.738,277.535 178.119 C 277.750 178.466,277.704 178.543,277.398 178.354 C 277.146 178.198,277.042 177.907,277.165 177.707 C 277.289 177.507,277.182 177.344,276.928 177.344 C 276.584 177.344,276.591 177.195,276.953 176.758 C 277.337 176.296,277.339 175.932,276.964 175.027 C 276.426 173.727,275.348 173.777,275.691 175.086 C 275.846 175.679,275.768 175.819,275.408 175.597 C 275.119 175.418,274.771 175.514,274.572 175.829 C 274.302 176.255,274.229 176.224,274.225 175.684 C 274.221 175.308,274.374 175.000,274.564 175.000 C 275.313 175.000,275.313 173.465,274.564 173.228 C 274.153 173.097,273.929 172.809,274.067 172.586 C 274.231 172.320,274.416 172.344,274.609 172.656 C 274.801 172.966,274.988 172.991,275.150 172.729 C 275.286 172.509,275.141 172.072,274.827 171.758 C 274.513 171.444,274.335 171.107,274.433 171.010 C 274.530 170.913,274.346 170.833,274.023 170.833 C 273.701 170.833,273.416 171.068,273.389 171.354 C 273.288 172.424,273.234 172.599,272.904 172.917 C 272.713 173.100,272.689 172.666,272.848 171.924 C 273.046 171.000,273.001 170.685,272.698 170.873 C 272.460 171.020,272.233 171.437,272.194 171.800 C 272.155 172.164,272.011 171.055,271.875 169.336 C 271.668 166.719,271.617 167.195,271.562 172.266 M272.144 176.465 C 272.046 176.841,271.966 176.533,271.966 175.781 C 271.966 175.029,272.046 174.722,272.144 175.098 C 272.243 175.474,272.243 176.089,272.144 176.465 M276.142 176.657 L 275.294 177.539 275.815 176.563 C 276.101 176.025,276.295 175.322,276.244 175.000 C 276.177 174.571,276.264 174.596,276.571 175.095 C 276.899 175.629,276.806 175.965,276.142 176.657 M90.234 184.593 C 90.234 190.992,90.102 194.105,89.837 193.941 C 89.619 193.806,89.548 193.522,89.679 193.310 C 90.056 192.701,89.521 191.125,88.850 190.868 C 88.451 190.715,88.337 190.790,88.520 191.086 C 88.709 191.391,88.581 191.455,88.130 191.282 C 87.732 191.129,87.556 191.181,87.698 191.411 C 88.098 192.057,87.210 191.841,86.476 191.113 C 85.903 190.545,85.826 190.535,86.021 191.051 C 86.408 192.074,85.736 192.831,84.991 192.212 C 84.652 191.931,84.362 191.767,84.345 191.847 C 84.329 191.927,84.254 192.316,84.179 192.712 C 83.846 194.471,83.589 193.625,83.535 190.592 C 83.487 187.891,83.431 187.618,83.223 189.063 C 82.846 191.672,82.817 256.218,83.194 255.078 L 83.516 254.102 83.600 255.078 C 83.660 255.771,83.736 255.856,83.863 255.371 C 83.961 254.995,84.215 254.688,84.427 254.688 C 84.638 254.688,84.703 254.863,84.570 255.078 C 84.438 255.293,84.473 255.469,84.649 255.469 C 84.824 255.469,85.194 255.107,85.470 254.665 L 85.972 253.862 86.723 254.763 C 87.336 255.499,87.476 255.543,87.487 255.005 C 87.495 254.604,87.788 254.367,88.235 254.401 C 89.005 254.459,89.080 254.879,88.496 255.859 C 88.282 256.218,88.476 256.156,88.995 255.701 L 89.844 254.957 89.920 257.068 C 89.962 258.230,90.104 254.697,90.236 249.219 C 90.544 236.385,90.715 175.000,90.442 175.000 C 90.328 175.000,90.234 179.317,90.234 184.593 M280.553 177.571 C 280.222 178.162,280.176 178.161,279.945 177.562 C 279.779 177.128,279.847 177.006,280.149 177.192 C 280.456 177.382,280.517 177.251,280.339 176.787 C 280.194 176.410,280.208 175.898,280.369 175.648 C 280.809 174.971,280.983 176.801,280.553 177.571 M302.176 180.829 C 301.430 181.654,301.710 181.907,302.684 181.289 C 302.979 181.102,303.150 180.740,303.065 180.484 C 302.965 180.183,302.650 180.305,302.176 180.829 M290.110 181.099 C 290.208 181.353,290.073 181.694,289.810 181.857 C 289.505 182.046,289.433 181.989,289.611 181.701 C 289.774 181.437,289.648 181.250,289.308 181.250 C 288.848 181.250,288.796 181.494,289.063 182.422 C 289.390 183.563,288.967 184.082,288.507 183.105 C 288.380 182.837,288.373 183.115,288.490 183.724 C 288.634 184.474,288.564 184.745,288.272 184.565 C 287.971 184.378,287.916 184.752,288.090 185.801 C 288.255 186.794,288.214 187.125,287.970 186.777 C 287.705 186.399,287.524 186.760,287.330 188.054 C 287.181 189.047,286.902 189.762,286.709 189.643 C 286.517 189.524,286.552 189.979,286.787 190.654 C 287.081 191.497,287.088 191.959,286.810 192.132 C 286.267 192.468,283.190 210.947,281.641 223.181 C 280.595 231.439,280.403 232.556,280.110 232.084 C 279.953 231.828,279.652 231.814,279.287 232.046 C 278.782 232.365,278.783 232.413,279.297 232.434 C 279.619 232.448,279.020 232.795,277.966 233.207 C 276.912 233.618,275.897 233.861,275.711 233.745 C 275.524 233.630,275.420 233.768,275.479 234.053 C 275.538 234.338,275.387 234.533,275.144 234.488 C 274.900 234.443,274.725 234.706,274.753 235.074 C 274.781 235.441,274.618 235.709,274.390 235.669 C 273.825 235.569,274.304 239.201,274.960 239.990 C 275.234 240.321,275.346 240.772,275.209 240.994 C 275.072 241.216,275.188 241.320,275.468 241.224 C 276.765 240.784,278.715 242.359,278.612 243.765 C 278.402 246.629,276.841 253.185,276.494 252.665 C 276.271 252.333,276.231 252.509,276.382 253.159 C 276.662 254.370,273.581 264.197,273.028 263.855 C 272.828 263.732,272.757 263.869,272.868 264.161 C 273.146 264.884,271.943 267.666,271.477 267.378 C 271.261 267.245,271.212 267.431,271.360 267.817 C 271.533 268.269,271.470 268.396,271.165 268.208 C 270.860 268.019,270.796 268.147,270.969 268.598 C 271.143 269.050,271.079 269.178,270.774 268.989 C 270.469 268.801,270.405 268.928,270.579 269.380 C 270.767 269.871,270.697 269.964,270.319 269.730 C 269.980 269.521,269.895 269.562,270.072 269.848 C 270.220 270.089,269.984 270.988,269.546 271.846 C 268.457 273.981,268.484 274.119,270.731 277.741 C 271.820 279.497,272.613 281.190,272.493 281.503 C 272.373 281.816,272.442 281.968,272.648 281.841 C 273.180 281.512,275.430 286.137,275.154 286.992 C 274.992 287.493,275.031 287.550,275.289 287.191 C 275.850 286.411,279.936 295.664,279.515 296.761 C 279.400 297.061,279.457 297.213,279.642 297.098 C 279.999 296.878,280.637 298.431,282.075 303.018 C 282.562 304.571,283.036 305.766,283.128 305.674 C 283.220 305.582,283.311 299.565,283.329 292.304 L 283.362 279.102 283.584 290.820 L 283.806 302.539 283.895 290.783 C 283.984 279.049,283.983 279.026,283.112 278.283 C 282.402 277.677,282.338 277.666,282.769 278.223 C 283.703 279.428,282.536 278.959,281.480 277.704 C 278.967 274.718,280.839 270.201,284.611 270.145 C 285.834 270.127,286.494 270.276,286.441 270.559 C 286.396 270.802,286.748 271.329,287.223 271.731 L 288.086 272.461 287.342 271.582 C 286.933 271.099,286.796 270.703,287.039 270.703 C 289.395 270.703,288.993 277.194,286.557 278.498 L 285.547 279.038 285.575 293.718 L 285.603 308.398 286.504 305.273 C 289.324 295.494,293.970 285.127,299.070 277.234 C 301.227 273.895,301.233 273.982,298.481 268.472 C 293.510 258.523,289.684 242.777,292.035 241.943 C 292.441 241.799,293.389 241.417,294.141 241.093 C 294.893 240.769,295.602 240.519,295.717 240.537 C 295.832 240.555,295.955 240.274,295.991 239.914 C 296.027 239.553,296.211 238.433,296.400 237.424 C 296.616 236.272,296.605 235.619,296.370 235.666 C 296.164 235.708,295.907 235.498,295.799 235.200 C 295.663 234.825,295.768 234.755,296.141 234.974 C 296.437 235.148,296.345 234.909,295.936 234.442 C 295.165 233.564,294.695 233.301,295.117 233.984 C 295.471 234.557,295.089 234.465,293.761 233.657 C 293.112 233.263,292.712 232.795,292.872 232.618 C 293.033 232.441,292.934 232.429,292.654 232.591 C 292.373 232.753,291.707 232.777,291.173 232.643 L 290.204 232.399 290.450 227.821 C 291.131 215.176,292.399 208.549,294.072 208.896 C 294.357 208.955,294.483 208.832,294.354 208.623 C 294.065 208.155,295.480 207.341,295.910 207.729 C 296.080 207.882,296.109 207.814,295.973 207.577 C 295.671 207.046,299.061 204.544,299.618 204.888 C 299.839 205.025,299.971 204.903,299.912 204.619 C 299.853 204.333,300.108 204.125,300.484 204.155 C 300.858 204.185,301.079 204.073,300.977 203.906 C 300.676 203.421,301.870 202.639,302.424 202.959 C 302.702 203.119,302.803 203.110,302.648 202.939 C 302.060 202.288,303.924 200.311,304.605 200.863 C 305.008 201.189,305.130 201.204,304.951 200.906 C 304.799 200.652,304.856 200.332,305.078 200.195 C 305.300 200.058,305.364 199.755,305.219 199.522 C 305.075 199.289,305.130 199.205,305.342 199.336 C 305.553 199.466,306.383 198.712,307.185 197.660 C 308.128 196.424,308.846 195.825,309.215 195.966 C 309.681 196.145,309.695 196.302,309.294 196.823 C 308.957 197.261,309.073 197.230,309.665 196.725 C 310.140 196.320,310.442 195.849,310.336 195.678 C 310.230 195.507,310.325 195.254,310.547 195.117 C 310.769 194.980,310.858 194.719,310.746 194.537 C 310.475 194.099,312.478 191.737,312.899 191.998 C 313.080 192.109,313.339 192.019,313.477 191.797 C 313.614 191.575,313.853 191.472,314.008 191.568 C 314.164 191.664,314.317 191.403,314.348 190.989 C 314.379 190.574,314.196 190.214,313.941 190.189 C 313.685 190.165,313.228 190.121,312.924 190.092 C 312.620 190.063,312.290 189.795,312.190 189.496 C 312.066 189.127,312.180 189.052,312.547 189.261 C 312.968 189.501,312.985 189.459,312.625 189.069 C 311.964 188.354,310.286 188.239,310.286 188.909 C 310.286 189.208,310.462 189.453,310.677 189.453 C 311.719 189.453,310.350 190.001,309.075 190.094 C 307.961 190.175,307.775 190.110,308.285 189.817 C 308.652 189.605,308.859 189.191,308.746 188.896 C 308.633 188.602,308.728 188.244,308.958 188.102 C 309.187 187.961,309.370 187.635,309.363 187.379 C 309.357 187.123,309.160 187.243,308.927 187.645 C 308.580 188.242,308.433 188.278,308.121 187.840 C 307.827 187.428,307.790 187.462,307.959 187.988 C 308.081 188.367,307.981 188.672,307.735 188.672 C 307.491 188.672,307.400 188.781,307.533 188.914 C 307.666 189.047,307.533 189.398,307.236 189.695 C 306.518 190.412,306.026 190.389,306.626 189.666 C 306.886 189.353,306.968 188.886,306.809 188.629 C 306.611 188.308,306.693 188.260,307.069 188.476 C 307.370 188.650,307.266 188.443,306.836 188.016 C 306.406 187.589,305.658 187.283,305.174 187.336 C 304.689 187.389,304.392 187.271,304.513 187.075 C 304.634 186.879,304.547 186.719,304.320 186.719 C 304.092 186.719,303.906 186.445,303.906 186.110 C 303.906 185.749,304.090 185.614,304.357 185.779 C 304.624 185.944,304.703 185.887,304.550 185.641 C 304.408 185.411,304.513 185.134,304.783 185.025 C 305.176 184.867,305.175 184.821,304.781 184.796 C 304.511 184.780,304.001 185.102,303.650 185.513 C 303.298 185.923,302.772 186.168,302.482 186.057 C 302.191 185.945,301.953 186.069,301.953 186.332 C 301.953 186.617,302.267 186.728,302.734 186.606 C 303.163 186.493,303.613 186.561,303.734 186.755 C 303.854 186.950,303.756 187.109,303.516 187.109 C 303.275 187.109,303.169 187.256,303.280 187.435 C 303.391 187.614,303.225 187.760,302.913 187.760 C 302.600 187.760,302.344 187.630,302.344 187.471 C 302.344 187.313,301.948 187.284,301.465 187.409 C 300.682 187.611,300.644 187.564,301.122 186.982 C 301.500 186.521,301.522 186.328,301.197 186.328 C 300.943 186.328,300.834 186.168,300.955 185.972 C 301.245 185.503,300.424 185.654,299.284 186.280 C 298.518 186.701,298.264 186.683,297.690 186.163 C 297.314 185.823,296.931 185.621,296.839 185.713 C 296.747 185.805,296.470 185.454,296.224 184.933 C 295.912 184.271,295.902 183.908,296.191 183.729 C 296.419 183.588,296.513 183.632,296.400 183.826 C 296.287 184.021,296.584 184.587,297.060 185.084 L 297.927 185.988 297.961 184.792 C 297.988 183.833,297.804 183.548,297.035 183.355 C 296.507 183.222,295.860 182.826,295.596 182.475 C 295.080 181.787,293.924 181.365,294.323 182.010 C 294.455 182.224,294.109 182.513,293.555 182.652 C 292.465 182.926,290.849 181.858,291.153 181.065 C 291.243 180.829,291.006 180.636,290.625 180.636 C 290.244 180.636,290.012 180.844,290.110 181.099 M291.945 181.036 C 291.621 181.882,292.085 182.375,292.985 182.140 C 293.785 181.931,293.689 181.461,292.839 181.428 C 292.588 181.418,292.427 181.198,292.480 180.939 C 292.618 180.278,292.208 180.352,291.945 181.036 M295.652 182.946 C 295.988 183.351,295.820 183.708,294.919 184.512 C 294.077 185.261,293.750 185.388,293.750 184.964 C 293.750 184.640,294.025 184.375,294.360 184.375 C 294.708 184.375,294.941 184.081,294.901 183.691 C 294.761 182.306,294.958 182.110,295.652 182.946 M300.987 183.577 C 300.860 183.782,300.521 183.860,300.234 183.750 C 299.931 183.634,299.624 183.887,299.502 184.354 L 299.292 185.158 300.427 184.349 C 301.052 183.904,301.563 183.465,301.563 183.372 C 301.563 183.072,301.225 183.193,300.987 183.577 M314.063 188.051 C 314.063 188.757,315.339 188.588,315.536 187.856 C 315.652 187.425,315.594 187.433,315.270 187.891 C 314.989 188.288,314.854 188.319,314.850 187.988 C 314.846 187.720,314.668 187.500,314.453 187.500 C 314.238 187.500,314.063 187.748,314.063 188.051 M311.893 189.705 C 312.036 190.273,312.005 190.886,311.824 191.067 C 311.643 191.247,311.483 191.090,311.468 190.717 C 311.453 190.344,311.309 189.731,311.147 189.355 C 310.980 188.965,311.021 188.672,311.244 188.672 C 311.459 188.672,311.751 189.137,311.893 189.705 M313.647 191.241 C 313.152 191.837,312.496 191.638,312.506 190.895 C 312.510 190.615,312.663 190.664,312.891 191.016 C 313.212 191.512,313.270 191.494,313.275 190.895 C 313.279 190.502,313.463 190.301,313.691 190.441 C 313.971 190.615,313.957 190.867,313.647 191.241 M84.406 190.870 C 84.389 191.112,84.639 191.529,84.961 191.797 C 85.442 192.196,85.547 192.166,85.547 191.626 C 85.547 191.265,85.386 191.069,85.190 191.190 C 84.993 191.312,84.743 191.190,84.635 190.920 C 84.511 190.615,84.425 190.596,84.406 190.870 M88.580 192.356 C 88.207 192.628,88.032 192.989,88.190 193.158 C 88.347 193.327,88.091 193.265,87.619 193.020 C 86.626 192.503,86.093 191.797,86.696 191.797 C 86.923 191.797,87.109 191.994,87.109 192.235 C 87.109 192.514,87.429 192.458,87.988 192.083 C 89.026 191.385,89.566 191.634,88.580 192.356 M91.141 195.703 C 91.141 197.100,91.212 197.671,91.298 196.973 C 91.385 196.274,91.385 195.132,91.298 194.434 C 91.212 193.735,91.141 194.307,91.141 195.703 M310.137 195.140 C 309.937 195.382,309.903 195.724,310.062 195.899 C 310.221 196.075,310.117 196.083,309.829 195.917 C 309.478 195.714,309.436 195.486,309.701 195.221 C 309.918 195.004,310.004 194.540,309.894 194.191 C 309.723 193.653,309.755 193.644,310.097 194.128 C 310.350 194.486,310.365 194.865,310.137 195.140 M90.119 196.973 C 90.026 197.456,89.950 197.061,89.950 196.094 C 89.950 195.127,90.026 194.731,90.119 195.215 C 90.213 195.698,90.213 196.489,90.119 196.973 M307.392 197.937 C 306.871 198.522,306.725 198.787,307.067 198.527 C 307.409 198.267,307.805 198.140,307.946 198.246 C 308.087 198.351,308.117 198.322,308.011 198.180 C 307.906 198.039,308.015 197.688,308.254 197.399 C 309.069 196.417,308.343 196.871,307.392 197.937 M91.152 203.906 C 91.152 205.732,91.219 206.479,91.302 205.566 C 91.384 204.653,91.384 203.159,91.302 202.246 C 91.219 201.333,91.152 202.080,91.152 203.906 M91.160 213.281 C 91.160 215.537,91.225 216.460,91.304 215.332 C 91.383 214.204,91.383 212.358,91.304 211.230 C 91.225 210.103,91.160 211.025,91.160 213.281 M91.154 220.898 C 91.153 222.832,91.219 223.672,91.301 222.766 C 91.383 221.859,91.384 220.277,91.303 219.250 C 91.222 218.223,91.155 218.965,91.154 220.898 M291.106 225.000 C 291.106 225.752,291.187 226.060,291.285 225.684 C 291.383 225.308,291.383 224.692,291.285 224.316 C 291.187 223.940,291.106 224.248,291.106 225.000 M91.171 230.078 C 91.171 233.193,91.232 234.468,91.306 232.910 C 91.380 231.353,91.380 228.804,91.306 227.246 C 91.232 225.688,91.171 226.963,91.171 230.078 M122.182 226.482 C 119.609 226.796,118.242 230.724,119.979 232.813 L 120.791 233.789 160.884 233.984 C 205.257 234.201,203.092 234.313,204.169 231.735 C 204.863 230.074,204.300 228.010,202.903 227.095 C 202.047 226.534,126.463 225.961,122.182 226.482 M290.758 231.025 C 290.793 231.669,291.076 232.235,291.406 232.324 C 291.798 232.429,291.843 232.374,291.543 232.159 C 291.296 231.981,291.005 231.396,290.895 230.859 C 290.724 230.018,290.705 230.041,290.758 231.025 M91.106 237.109 C 91.106 237.861,91.187 238.169,91.285 237.793 C 91.383 237.417,91.383 236.802,91.285 236.426 C 91.187 236.050,91.106 236.357,91.106 237.109 M91.106 240.234 C 91.106 240.986,91.187 241.294,91.285 240.918 C 91.383 240.542,91.383 239.927,91.285 239.551 C 91.187 239.175,91.106 239.482,91.106 240.234 M91.133 245.313 C 91.133 246.494,91.206 246.978,91.295 246.387 C 91.385 245.796,91.385 244.829,91.295 244.238 C 91.206 243.647,91.133 244.131,91.133 245.313 M144.043 253.027 C 155.913 253.085,175.337 253.085,187.207 253.027 C 199.077 252.970,189.365 252.923,165.625 252.923 C 141.885 252.923,132.173 252.970,144.043 253.027 M210.840 253.022 C 211.968 253.101,213.813 253.101,214.941 253.022 C 216.069 252.943,215.146 252.879,212.891 252.879 C 210.635 252.879,209.712 252.943,210.840 253.022 M120.529 253.862 C 120.612 253.945,120.334 254.500,119.910 255.094 C 118.746 256.729,118.898 258.802,120.282 260.186 L 121.424 261.328 171.474 261.328 C 214.591 261.328,221.676 261.249,222.626 260.758 C 223.233 260.444,223.867 260.312,224.037 260.465 C 224.206 260.617,224.227 260.537,224.083 260.287 C 223.940 260.036,224.005 259.352,224.228 258.766 C 224.715 257.483,224.170 255.509,223.049 254.494 C 222.358 253.869,119.905 253.237,120.529 253.862 M285.009 278.726 C 284.875 279.075,284.804 284.488,284.852 290.755 L 284.938 302.148 285.145 290.234 C 285.367 277.432,285.371 277.783,285.009 278.726 M157.719 301.839 C 158.205 301.932,158.908 301.929,159.282 301.831 C 159.655 301.733,159.258 301.657,158.398 301.661 C 157.539 301.665,157.233 301.745,157.719 301.839 M172.369 301.843 C 172.962 301.933,173.841 301.930,174.322 301.837 C 174.802 301.745,174.316 301.671,173.242 301.674 C 172.168 301.677,171.775 301.753,172.369 301.843 M177.641 301.839 C 178.127 301.932,178.830 301.929,179.204 301.831 C 179.577 301.733,179.180 301.657,178.320 301.661 C 177.461 301.665,177.155 301.745,177.641 301.839 M182.324 301.845 C 183.022 301.932,184.165 301.932,184.863 301.845 C 185.562 301.758,184.990 301.688,183.594 301.688 C 182.197 301.688,181.626 301.758,182.324 301.845 M187.212 301.843 C 187.806 301.933,188.685 301.930,189.166 301.837 C 189.646 301.745,189.160 301.671,188.086 301.674 C 187.012 301.677,186.619 301.753,187.212 301.843 M193.066 301.832 C 193.442 301.930,194.058 301.930,194.434 301.832 C 194.810 301.734,194.502 301.653,193.750 301.653 C 192.998 301.653,192.690 301.734,193.066 301.832 M200.684 301.838 C 201.167 301.931,201.958 301.931,202.441 301.838 C 202.925 301.745,202.529 301.669,201.563 301.669 C 200.596 301.669,200.200 301.745,200.684 301.838 M209.473 301.832 C 209.849 301.930,210.464 301.930,210.840 301.832 C 211.216 301.734,210.908 301.653,210.156 301.653 C 209.404 301.653,209.097 301.734,209.473 301.832 M212.207 301.832 C 212.583 301.930,213.198 301.930,213.574 301.832 C 213.950 301.734,213.643 301.653,212.891 301.653 C 212.139 301.653,211.831 301.734,212.207 301.832 M215.337 301.843 C 215.931 301.933,216.810 301.930,217.291 301.837 C 217.771 301.745,217.285 301.671,216.211 301.674 C 215.137 301.677,214.744 301.753,215.337 301.843 M221.394 301.846 C 222.096 301.933,223.150 301.931,223.737 301.842 C 224.324 301.752,223.750 301.681,222.461 301.684 C 221.172 301.686,220.692 301.759,221.394 301.846 M238.188 301.839 C 238.674 301.932,239.377 301.929,239.751 301.831 C 240.124 301.733,239.727 301.657,238.867 301.661 C 238.008 301.665,237.702 301.745,238.188 301.839 M242.097 301.846 C 242.799 301.933,243.854 301.931,244.441 301.842 C 245.028 301.752,244.453 301.681,243.164 301.684 C 241.875 301.686,241.395 301.759,242.097 301.846 M134.673 303.011 C 135.158 303.104,135.862 303.101,136.235 303.003 C 136.608 302.905,136.211 302.829,135.352 302.833 C 134.492 302.837,134.187 302.917,134.673 303.011 M140.889 303.809 C 140.722 304.092,141.253 305.859,141.505 305.859 C 141.574 305.859,141.629 305.508,141.629 305.078 C 141.629 304.648,141.481 304.297,141.299 304.297 C 141.118 304.297,141.078 304.121,141.211 303.906 C 141.344 303.691,141.364 303.516,141.257 303.516 C 141.150 303.516,140.984 303.647,140.889 303.809 " stroke="none" fill="#049ee2" fill-rule="evenodd"></path><path id="path2" d="M147.563 226.448 C 148.049 226.542,148.752 226.538,149.126 226.440 C 149.499 226.342,149.102 226.266,148.242 226.270 C 147.383 226.275,147.077 226.355,147.563 226.448 M150.488 226.441 C 150.864 226.539,151.479 226.539,151.855 226.441 C 152.231 226.343,151.924 226.263,151.172 226.263 C 150.420 226.263,150.112 226.343,150.488 226.441 M154.004 226.452 C 154.595 226.541,155.562 226.541,156.152 226.452 C 156.743 226.362,156.260 226.289,155.078 226.289 C 153.896 226.289,153.413 226.362,154.004 226.452 M158.503 226.455 C 159.205 226.542,160.260 226.540,160.847 226.451 C 161.434 226.362,160.859 226.291,159.570 226.293 C 158.281 226.295,157.801 226.368,158.503 226.455 M173.730 226.461 C 175.073 226.537,177.271 226.537,178.613 226.461 C 179.956 226.385,178.857 226.322,176.172 226.322 C 173.486 226.322,172.388 226.385,173.730 226.461 M185.449 226.458 C 186.362 226.540,187.856 226.540,188.770 226.458 C 189.683 226.376,188.936 226.308,187.109 226.308 C 185.283 226.308,184.536 226.376,185.449 226.458 M195.222 226.455 C 195.924 226.542,196.979 226.540,197.566 226.451 C 198.153 226.362,197.578 226.291,196.289 226.293 C 195.000 226.295,194.520 226.368,195.222 226.455 M126.079 234.261 C 126.565 234.354,127.268 234.351,127.641 234.253 C 128.015 234.155,127.617 234.079,126.758 234.083 C 125.898 234.087,125.593 234.167,126.079 234.261 M194.829 234.261 C 195.315 234.354,196.018 234.351,196.391 234.253 C 196.765 234.155,196.367 234.079,195.508 234.083 C 194.648 234.087,194.343 234.167,194.829 234.261 M90.252 250.000 C 90.163 255.049,90.025 258.238,89.945 257.088 L 89.800 254.997 88.974 255.721 C 88.444 256.185,88.273 256.235,88.496 255.859 C 89.080 254.879,89.005 254.459,88.235 254.401 C 87.788 254.367,87.495 254.604,87.487 255.005 C 87.476 255.543,87.336 255.499,86.723 254.763 L 85.972 253.862 85.470 254.665 C 85.194 255.107,84.824 255.469,84.649 255.469 C 84.473 255.469,84.438 255.293,84.570 255.078 C 84.703 254.863,84.638 254.688,84.427 254.688 C 84.215 254.688,83.961 254.995,83.863 255.371 C 83.737 255.853,83.661 255.767,83.605 255.078 C 83.527 254.109,83.524 254.110,83.195 255.206 C 82.708 256.828,82.708 293.893,83.195 296.449 C 84.097 301.184,88.170 306.555,92.538 308.769 C 96.738 310.897,97.320 310.931,128.320 310.843 C 145.972 310.793,153.116 310.681,147.070 310.547 C 141.699 310.428,138.052 310.292,138.965 310.244 C 139.878 310.196,140.625 309.980,140.625 309.766 C 140.625 309.551,141.196 309.372,141.895 309.369 C 142.593 309.366,143.428 309.193,143.750 308.984 C 144.141 308.732,144.173 308.604,143.848 308.600 C 143.579 308.596,143.359 308.408,143.359 308.180 C 143.359 307.953,143.535 307.875,143.750 308.008 C 143.965 308.141,144.141 308.043,144.141 307.790 C 144.141 307.529,143.816 307.416,143.389 307.527 C 142.830 307.674,142.696 307.569,142.869 307.118 C 142.998 306.782,142.935 306.615,142.727 306.744 C 142.522 306.871,142.316 306.530,142.271 305.985 C 142.212 305.273,142.344 305.055,142.742 305.207 C 143.046 305.324,143.385 305.184,143.495 304.897 C 143.621 304.570,143.449 304.411,143.039 304.472 C 142.678 304.526,142.153 304.245,141.872 303.848 C 141.505 303.328,140.792 303.100,139.333 303.035 C 138.218 302.986,143.018 302.851,150.000 302.734 C 158.910 302.586,153.319 302.494,131.250 302.428 C 100.805 302.336,97.815 302.254,98.267 301.523 C 98.383 301.335,98.221 301.279,97.907 301.400 C 96.862 301.801,93.070 299.222,93.554 298.439 C 93.694 298.213,93.588 298.076,93.320 298.135 C 93.052 298.194,92.379 297.451,91.826 296.484 L 90.820 294.727 90.617 267.773 C 90.500 252.259,90.345 244.716,90.252 250.000 M91.106 254.297 C 91.106 255.049,91.187 255.356,91.285 254.980 C 91.383 254.604,91.383 253.989,91.285 253.613 C 91.187 253.237,91.106 253.545,91.106 254.297 M136.843 253.808 C 141.961 253.870,150.222 253.870,155.203 253.808 C 160.183 253.746,155.996 253.696,145.898 253.696 C 135.801 253.696,131.726 253.747,136.843 253.808 M169.848 253.808 C 172.922 253.874,177.844 253.874,180.785 253.807 C 183.726 253.741,181.211 253.687,175.195 253.687 C 169.180 253.688,166.773 253.742,169.848 253.808 M188.379 253.804 C 189.614 253.882,191.636 253.882,192.871 253.804 C 194.106 253.727,193.096 253.663,190.625 253.663 C 188.154 253.663,187.144 253.727,188.379 253.804 M198.730 253.807 C 200.718 253.878,203.970 253.878,205.957 253.807 C 207.944 253.736,206.318 253.678,202.344 253.678 C 198.369 253.678,196.743 253.736,198.730 253.807 M91.160 263.281 C 91.160 265.537,91.225 266.460,91.304 265.332 C 91.383 264.204,91.383 262.358,91.304 261.230 C 91.225 260.103,91.160 261.025,91.160 263.281 M165.723 261.597 C 166.099 261.696,166.714 261.696,167.090 261.597 C 167.466 261.499,167.158 261.419,166.406 261.419 C 165.654 261.419,165.347 261.499,165.723 261.597 M91.144 270.117 C 91.146 271.621,91.216 272.188,91.301 271.378 C 91.385 270.568,91.384 269.337,91.298 268.644 C 91.211 267.950,91.142 268.613,91.144 270.117 M91.185 282.813 C 91.185 288.291,91.240 290.532,91.308 287.793 C 91.375 285.054,91.375 280.571,91.308 277.832 C 91.240 275.093,91.185 277.334,91.185 282.813 M100.103 301.843 C 100.697 301.933,101.576 301.930,102.056 301.837 C 102.537 301.745,102.051 301.671,100.977 301.674 C 99.902 301.677,99.509 301.753,100.103 301.843 M108.306 301.843 C 108.900 301.933,109.779 301.930,110.259 301.837 C 110.740 301.745,110.254 301.671,109.180 301.674 C 108.105 301.677,107.712 301.753,108.306 301.843 M122.754 301.832 C 123.130 301.930,123.745 301.930,124.121 301.832 C 124.497 301.734,124.189 301.653,123.438 301.653 C 122.686 301.653,122.378 301.734,122.754 301.832 M166.877 302.633 C 168.318 302.708,170.779 302.708,172.346 302.634 C 173.913 302.560,172.734 302.498,169.727 302.498 C 166.719 302.497,165.437 302.558,166.877 302.633 M191.309 302.619 C 191.792 302.713,192.583 302.713,193.066 302.619 C 193.550 302.526,193.154 302.450,192.188 302.450 C 191.221 302.450,190.825 302.526,191.309 302.619 M203.613 302.613 C 203.989 302.711,204.604 302.711,204.980 302.613 C 205.356 302.515,205.049 302.434,204.297 302.434 C 203.545 302.434,203.237 302.515,203.613 302.613 M136.235 303.003 C 135.862 303.101,135.158 303.104,134.673 303.011 C 134.187 302.917,134.492 302.837,135.352 302.833 C 136.211 302.829,136.608 302.905,136.235 303.003 M141.211 303.906 C 141.078 304.121,141.118 304.297,141.299 304.297 C 141.481 304.297,141.629 304.648,141.629 305.078 C 141.629 306.095,141.459 306.066,141.049 304.980 C 140.735 304.149,140.825 303.516,141.257 303.516 C 141.364 303.516,141.344 303.691,141.211 303.906 " stroke="none" fill="#776ee4" fill-rule="evenodd"></path><path id="path3" d="M231.934 133.494 C 234.136 133.564,237.739 133.564,239.941 133.494 C 242.144 133.425,240.342 133.368,235.938 133.368 C 231.533 133.368,229.731 133.425,231.934 133.494 M214.844 137.305 C 215.573 138.057,216.257 138.672,216.364 138.672 C 216.472 138.672,215.963 138.057,215.234 137.305 C 214.506 136.553,213.821 135.938,213.714 135.938 C 213.607 135.938,214.115 136.553,214.844 137.305 M229.199 142.479 C 231.616 142.548,235.571 142.548,237.988 142.479 C 240.405 142.411,238.428 142.354,233.594 142.354 C 228.760 142.354,226.782 142.411,229.199 142.479 M243.848 142.472 C 244.653 142.556,245.972 142.556,246.777 142.472 C 247.583 142.388,246.924 142.319,245.313 142.319 C 243.701 142.319,243.042 142.388,243.848 142.472 M253.997 221.875 C 253.997 222.627,254.077 222.935,254.176 222.559 C 254.274 222.183,254.274 221.567,254.176 221.191 C 254.077 220.815,253.997 221.123,253.997 221.875 M254.013 225.781 C 254.013 226.748,254.089 227.144,254.182 226.660 C 254.275 226.177,254.275 225.386,254.182 224.902 C 254.089 224.419,254.013 224.814,254.013 225.781 M141.729 226.074 C 152.756 226.132,170.686 226.132,181.573 226.074 C 192.460 226.016,183.438 225.969,161.523 225.969 C 139.609 225.969,130.702 226.016,141.729 226.074 M254.005 231.445 C 254.009 232.305,254.089 232.610,254.183 232.124 C 254.276 231.638,254.272 230.935,254.175 230.562 C 254.077 230.188,254.000 230.586,254.005 231.445 M118.762 231.521 C 118.755 231.778,119.146 232.402,119.629 232.908 C 120.112 233.413,120.313 233.555,120.074 233.222 C 119.836 232.889,119.446 232.266,119.207 231.836 C 118.969 231.406,118.768 231.265,118.762 231.521 M202.774 233.432 C 202.044 233.951,201.639 234.375,201.874 234.375 C 202.108 234.375,202.793 233.941,203.396 233.411 C 204.777 232.196,204.500 232.206,202.774 233.432 M141.729 234.668 C 152.756 234.726,170.686 234.726,181.573 234.668 C 192.460 234.610,183.438 234.563,161.523 234.563 C 139.609 234.563,130.702 234.610,141.729 234.668 M254.005 237.305 C 254.009 238.164,254.089 238.470,254.183 237.984 C 254.276 237.498,254.272 236.795,254.175 236.421 C 254.077 236.048,254.000 236.445,254.005 237.305 M254.005 240.820 C 254.009 241.680,254.089 241.985,254.183 241.499 C 254.276 241.013,254.272 240.310,254.175 239.937 C 254.077 239.563,254.000 239.961,254.005 240.820 M254.063 248.438 C 254.063 251.768,254.123 253.130,254.197 251.465 C 254.270 249.800,254.270 247.075,254.197 245.410 C 254.123 243.745,254.063 245.107,254.063 248.438 M82.667 271.680 C 82.747 297.651,82.796 300.056,83.236 299.784 C 83.362 299.706,83.767 300.275,84.135 301.048 C 86.113 305.195,90.492 308.923,95.280 310.536 L 97.767 311.374 171.809 311.342 C 212.532 311.325,245.935 311.227,246.037 311.124 C 246.140 311.022,213.280 310.934,173.014 310.931 C 93.825 310.923,96.950 311.004,92.705 308.853 C 88.882 306.916,85.392 302.935,83.574 298.438 C 83.125 297.327,82.980 292.228,82.803 271.289 L 82.585 245.508 82.667 271.680 M90.802 272.852 C 90.823 297.560,90.643 296.079,94.009 299.348 C 97.376 302.618,90.311 302.356,172.183 302.249 L 244.727 302.154 171.680 301.956 L 98.633 301.758 96.606 300.689 C 94.577 299.619,93.306 298.261,91.941 295.703 C 91.261 294.430,91.196 292.839,90.997 272.656 L 90.783 250.977 90.802 272.852 M146.612 253.418 C 160.540 253.475,183.216 253.475,197.003 253.418 C 210.790 253.361,199.395 253.314,171.680 253.314 C 143.965 253.315,132.685 253.361,146.612 253.418 M223.145 254.488 C 223.735 255.086,224.219 255.756,224.219 255.978 C 224.219 256.199,224.321 256.278,224.446 256.153 C 224.817 255.782,223.877 254.350,222.940 253.858 C 222.196 253.467,222.225 253.558,223.145 254.488 M254.055 259.180 C 254.056 261.758,254.119 262.762,254.196 261.410 C 254.272 260.059,254.272 257.950,254.194 256.723 C 254.117 255.496,254.055 256.602,254.055 259.180 M224.663 257.292 C 224.633 257.758,224.508 258.461,224.385 258.855 C 224.172 259.532,224.184 259.533,224.606 258.875 C 224.851 258.493,224.976 257.790,224.884 257.313 C 224.716 256.446,224.716 256.446,224.663 257.292 M118.803 258.466 C 118.751 259.299,120.778 261.719,121.528 261.719 C 121.734 261.719,121.292 261.183,120.546 260.528 C 119.800 259.873,119.115 258.950,119.023 258.477 L 118.856 257.617 118.803 258.466 M296.159 263.301 C 296.388 263.957,296.647 264.421,296.736 264.332 C 296.929 264.138,296.192 262.109,295.928 262.109 C 295.827 262.109,295.931 262.646,296.159 263.301 M254.054 268.359 C 254.054 270.830,254.117 271.841,254.195 270.605 C 254.272 269.370,254.272 267.349,254.195 266.113 C 254.117 264.878,254.054 265.889,254.054 268.359 M296.875 264.990 C 296.875 265.411,298.427 268.359,298.649 268.359 C 298.756 268.359,298.467 267.612,298.007 266.699 C 297.101 264.904,296.875 264.562,296.875 264.990 M271.359 267.401 C 270.441 269.325,270.571 269.653,271.530 267.834 C 271.966 267.008,272.253 266.263,272.169 266.179 C 272.084 266.095,271.720 266.644,271.359 267.401 M254.076 283.398 C 254.077 288.984,254.132 291.215,254.198 288.356 C 254.265 285.496,254.265 280.926,254.198 278.200 C 254.131 275.473,254.076 277.813,254.076 283.398 M285.330 291.211 C 285.330 297.871,285.383 300.651,285.448 297.388 C 285.514 294.125,285.514 288.675,285.449 285.278 C 285.384 281.881,285.330 284.551,285.330 291.211 M283.372 290.625 C 283.372 295.889,283.427 298.042,283.495 295.410 C 283.563 292.778,283.563 288.472,283.495 285.840 C 283.427 283.208,283.372 285.361,283.372 290.625 M248.633 300.616 C 247.773 301.130,247.196 301.553,247.350 301.556 C 247.906 301.569,250.391 300.238,250.391 299.928 C 250.391 299.540,250.521 299.488,248.633 300.616 M285.255 304.883 C 285.259 305.742,285.339 306.048,285.433 305.562 C 285.526 305.076,285.522 304.373,285.425 303.999 C 285.327 303.626,285.250 304.023,285.255 304.883 M257.031 305.579 C 256.064 306.489,254.834 307.547,254.297 307.930 C 253.355 308.603,253.366 308.603,254.593 307.939 C 255.702 307.339,259.451 303.891,258.968 303.915 C 258.870 303.920,257.998 304.669,257.031 305.579 M283.594 309.766 C 283.824 310.195,283.874 310.552,283.705 310.559 C 283.309 310.575,284.813 311.719,285.231 311.719 C 285.405 311.719,285.536 311.147,285.522 310.449 C 285.498 309.205,285.490 309.199,285.102 310.156 L 284.707 311.133 284.138 310.059 C 283.825 309.468,283.480 308.984,283.372 308.984 C 283.264 308.984,283.364 309.336,283.594 309.766 " stroke="none" fill="#0f569b" fill-rule="evenodd"></path><path id="path4" d="M349.554 57.366 C 351.171 58.984,351.759 63.186,351.746 73.047 C 351.736 80.614,351.792 81.575,352.061 78.516 C 352.974 68.159,351.433 56.694,349.121 56.647 C 348.960 56.643,349.155 56.967,349.554 57.366 M344.113 60.587 C 343.376 61.253,341.982 62.439,341.016 63.223 C 340.049 64.007,339.082 64.846,338.867 65.088 C 338.478 65.525,336.161 67.575,331.858 71.289 C 330.613 72.363,329.220 73.611,328.762 74.062 C 328.304 74.513,326.699 75.992,325.195 77.349 C 306.296 94.402,291.445 111.843,283.076 126.815 C 280.935 130.646,277.090 138.595,276.774 139.844 C 276.593 140.561,275.637 143.234,275.448 143.555 C 275.321 143.770,275.179 144.121,275.133 144.336 C 275.086 144.551,274.517 146.780,273.869 149.290 C 272.704 153.803,271.763 159.758,271.259 165.820 C 270.821 171.080,271.383 168.908,272.061 162.718 C 275.541 130.967,292.610 105.914,337.282 66.992 C 344.734 60.499,345.948 59.399,345.676 59.386 C 345.553 59.380,344.850 59.920,344.113 60.587 M350.840 85.801 C 350.573 87.647,350.431 89.233,350.524 89.326 C 350.618 89.420,350.918 87.991,351.191 86.152 C 351.465 84.313,351.607 82.727,351.507 82.627 C 351.407 82.527,351.107 83.955,350.840 85.801 M155.078 88.276 L 211.133 88.477 213.440 89.557 C 215.057 90.315,216.875 91.746,219.518 94.342 C 222.995 97.759,225.593 99.710,222.726 96.752 C 222.036 96.039,221.606 95.308,221.770 95.127 C 221.935 94.945,221.881 94.904,221.650 95.036 C 221.418 95.167,220.117 94.153,218.757 92.781 C 217.151 91.160,215.452 89.901,213.905 89.186 L 211.523 88.086 155.273 88.081 L 99.023 88.075 155.078 88.276 M94.727 89.025 C 89.623 90.824,85.006 95.692,83.236 101.139 C 82.422 103.644,82.422 103.658,82.516 172.232 L 82.610 240.820 82.809 171.680 L 83.008 102.539 83.911 100.303 C 86.025 95.070,90.025 91.177,95.276 89.244 C 96.048 88.960,96.416 88.732,96.094 88.738 C 95.771 88.745,95.156 88.874,94.727 89.025 M349.463 92.480 C 346.682 104.705,340.784 114.795,330.480 124.952 C 328.218 127.181,327.246 128.298,328.320 127.432 C 330.626 125.575,335.527 120.534,337.712 117.773 C 338.562 116.699,339.390 115.762,339.551 115.690 C 339.712 115.618,339.844 115.332,339.844 115.054 C 339.844 114.776,340.102 114.335,340.417 114.073 C 341.812 112.916,346.157 104.230,347.904 99.107 C 349.285 95.060,350.517 90.231,350.241 89.954 C 350.150 89.863,349.800 91.000,349.463 92.480 M325.341 98.340 C 321.833 101.972,317.799 106.731,313.014 112.882 C 303.014 125.735,293.178 144.235,287.879 160.156 C 284.775 169.481,279.377 191.834,280.804 189.453 C 280.997 189.131,281.362 187.637,281.615 186.133 C 283.684 173.826,289.197 156.302,295.009 143.555 C 299.791 133.068,311.015 114.753,312.207 115.490 C 312.456 115.644,312.505 115.558,312.331 115.277 C 311.901 114.582,320.573 103.646,324.600 99.805 C 326.222 98.257,328.728 95.313,328.423 95.313 C 328.336 95.313,326.949 96.675,325.341 98.340 M327.123 99.316 C 326.296 100.659,323.976 104.092,321.969 106.945 C 319.065 111.072,315.127 116.886,312.019 121.634 C 306.890 129.473,299.377 145.181,295.744 155.664 C 294.850 158.242,294.010 160.615,293.876 160.938 C 293.742 161.260,293.592 161.699,293.544 161.914 C 293.495 162.129,292.817 164.459,292.037 167.091 C 289.795 174.657,286.098 190.525,286.486 190.913 C 286.577 191.004,286.950 189.702,287.316 188.020 C 294.928 152.968,302.682 135.285,323.600 105.273 C 327.035 100.344,329.173 96.875,328.774 96.875 C 328.693 96.875,327.950 97.974,327.123 99.316 M153.711 97.651 C 196.174 97.810,207.407 97.955,208.101 98.351 C 210.062 99.472,210.136 100.070,210.166 115.062 C 210.181 122.741,210.317 128.866,210.468 128.673 C 210.619 128.479,210.654 121.951,210.547 114.167 L 210.352 100.014 209.075 98.737 L 207.798 97.461 153.996 97.455 L 100.195 97.450 153.711 97.651 M225.000 99.455 C 225.000 99.670,225.659 100.453,226.464 101.193 L 227.928 102.539 226.760 101.172 C 226.118 100.420,225.459 99.638,225.296 99.434 C 225.112 99.203,225.000 99.211,225.000 99.455 M93.675 100.684 C 92.986 101.485,92.470 102.344,92.677 102.344 C 92.757 102.344,93.212 101.816,93.688 101.172 C 94.630 99.898,94.621 99.582,93.675 100.684 M228.125 102.976 C 228.125 103.323,242.674 117.969,243.020 117.969 C 243.178 117.969,242.397 117.037,241.283 115.899 C 240.169 114.761,236.830 111.333,233.864 108.282 C 228.684 102.955,228.125 102.438,228.125 102.976 M91.470 104.118 C 91.220 104.666,91.023 105.326,91.031 105.585 C 91.039 105.843,91.306 105.457,91.623 104.726 C 92.290 103.188,92.149 102.627,91.470 104.118 M219.778 108.087 C 219.642 108.222,219.570 111.864,219.617 116.178 L 219.702 124.023 219.910 116.104 L 220.117 108.184 228.511 116.494 C 238.129 126.017,237.995 125.668,228.146 115.544 C 221.426 108.636,220.264 107.601,219.778 108.087 M90.756 117.578 C 90.756 119.189,90.825 119.849,90.910 119.043 C 90.994 118.237,90.994 116.919,90.910 116.113 C 90.825 115.308,90.756 115.967,90.756 117.578 M244.666 119.985 C 245.472 120.986,246.386 121.904,246.698 122.023 C 247.725 122.418,247.216 121.706,245.193 119.922 L 243.201 118.164 244.666 119.985 M90.724 123.242 C 90.728 124.102,90.808 124.407,90.901 123.921 C 90.995 123.435,90.991 122.732,90.893 122.359 C 90.796 121.985,90.719 122.383,90.724 123.242 M339.063 124.566 C 334.096 126.224,328.125 128.709,328.125 129.117 C 328.125 129.222,328.784 129.021,329.590 128.671 C 337.224 125.352,342.969 123.507,342.969 124.372 C 342.969 125.119,340.414 134.194,339.328 137.305 C 333.409 154.257,321.493 168.878,305.995 178.202 C 301.684 180.796,302.186 181.445,307.403 180.019 C 309.669 179.400,311.927 178.788,312.421 178.658 C 312.914 178.528,313.236 178.341,313.137 178.241 C 313.038 178.142,311.001 178.615,308.611 179.292 C 303.372 180.776,302.761 180.695,305.746 178.911 C 324.781 167.534,337.881 149.259,342.775 127.256 C 343.751 122.866,343.879 122.958,339.063 124.566 M248.828 124.038 C 248.828 124.207,251.056 126.591,253.780 129.336 C 256.503 132.082,258.885 134.602,259.073 134.937 C 259.260 135.273,259.602 135.547,259.832 135.547 C 260.374 135.547,257.590 132.322,253.425 128.125 C 249.711 124.382,248.828 123.598,248.828 124.038 M219.564 125.306 C 219.532 126.576,220.443 129.297,220.902 129.297 C 221.033 129.297,221.002 129.077,220.834 128.809 C 220.666 128.540,220.319 127.354,220.063 126.172 C 219.689 124.451,219.590 124.279,219.564 125.306 M238.495 126.660 C 241.421 129.806,244.503 132.813,244.803 132.813 C 244.968 132.813,243.351 131.055,241.211 128.906 C 237.259 124.940,235.680 123.634,238.495 126.660 M90.625 186.914 C 90.625 219.964,90.722 246.908,90.841 246.789 C 91.105 246.526,91.077 127.275,90.813 127.011 C 90.709 126.907,90.625 153.864,90.625 186.914 M210.675 130.115 C 210.814 130.632,210.929 131.187,210.932 131.348 C 210.935 131.509,211.089 131.641,211.274 131.641 C 211.724 131.641,211.343 129.743,210.829 129.425 C 210.569 129.264,210.514 129.510,210.675 130.115 M221.643 130.803 C 222.469 131.734,222.656 131.819,222.656 131.264 C 222.656 131.056,222.261 130.679,221.777 130.426 C 220.903 129.967,220.902 129.969,221.643 130.803 M223.047 131.826 C 223.047 132.135,225.449 133.275,225.659 133.065 C 225.766 132.958,225.319 132.593,224.665 132.255 C 223.426 131.614,223.047 131.514,223.047 131.826 M211.788 133.234 C 212.019 133.896,212.448 134.529,212.742 134.642 C 213.036 134.755,213.185 134.996,213.073 135.178 C 212.961 135.359,213.209 135.690,213.624 135.912 C 214.241 136.242,214.153 135.925,213.147 134.188 C 211.781 131.831,211.143 131.382,211.788 133.234 M226.367 133.203 C 226.500 133.418,226.994 133.581,227.464 133.566 C 228.290 133.540,228.292 133.527,227.539 133.203 C 226.464 132.741,226.082 132.741,226.367 133.203 M260.599 137.305 C 261.042 138.057,261.473 138.672,261.556 138.672 C 261.638 138.672,261.413 138.057,261.054 137.305 C 260.696 136.553,260.265 135.938,260.097 135.938 C 259.929 135.938,260.155 136.553,260.599 137.305 M215.100 137.958 C 215.458 138.353,215.832 138.595,215.932 138.496 C 216.031 138.396,216.462 138.703,216.889 139.177 L 217.666 140.039 217.086 139.063 C 216.767 138.525,216.264 138.078,215.968 138.068 C 215.672 138.058,215.464 137.868,215.506 137.645 C 215.547 137.422,215.327 137.240,215.016 137.240 C 214.552 137.240,214.568 137.370,215.100 137.958 M261.746 140.329 C 261.965 141.091,262.109 172.154,262.109 218.259 C 262.109 269.107,262.241 294.922,262.500 294.922 C 262.759 294.922,262.891 269.514,262.891 219.479 C 262.891 145.162,262.799 139.063,261.678 139.063 C 261.516 139.063,261.546 139.633,261.746 140.329 M217.969 139.812 C 217.969 140.299,220.293 141.556,220.609 141.240 C 220.732 141.116,220.760 140.972,220.671 140.918 C 218.977 139.902,217.969 139.489,217.969 139.812 M248.047 142.340 C 248.047 142.424,248.662 142.564,249.414 142.652 C 250.166 142.740,250.781 142.671,250.781 142.500 C 250.781 142.328,250.166 142.188,249.414 142.188 C 248.662 142.188,248.047 142.256,248.047 142.340 M252.302 143.711 C 252.970 144.335,253.548 144.906,253.588 144.981 C 253.627 145.056,253.772 149.160,253.909 154.102 L 254.158 163.086 254.130 154.029 L 254.102 144.972 252.954 143.775 C 252.323 143.117,251.645 142.578,251.448 142.578 C 251.251 142.578,251.635 143.088,252.302 143.711 M254.069 170.898 C 254.069 174.980,254.127 176.597,254.198 174.491 C 254.268 172.386,254.268 169.046,254.197 167.070 C 254.126 165.093,254.069 166.816,254.069 170.898 M271.215 173.242 C 271.217 174.531,271.290 175.012,271.377 174.309 C 271.464 173.607,271.462 172.553,271.373 171.966 C 271.284 171.379,271.213 171.953,271.215 173.242 M324.166 175.574 C 324.038 175.701,323.515 175.893,323.002 176.000 C 321.656 176.282,316.405 177.282,315.089 177.507 C 314.472 177.613,313.871 177.796,313.754 177.913 C 313.365 178.301,314.996 178.098,319.434 177.203 C 321.851 176.716,323.828 176.437,323.828 176.584 C 323.828 177.623,314.447 191.039,312.508 192.773 C 311.215 193.929,309.978 195.747,310.663 195.484 C 310.968 195.367,311.448 194.841,311.730 194.315 C 312.011 193.790,312.368 193.359,312.522 193.359 C 313.310 193.359,321.941 181.397,323.888 177.608 C 324.579 176.262,324.753 174.986,324.166 175.574 M271.134 176.885 C 271.009 179.714,273.195 194.445,273.834 195.084 C 274.311 195.561,274.312 195.437,273.847 193.816 C 273.406 192.280,272.399 185.305,272.061 181.445 C 271.787 178.320,271.198 175.424,271.134 176.885 M254.038 181.641 C 254.038 183.252,254.107 183.911,254.191 183.105 C 254.275 182.300,254.275 180.981,254.191 180.176 C 254.107 179.370,254.038 180.029,254.038 181.641 M254.005 186.523 C 254.009 187.383,254.089 187.688,254.183 187.202 C 254.276 186.717,254.272 186.013,254.175 185.640 C 254.077 185.267,254.000 185.664,254.005 186.523 M280.323 190.889 C 280.204 191.281,279.921 192.832,279.695 194.336 C 279.468 195.840,279.178 197.598,279.049 198.242 C 278.920 198.887,278.940 199.295,279.093 199.149 C 279.398 198.859,280.889 190.524,280.674 190.309 C 280.600 190.236,280.443 190.496,280.323 190.889 M286.159 191.839 C 285.750 193.022,285.278 196.484,285.526 196.484 C 285.805 196.484,286.710 191.709,286.481 191.448 C 286.407 191.364,286.262 191.539,286.159 191.839 M254.027 193.945 C 254.029 195.234,254.102 195.715,254.189 195.013 C 254.276 194.310,254.274 193.256,254.185 192.669 C 254.096 192.082,254.025 192.656,254.027 193.945 M253.836 199.956 C 253.767 201.866,253.822 203.931,253.958 204.546 C 254.093 205.161,254.225 203.599,254.251 201.074 C 254.305 195.696,254.018 194.923,253.836 199.956 M284.945 198.340 C 284.809 199.146,284.605 200.156,284.492 200.586 C 284.356 201.105,284.418 201.236,284.676 200.977 C 285.090 200.561,285.734 196.875,285.393 196.875 C 285.282 196.875,285.080 197.534,284.945 198.340 M305.551 199.794 C 304.203 200.970,301.919 202.763,300.476 203.779 C 292.932 209.090,292.118 210.055,291.639 214.258 C 291.420 216.177,291.428 216.167,292.106 213.672 C 293.141 209.866,293.791 209.075,298.758 205.578 C 302.733 202.780,308.769 197.728,308.200 197.675 C 308.091 197.665,306.899 198.618,305.551 199.794 M274.801 199.609 C 275.928 203.418,277.478 208.040,277.683 208.203 C 277.819 208.311,277.988 208.750,278.060 209.180 C 278.363 210.999,278.712 210.318,278.719 207.891 C 278.724 206.451,278.846 204.043,278.990 202.539 C 279.137 201.009,279.113 200.247,278.936 200.809 C 278.763 201.362,278.482 203.207,278.314 204.911 L 278.007 208.008 276.559 203.604 C 275.763 201.182,274.976 199.072,274.812 198.916 C 274.647 198.760,274.642 199.072,274.801 199.609 M283.818 204.558 C 283.681 204.916,283.750 205.390,283.972 205.612 C 284.249 205.890,284.375 205.686,284.375 204.961 C 284.375 203.756,284.180 203.615,283.818 204.558 M283.426 207.254 C 283.283 207.827,283.253 208.383,283.360 208.491 C 283.468 208.598,283.673 208.218,283.817 207.645 C 283.961 207.073,283.990 206.516,283.883 206.409 C 283.775 206.302,283.570 206.682,283.426 207.254 M254.005 208.398 C 254.009 209.258,254.089 209.563,254.183 209.077 C 254.276 208.592,254.272 207.888,254.175 207.515 C 254.077 207.142,254.000 207.539,254.005 208.398 M282.647 212.598 C 282.172 214.916,282.035 216.568,282.365 216.016 C 282.780 215.321,283.345 211.719,283.039 211.719 C 282.923 211.719,282.746 212.114,282.647 212.598 M282.079 217.188 C 282.047 217.510,281.923 218.213,281.804 218.750 C 281.616 219.594,281.647 219.632,282.030 219.032 C 282.274 218.650,282.398 217.946,282.305 217.469 C 282.213 216.992,282.111 216.865,282.079 217.188 M291.297 217.317 C 291.142 217.711,291.031 218.590,291.051 219.270 L 291.086 220.508 291.463 219.200 C 291.906 217.661,291.770 216.116,291.297 217.317 M281.686 220.574 C 281.661 220.825,281.527 221.352,281.388 221.745 C 281.192 222.301,281.244 222.361,281.620 222.014 C 281.886 221.768,282.021 221.241,281.918 220.842 C 281.815 220.443,281.711 220.323,281.686 220.574 M290.865 221.933 C 290.755 222.653,290.562 225.285,290.436 227.781 L 290.209 232.321 291.979 232.904 C 292.953 233.224,293.750 233.343,293.750 233.167 C 293.750 232.992,293.133 232.732,292.378 232.591 C 290.559 232.249,290.622 232.545,291.056 226.395 C 291.413 221.320,291.314 219.005,290.865 221.933 M281.141 223.567 C 280.706 224.674,280.776 225.239,281.287 224.729 C 281.522 224.494,281.648 223.975,281.568 223.577 C 281.427 222.877,281.412 222.877,281.141 223.567 M203.809 227.356 C 204.078 227.707,204.181 228.111,204.037 228.254 C 203.894 228.398,203.976 228.516,204.220 228.516 C 204.463 228.516,204.562 228.779,204.438 229.102 C 204.314 229.424,204.408 229.688,204.646 229.688 C 205.366 229.688,205.132 228.616,204.199 227.639 C 203.716 227.133,203.540 227.006,203.809 227.356 M280.762 226.788 C 280.601 226.950,280.469 227.441,280.469 227.878 C 280.469 228.453,280.587 228.554,280.896 228.245 C 281.131 228.010,281.263 227.519,281.189 227.155 C 281.115 226.791,280.923 226.625,280.762 226.788 M280.345 229.446 C 280.198 229.829,280.096 230.699,280.117 231.380 C 280.156 232.585,280.166 232.577,280.517 231.081 C 280.904 229.430,280.785 228.300,280.345 229.446 M118.359 230.273 C 118.359 230.811,118.535 231.250,118.750 231.250 C 118.965 231.250,119.141 230.811,119.141 230.273 C 119.141 229.736,118.965 229.297,118.750 229.297 C 118.535 229.297,118.359 229.736,118.359 230.273 M277.930 232.813 C 277.644 233.275,278.026 233.275,279.102 232.813 C 279.855 232.489,279.852 232.476,279.027 232.449 C 278.556 232.434,278.062 232.598,277.930 232.813 M121.484 234.321 C 121.484 234.506,121.924 234.573,122.461 234.471 C 122.998 234.368,123.438 234.217,123.438 234.134 C 123.438 234.052,122.998 233.984,122.461 233.984 C 121.924 233.984,121.484 234.136,121.484 234.321 M132.134 234.265 C 132.728 234.354,133.607 234.352,134.087 234.259 C 134.568 234.167,134.082 234.093,133.008 234.096 C 131.934 234.099,131.541 234.175,132.134 234.265 M137.207 234.254 C 137.583 234.352,138.198 234.352,138.574 234.254 C 138.950 234.155,138.643 234.075,137.891 234.075 C 137.139 234.075,136.831 234.155,137.207 234.254 M152.051 234.273 C 153.286 234.351,155.308 234.351,156.543 234.273 C 157.778 234.196,156.768 234.132,154.297 234.132 C 151.826 234.132,150.815 234.196,152.051 234.273 M159.473 234.254 C 159.849 234.352,160.464 234.352,160.840 234.254 C 161.216 234.155,160.908 234.075,160.156 234.075 C 159.404 234.075,159.097 234.155,159.473 234.254 M162.407 234.261 C 162.893 234.354,163.596 234.351,163.969 234.253 C 164.343 234.155,163.945 234.079,163.086 234.083 C 162.227 234.087,161.921 234.167,162.407 234.261 M166.691 234.266 C 167.384 234.353,168.614 234.354,169.425 234.269 C 170.235 234.185,169.668 234.114,168.164 234.113 C 166.660 234.111,165.997 234.180,166.691 234.266 M173.535 234.264 C 174.126 234.354,175.093 234.354,175.684 234.264 C 176.274 234.175,175.791 234.101,174.609 234.101 C 173.428 234.101,172.944 234.175,173.535 234.264 M179.004 234.269 C 179.810 234.353,181.128 234.353,181.934 234.269 C 182.739 234.185,182.080 234.116,180.469 234.116 C 178.857 234.116,178.198 234.185,179.004 234.269 M184.863 234.264 C 185.454 234.354,186.421 234.354,187.012 234.264 C 187.603 234.175,187.119 234.101,185.938 234.101 C 184.756 234.101,184.272 234.175,184.863 234.264 M189.362 234.267 C 190.065 234.354,191.119 234.353,191.706 234.263 C 192.293 234.174,191.719 234.103,190.430 234.105 C 189.141 234.108,188.660 234.181,189.362 234.267 M296.657 237.346 C 296.527 237.753,296.266 238.475,296.077 238.951 C 295.887 239.427,295.876 239.904,296.050 240.012 C 296.438 240.252,297.493 237.206,297.143 236.856 C 297.006 236.719,296.787 236.940,296.657 237.346 M273.438 237.672 C 273.438 237.982,273.613 238.344,273.828 238.477 C 274.043 238.609,274.219 238.356,274.219 237.914 C 274.219 237.471,274.043 237.109,273.828 237.109 C 273.613 237.109,273.438 237.363,273.438 237.672 M275.329 241.016 C 276.004 241.660,276.777 242.177,277.047 242.165 C 277.318 242.152,277.205 241.932,276.796 241.676 C 276.387 241.420,275.777 240.903,275.440 240.527 C 275.102 240.151,274.664 239.844,274.465 239.844 C 274.266 239.844,274.655 240.371,275.329 241.016 M292.285 241.809 C 291.704 242.043,291.424 242.464,291.459 243.054 L 291.513 243.945 291.682 243.066 C 291.786 242.528,292.135 242.188,292.582 242.188 C 292.984 242.188,293.422 242.012,293.555 241.797 C 293.844 241.329,293.470 241.333,292.285 241.809 M278.034 242.236 C 278.306 242.584,278.408 243.185,278.261 243.569 C 278.076 244.050,278.135 244.180,278.449 243.986 C 279.111 243.577,279.010 242.755,278.223 242.138 C 277.615 241.661,277.594 241.672,278.034 242.236 M277.930 245.703 C 277.783 246.165,277.751 246.631,277.858 246.739 C 277.966 246.846,278.174 246.556,278.320 246.094 C 278.467 245.632,278.499 245.166,278.392 245.058 C 278.284 244.951,278.076 245.241,277.930 245.703 M291.406 246.289 C 291.406 246.611,291.582 246.875,291.797 246.875 C 292.012 246.875,292.188 246.611,292.188 246.289 C 292.188 245.967,292.012 245.703,291.797 245.703 C 291.582 245.703,291.406 245.967,291.406 246.289 M291.934 248.828 C 292.067 249.365,292.179 250.112,292.182 250.488 C 292.185 250.864,292.359 251.172,292.568 251.172 C 293.032 251.172,292.638 248.795,292.083 248.242 C 291.821 247.981,291.771 248.175,291.934 248.828 M118.365 257.910 C 118.370 258.621,118.444 258.677,118.750 258.203 C 119.239 257.446,119.239 257.031,118.750 257.031 C 118.535 257.031,118.362 257.427,118.365 257.910 M274.496 258.984 C 274.384 259.414,274.431 259.766,274.600 259.766 C 274.770 259.766,275.001 259.414,275.113 258.984 C 275.226 258.555,275.179 258.203,275.009 258.203 C 274.839 258.203,274.609 258.555,274.496 258.984 M221.875 261.165 C 221.875 261.381,201.936 261.513,171.875 261.498 C 144.375 261.484,121.875 261.614,121.875 261.788 C 121.875 262.285,221.781 262.188,222.088 261.690 C 222.229 261.462,222.238 261.171,222.109 261.042 C 221.980 260.913,221.875 260.968,221.875 261.165 M295.313 261.719 C 295.313 261.934,295.499 262.109,295.726 262.109 C 295.954 262.109,296.014 262.312,295.861 262.560 C 295.692 262.833,295.754 262.906,296.016 262.743 C 296.255 262.596,296.351 262.217,296.230 261.902 C 295.982 261.254,295.313 261.121,295.313 261.719 M300.978 273.044 C 300.847 273.257,300.902 273.723,301.102 274.080 C 301.397 274.607,301.465 274.535,301.465 273.692 C 301.465 272.579,301.356 272.433,300.978 273.044 M280.737 276.528 C 280.950 277.343,282.813 279.272,282.813 278.678 C 282.813 278.477,282.461 278.093,282.031 277.825 C 281.602 277.557,281.250 277.085,281.250 276.778 C 281.250 276.470,281.091 276.119,280.896 275.999 C 280.701 275.879,280.630 276.117,280.737 276.528 M269.666 276.886 C 270.022 277.279,270.313 277.788,270.313 278.016 C 270.313 278.245,270.564 278.529,270.872 278.647 C 271.277 278.802,271.212 278.489,270.638 277.517 C 270.202 276.777,269.659 276.172,269.432 276.172 C 269.205 276.172,269.310 276.493,269.666 276.886 M293.701 286.523 C 293.674 286.631,293.628 286.851,293.598 287.012 C 293.567 287.173,293.389 287.547,293.201 287.844 C 292.967 288.213,293.019 288.330,293.365 288.214 C 293.987 288.007,294.665 286.328,294.128 286.328 C 293.920 286.328,293.728 286.416,293.701 286.523 M251.173 298.631 C 250.670 299.168,250.331 299.656,250.422 299.718 C 250.512 299.779,251.058 299.340,251.635 298.743 C 252.212 298.145,252.551 297.656,252.387 297.656 C 252.223 297.656,251.677 298.095,251.173 298.631 M261.215 299.219 C 261.103 299.648,261.149 300.000,261.319 300.000 C 261.489 300.000,261.720 299.648,261.832 299.219 C 261.944 298.789,261.897 298.438,261.728 298.438 C 261.558 298.438,261.327 298.789,261.215 299.219 M287.795 300.977 C 287.692 301.514,287.760 301.953,287.945 301.953 C 288.130 301.953,288.281 301.792,288.281 301.594 C 288.281 301.397,288.388 300.958,288.518 300.618 C 288.649 300.278,288.581 300.000,288.369 300.000 C 288.156 300.000,287.898 300.439,287.795 300.977 M259.216 302.930 C 258.861 303.470,258.760 303.906,258.988 303.906 C 259.214 303.906,259.513 303.599,259.652 303.223 C 259.790 302.847,260.093 302.410,260.323 302.252 C 260.615 302.052,260.608 301.963,260.299 301.959 C 260.055 301.956,259.568 302.393,259.216 302.930 M283.411 304.123 C 283.464 305.379,283.346 305.848,283.011 305.719 C 282.704 305.602,282.551 305.925,282.577 306.640 C 282.610 307.543,282.718 307.661,283.170 307.290 C 283.631 306.912,283.680 307.011,283.462 307.886 C 283.310 308.496,283.376 309.045,283.619 309.195 C 283.849 309.338,283.928 309.739,283.795 310.086 C 283.662 310.434,283.682 310.589,283.840 310.431 C 283.998 310.273,284.103 308.960,284.074 307.513 C 284.044 306.067,284.012 304.312,284.002 303.613 C 283.993 302.915,283.839 302.344,283.661 302.344 C 283.483 302.344,283.370 303.144,283.411 304.123 M286.994 303.418 C 286.797 304.444,286.923 305.004,287.273 304.654 C 287.682 304.245,287.941 302.344,287.588 302.344 C 287.375 302.344,287.108 302.827,286.994 303.418 M284.847 306.250 C 284.842 307.002,284.801 307.793,284.755 308.008 C 284.578 308.851,284.854 310.749,285.046 310.002 C 285.198 309.407,285.303 309.369,285.580 309.807 C 285.830 310.201,285.927 310.061,285.932 309.300 C 285.935 308.722,285.769 308.145,285.564 308.018 C 285.358 307.891,285.277 307.562,285.383 307.286 C 285.489 307.011,285.413 306.357,285.216 305.834 C 284.884 304.954,284.856 304.986,284.847 306.250 " stroke="none" fill="#0487a4" fill-rule="evenodd"></path></g></svg>